<svg xmlns="http://www.w3.org/2000/svg" width="146" height="180" viewBox="478 734 146 180"><g data-name="marketplace-card-icon"><path d="M532.75 800c0 1.659 1.363 3 3.042 3 1.679 0 3.041-1.341 3.041-3 0-6.618-5.456-12-12.166-12s-12.167 5.382-12.167 12c0 1.659 1.363 3 3.042 3 1.679 0 3.041-1.341 3.041-3 0-3.309 2.729-6 6.084-6 3.355 0 6.083 2.691 6.083 6Z" fill="#fff" fill-rule="evenodd" data-name="Path 78"/><path d="M575.333 788c-6.71 0-12.166 5.382-12.166 12 0 1.659 1.362 3 3.041 3 1.68 0 3.042-1.341 3.042-3 0-3.309 2.728-6 6.083-6s6.084 2.691 6.084 6c0 1.659 1.362 3 3.041 3 1.68 0 3.042-1.341 3.042-3 0-6.618-5.457-12-12.167-12Z" fill="#fff" fill-rule="evenodd" data-name="Path 79"/><path d="M620.958 776v-42H481.042v42H478v138h146V776h-3.042Zm-7.604 0-15.756-20.718L613.093 740h1.782v36h-1.52Zm-101.896 0v-21c0-.072-.036-.138-.042-.21a3.265 3.265 0 0 0-.11-.561c-.033-.126-.03-.255-.082-.375-.027-.066-.082-.117-.112-.183-.083-.165-.198-.306-.314-.456-.085-.108-.134-.243-.234-.339L497.51 740h106.982l-13.055 12.876c-.097.096-.15.231-.234.339-.116.15-.228.291-.31.456-.034.066-.086.114-.116.183-.052.12-.049.252-.082.375a2.734 2.734 0 0 0-.11.561c-.006.072-.042.138-.042.21v21h-79.084Zm-15.208 0 9.125-12.003V776h-9.125Zm100.375-12.003L605.75 776h-9.125v-12.003ZM487.125 740h1.782l15.495 15.282L488.646 776h-1.521v-36Zm130.792 168H484.083V782h133.834v126Z" fill="#fff" fill-rule="evenodd" data-name="Path 80"/><path d="M575.333 797c-1.679 0-3.041 1.341-3.041 3v18c0 11.577-9.551 21-21.292 21-11.74 0-21.292-9.423-21.292-21v-18c0-1.659-1.362-3-3.041-3-1.68 0-3.042 1.341-3.042 3v18c0 14.889 12.282 27 27.375 27s27.375-12.111 27.375-27v-18c0-1.659-1.363-3-3.042-3Z" fill="#fff" fill-rule="evenodd" data-name="Path 81"/></g></svg>