<svg xmlns="http://www.w3.org/2000/svg" viewBox="0 0 100 87.477">
  <defs>
    <style>
      .cls-1 {
        fill: #21cbb8;
      }
    </style>
  </defs>
  <g id="barber-shop" transform="translate(-353 -375)">
    <g id="Group_470" data-name="Group 470" transform="translate(353 375)">
      <g id="Group_469" data-name="Group 469">
        <path id="Path_248" data-name="Path 248" class="cls-1" d="M93.738,55.448V53.784H100V38.324H94.743l-3.131-6.262H8.388L5.257,38.324H0v15.46H6.262V110.34H2.425L0,112.766v6.772H31.213V116.6H2.935v-2.621l.706-.706H96.359l.706.706V116.6H34.344v2.935H100v-6.772l-2.425-2.425H93.738V58.579H90.8v3.229H83.835l-2.425,2.425V99.891l2.425,2.425H90.8v8.023H34.246V61.808H12.524V110.34H9.2V53.784H90.8v1.663h2.935Zm-9.393,10,.706-.706H90.8V66.5H84.344Zm0,3.991H90.8v3.53l-3.229,2.642-3.229,2.642V69.44Zm0,12.606L87.573,79.4,90.8,76.762v5.6L87.573,85l-3.229,2.642Zm0,9.393L87.573,88.8,90.8,86.156v8.529H84.344V91.439Zm.706,7.942-.706-.706V97.62H90.8v1.761ZM15.46,64.743H31.311V83.725H15.46Zm0,21.918H31.311v3.327H15.46Zm0,6.262H31.311V110.34H15.46ZM10.2,35H89.8l1.663,3.327H8.539ZM2.935,50.849V41.26H97.065v9.589H2.935Z" transform="translate(0 -32.062)"/>
      </g>
    </g>
    <g id="Group_472" data-name="Group 472" transform="translate(373.254 400.049)">
      <g id="Group_471" data-name="Group 471">
        <rect id="Rectangle_588" data-name="Rectangle 588" class="cls-1" width="6.262" height="2.935"/>
      </g>
    </g>
    <g id="Group_474" data-name="Group 474" transform="translate(390.573 404.746)">
      <g id="Group_473" data-name="Group 473">
        <path id="Path_249" data-name="Path 249" class="cls-1" d="M192.376,184.36v40.509h40.509V184.36Zm37.573,37.573H195.311v-1.761h34.638Zm0-4.7H195.311V187.3h34.638Z" transform="translate(-192.376 -184.36)"/>
      </g>
    </g>
    <g id="Group_476" data-name="Group 476" transform="translate(399.967 411.898)">
      <g id="Group_475" data-name="Group 475">
        <path id="Path_250" data-name="Path 250" class="cls-1" d="M257.594,234.178a4.571,4.571,0,0,0-2.043.48l-2.479-2.479,4.305-10.046-2.7-1.156-3.348,7.811-3.347-7.811-2.7,1.156,4.305,10.046-2.479,2.479a4.6,4.6,0,1,0,2.076,2.076l2.144-2.144,2.144,2.144a4.6,4.6,0,1,0,4.119-2.556Zm-12.524,6.262a1.663,1.663,0,1,1,1.663-1.663A1.665,1.665,0,0,1,245.07,240.441Zm12.524,0a1.663,1.663,0,1,1,1.663-1.663A1.665,1.665,0,0,1,257.594,240.441Z" transform="translate(-240.471 -220.978)"/>
      </g>
    </g>
    <g id="Group_478" data-name="Group 478" transform="translate(396.738 417.271)">
      <g id="Group_477" data-name="Group 477">
        <rect id="Rectangle_589" data-name="Rectangle 589" class="cls-1" width="3.131" height="2.935"/>
      </g>
    </g>
    <g id="Group_480" data-name="Group 480" transform="translate(421.787 417.271)">
      <g id="Group_479" data-name="Group 479">
        <rect id="Rectangle_590" data-name="Rectangle 590" class="cls-1" width="3.131" height="2.935"/>
      </g>
    </g>
    <g id="Group_482" data-name="Group 482" transform="translate(373.254 409.443)">
      <g id="Group_481" data-name="Group 481">
        <path id="Path_251" data-name="Path 251" class="cls-1" d="M103.7,208.407v2.935h6.36v3.229H113v-6.164Z" transform="translate(-103.703 -208.407)"/>
      </g>
    </g>
    <g id="Group_484" data-name="Group 484" transform="translate(362.296 387.525)">
      <g id="Group_483" data-name="Group 483">
        <rect id="Rectangle_591" data-name="Rectangle 591" class="cls-1" width="3.131" height="2.935"/>
      </g>
    </g>
    <g id="Group_486" data-name="Group 486" transform="translate(368.558 387.525)">
      <g id="Group_485" data-name="Group 485">
        <rect id="Rectangle_592" data-name="Rectangle 592" class="cls-1" width="29.746" height="2.935"/>
      </g>
    </g>
    <g id="Group_488" data-name="Group 488" transform="translate(440.573 387.525)">
      <g id="Group_487" data-name="Group 487">
        <rect id="Rectangle_593" data-name="Rectangle 593" class="cls-1" width="3.131" height="2.935"/>
      </g>
    </g>
    <g id="Group_490" data-name="Group 490" transform="translate(407.697 387.525)">
      <g id="Group_489" data-name="Group 489">
        <rect id="Rectangle_594" data-name="Rectangle 594" class="cls-1" width="29.746" height="2.935"/>
      </g>
    </g>
    <g id="Group_492" data-name="Group 492" transform="translate(401.434 387.525)">
      <g id="Group_491" data-name="Group 491">
        <rect id="Rectangle_595" data-name="Rectangle 595" class="cls-1" width="3.131" height="2.935"/>
      </g>
    </g>
    <g id="Group_494" data-name="Group 494" transform="translate(379.614 418.738)">
      <g id="Group_493" data-name="Group 493">
        <rect id="Rectangle_596" data-name="Rectangle 596" class="cls-1" width="2.935" height="3.131"/>
      </g>
    </g>
  </g>
</svg>
