<svg xmlns="http://www.w3.org/2000/svg" viewBox="0 0 24 24">
  <defs>
    <style>
      .cls-1 {
        fill: #fff;
        opacity: 0;
      }

      .cls-2 {
        fill: #373a8a;
      }
    </style>
  </defs>
  <g id="beauty" transform="translate(-1180 -1544)">
    <path id="Path_831" data-name="Path 831" class="cls-1" d="M0,0H24V24H0Z" transform="translate(1180 1544)"/>
    <g id="Group_599" data-name="Group 599" transform="translate(370 17665)">
      <g id="Group_506" data-name="Group 506" transform="translate(816.728 -16107.281)">
        <g id="Group_505" data-name="Group 505">
          <path id="Path_257" data-name="Path 257" class="cls-2" d="M146.909,292.8a.47.47,0,0,0-.664,0,1.259,1.259,0,0,1-1.777,0,.469.469,0,0,0-.664.663,2.2,2.2,0,0,0,3.1,0A.468.468,0,0,0,146.909,292.8Z" transform="translate(-143.667 -292.662)"/>
        </g>
      </g>
      <g id="Group_508" data-name="Group 508" transform="translate(823.893 -16107.281)">
        <g id="Group_507" data-name="Group 507">
          <path id="Path_258" data-name="Path 258" class="cls-2" d="M299.582,292.8a.47.47,0,0,0-.664,0,1.259,1.259,0,0,1-1.777,0,.469.469,0,0,0-.664.663,2.2,2.2,0,0,0,3.1,0A.468.468,0,0,0,299.582,292.8Z" transform="translate(-296.34 -292.662)"/>
        </g>
      </g>
      <g id="Group_510" data-name="Group 510" transform="translate(812 -16121)">
        <g id="Group_509" data-name="Group 509" transform="translate(0)">
          <path id="Path_259" data-name="Path 259" class="cls-2" d="M62.944,13.437a2.033,2.033,0,0,0-1.825-2.014v-.736a8.149,8.149,0,0,0-3.437-6.645,4.789,4.789,0,0,0-9.46,0,8.149,8.149,0,0,0-3.437,6.645v.735a2.033,2.033,0,0,0-1.837,2.015l0,1.187a2.029,2.029,0,0,0,2.031,2.032H45.2a10.593,10.593,0,0,0,7.629,7.329.47.47,0,0,0,.227,0l.008,0a10.64,10.64,0,0,0,2.463-.95.469.469,0,1,0-.445-.826,9.7,9.7,0,0,1-2.14.839A9.653,9.653,0,0,1,45.724,13.7v-.6l.2-.046a23.409,23.409,0,0,0,7.548-3.188,8.386,8.386,0,0,0,6.652,3.276h.054V13.7a9.68,9.68,0,0,1-1.149,4.568.469.469,0,0,0,.827.443,10.562,10.562,0,0,0,.836-2.05h.22a2.029,2.029,0,0,0,2.031-2.032ZM44.977,15.719h0a1.091,1.091,0,0,1-1.092-1.093l0-1.187a1.093,1.093,0,0,1,.9-1.071V13.7a10.655,10.655,0,0,0,.193,2.021h0ZM52.952.937a3.843,3.843,0,0,1,3.576,2.418,8.166,8.166,0,0,0-7.152,0A3.843,3.843,0,0,1,52.952.937ZM60.18,12v.2h-.054a7.447,7.447,0,0,1-5.874-2.865q.487-.345.956-.715a.469.469,0,1,0-.582-.735,22.444,22.444,0,0,1-8.9,4.25V10.687a7.228,7.228,0,0,1,14.456,0Zm1.508,3.4a1.085,1.085,0,0,1-.766.32,10.585,10.585,0,0,0,.2-2.023V12.37a1.093,1.093,0,0,1,.886,1.069l0,1.187A1.082,1.082,0,0,1,61.688,15.4Z" transform="translate(-42.946)"/>
        </g>
      </g>
      <g id="Group_512" data-name="Group 512" transform="translate(824.761 -16114.286)">
        <g id="Group_511" data-name="Group 511" transform="translate(0)">
          <path id="Path_260" data-name="Path 260" class="cls-2" d="M315.642,143.38a.47.47,0,0,0-.663-.037l-.006.006a.469.469,0,0,0,.625.7l.006-.006A.468.468,0,0,0,315.642,143.38Z" transform="translate(-314.816 -143.223)"/>
        </g>
      </g>
      <g id="Group_514" data-name="Group 514" transform="translate(822.321 -16104.774)">
        <g id="Group_513" data-name="Group 513" transform="translate(0)">
          <path id="Path_261" data-name="Path 261" class="cls-2" d="M270.946,351.914l-2.593-2.59-1-2.6a.9.9,0,0,0-1-.56,4.37,4.37,0,0,0-3.5,3.493l0,.011a.9.9,0,0,0,.538.987l2.559,1.059,2.076,2.073a.469.469,0,0,0,.664-.663l-1.81-1.808,1.066-1.064,2.332,2.329a.469.469,0,1,0,.664-.663Zm-4.835-1.154-2.323-.961a3.428,3.428,0,0,1,2.7-2.709l.911,2.379Z" transform="translate(-262.844 -346.146)"/>
        </g>
      </g>
      <g id="Group_516" data-name="Group 516" transform="translate(830.83 -16097.938)">
        <g id="Group_515" data-name="Group 515">
          <path id="Path_262" data-name="Path 262" class="cls-2" d="M444.933,492.137a.468.468,0,1,0,.138.331A.473.473,0,0,0,444.933,492.137Z" transform="translate(-444.132 -492)"/>
        </g>
      </g>
    </g>
  </g>
</svg>
