<svg xmlns="http://www.w3.org/2000/svg" width="180" height="180" viewBox="1044 734 180 180"><g data-name="booling-card-icon"><path d="M1055.613 896.58h5.806v5.807h-5.806v-5.806Zm0 0" fill="#fff" fill-rule="evenodd" data-name="Path 82"/><path d="M1067.226 896.58h40.645v5.807h-40.645v-5.806Zm0 0" fill="#fff" fill-rule="evenodd" data-name="Path 83"/><path d="M1113.677 896.58h5.807v5.807h-5.807v-5.806Zm0 0" fill="#fff" fill-rule="evenodd" data-name="Path 84"/><path d="M1125.29 896.58h5.807v5.807h-5.807v-5.806Zm0 0" fill="#fff" fill-rule="evenodd" data-name="Path 85"/><path d="M1125.29 884.968h5.807v5.806h-5.807v-5.806Zm0 0" fill="#fff" fill-rule="evenodd" data-name="Path 86"/><path d="M1125.29 873.355h5.807v5.806h-5.807v-5.806Zm0 0" fill="#fff" fill-rule="evenodd" data-name="Path 87"/><path d="M1113.677 884.968h5.807v5.806h-5.807v-5.806Zm0 0" fill="#fff" fill-rule="evenodd" data-name="Path 88"/><path d="M1113.677 873.355h5.807v5.806h-5.807v-5.806Zm0 0" fill="#fff" fill-rule="evenodd" data-name="Path 89"/><path d="M1102.065 884.968h5.806v5.806h-5.806v-5.806Zm0 0" fill="#fff" fill-rule="evenodd" data-name="Path 90"/><path d="M1102.065 873.355h5.806v5.806h-5.806v-5.806Zm0 0" fill="#fff" fill-rule="evenodd" data-name="Path 91"/><path d="M1090.452 884.968h5.806v5.806h-5.806v-5.806Zm0 0" fill="#fff" fill-rule="evenodd" data-name="Path 92"/><path d="M1090.452 873.355h5.806v5.806h-5.806v-5.806Zm0 0" fill="#fff" fill-rule="evenodd" data-name="Path 93"/><path d="M1078.839 884.968h5.806v5.806h-5.806v-5.806Zm0 0" fill="#fff" fill-rule="evenodd" data-name="Path 94"/><path d="M1078.839 873.355h5.806v5.806h-5.806v-5.806Zm0 0" fill="#fff" fill-rule="evenodd" data-name="Path 95"/><path d="M1067.226 884.968h5.806v5.806h-5.806v-5.806Zm0 0" fill="#fff" fill-rule="evenodd" data-name="Path 96"/><path d="M1067.226 873.355h5.806v5.806h-5.806v-5.806Zm0 0" fill="#fff" fill-rule="evenodd" data-name="Path 97"/><path d="M1055.613 884.968h5.806v5.806h-5.806v-5.806Zm0 0" fill="#fff" fill-rule="evenodd" data-name="Path 98"/><path d="M1055.613 873.355h5.806v5.806h-5.806v-5.806Zm0 0" fill="#fff" fill-rule="evenodd" data-name="Path 99"/><path d="M1212.387 768.839v-17.42h-11.613v-8.71c0-4.8-3.908-8.709-8.71-8.709h-11.612c-4.802 0-8.71 3.908-8.71 8.71v8.71h-23.226a14.59 14.59 0 0 0-11.613 5.806l-2.903 3.87-2.903-3.87a14.59 14.59 0 0 0-11.613-5.807h-63.871v17.42H1044v78.387c0 4.801 3.908 8.71 8.71 8.71h67.067c.438 2.157 1.397 4.11 2.68 5.806h-69.747c-4.802 0-8.71 3.908-8.71 8.71v34.838c0 4.802 3.908 8.71 8.71 8.71H1134c4.801 0 8.71-3.908 8.71-8.71v-5.806h2.903c4.801 0 8.71-3.908 8.71-8.71h8.71a2.907 2.907 0 0 1 2.902 2.903v8.71c0 6.405 5.209 11.613 11.613 11.613 6.405 0 11.613-5.208 11.613-11.613v-46.452h26.13c4.8 0 8.709-3.908 8.709-8.71V768.84h-11.613Zm-34.839 23.226v-40.646h5.807v40.646h-5.807Zm16.134 5.806-6.219 16.583c-.374 1-2.033 1-2.407 0l-6.222-16.583h14.848Zm1.286-5.806h-5.807v-40.646h5.807v40.646Zm-14.516-52.259h11.613a2.909 2.909 0 0 1 2.903 2.904v2.903h-17.42v-2.903a2.909 2.909 0 0 1 2.904-2.904Zm-38.903 20.904a8.754 8.754 0 0 1 6.967-3.484h23.226v38.268l7.873 20.998a7.124 7.124 0 0 0 6.643 4.605c2.942 0 5.61-1.85 6.643-4.602l7.873-21.001v-38.268h5.807v81.29h-62.42l-7.258-9.676v-61.938l4.646-6.192Zm-80.13-3.484h58.065a8.754 8.754 0 0 1 6.967 3.484l4.646 6.192v61.938l-7.258 9.676h-62.42v-81.29Zm75.484 148.064a2.907 2.907 0 0 1-2.903 2.904h-81.29a2.907 2.907 0 0 1-2.904-2.904v-34.838a2.907 2.907 0 0 1 2.904-2.904H1134a2.907 2.907 0 0 1 2.903 2.904v34.838Zm11.613-14.516a2.907 2.907 0 0 1-2.903 2.903h-2.903v-11.612h2.903a2.907 2.907 0 0 1 2.903 2.903v5.806Zm69.678-43.548a2.907 2.907 0 0 1-2.904 2.903h-31.935v52.258a5.812 5.812 0 0 1-5.807 5.807 5.812 5.812 0 0 1-5.806-5.807v-8.71c0-4.801-3.908-8.71-8.71-8.71h-8.71c0-4.8-3.908-8.709-8.71-8.709h-2.902v-5.806a8.66 8.66 0 0 0-1.475-4.84c3.544-2.047 6.146-5.546 6.988-9.677h29.325v-5.806h-34.838v2.903c0 4.802-3.909 8.71-8.71 8.71-4.801 0-8.71-3.908-8.71-8.71v-2.903h-72.58a2.907 2.907 0 0 1-2.904-2.903v-72.58h5.807v69.677h71.129l7.258-9.677 7.258 9.677h71.13v-69.678h5.806v72.58Zm0 0" fill="#fff" fill-rule="evenodd" data-name="Path 100"/><path d="M1096.258 763.032h-29.032v29.033h29.032v-29.033Zm-5.806 23.226h-17.42v-17.42h17.42v17.42Zm0 0" fill="#fff" fill-rule="evenodd" data-name="Path 101"/><path d="M1102.065 763.032h23.225v5.807h-23.225v-5.807Zm0 0" fill="#fff" fill-rule="evenodd" data-name="Path 102"/><path d="M1102.065 774.645h23.225v5.807h-23.225v-5.807Zm0 0" fill="#fff" fill-rule="evenodd" data-name="Path 103"/><path d="M1102.065 786.258h23.225v5.807h-23.225v-5.807Zm0 0" fill="#fff" fill-rule="evenodd" data-name="Path 104"/><path d="M1067.226 797.871h58.064v5.806h-58.064v-5.806Zm0 0" fill="#fff" fill-rule="evenodd" data-name="Path 105"/><path d="M1067.226 809.484h46.451v5.806h-46.451v-5.806Zm0 0" fill="#fff" fill-rule="evenodd" data-name="Path 106"/><path d="M1119.484 809.484h5.806v5.806h-5.806v-5.806Zm0 0" fill="#fff" fill-rule="evenodd" data-name="Path 107"/><path d="M1142.71 763.032h23.226v5.807h-23.226v-5.807Zm0 0" fill="#fff" fill-rule="evenodd" data-name="Path 108"/><path d="M1142.71 774.645h23.226v5.807h-23.226v-5.807Zm0 0" fill="#fff" fill-rule="evenodd" data-name="Path 109"/><path d="M1142.71 786.258h23.226v5.807h-23.226v-5.807Zm0 0" fill="#fff" fill-rule="evenodd" data-name="Path 110"/><path d="M1142.71 797.871h23.226v5.806h-23.226v-5.806Zm0 0" fill="#fff" fill-rule="evenodd" data-name="Path 111"/><path d="M1142.71 809.484h23.226v5.806h-23.226v-5.806Zm0 0" fill="#fff" fill-rule="evenodd" data-name="Path 112"/><path d="M1142.71 821.097h23.226v5.806h-23.226v-5.806Zm0 0" fill="#fff" fill-rule="evenodd" data-name="Path 113"/></g></svg>