<svg xmlns="http://www.w3.org/2000/svg" width="24" height="24" viewBox="104 1231 24 24"><g data-name="electronics"><path d="M104 1231h24v24h-24v-24Z" fill="#fff" fill-rule="evenodd" data-name="Path 830"/><g data-name="lamp"><g data-name="Union 1"><path d="M115.618 1255c-1.256 0-2.277-1.044-2.277-2.328v-3.358c0-1.36-.591-2.668-1.622-3.588a6.72 6.72 0 0 1-2.23-5.035 6.677 6.677 0 0 1 1.948-4.718c1.253-1.26 2.903-1.94 4.65-1.918a6.404 6.404 0 0 1 4.546 1.978 6.692 6.692 0 0 1 1.879 4.678 6.716 6.716 0 0 1-2.262 5.043c-1.01.89-1.59 2.204-1.59 3.603v3.315c0 1.284-1.022 2.328-2.278 2.328h-.764Zm0-.937h.764c.595 0 1.102-.393 1.286-.938h-3.336c.184.545.691.938 1.286.938Zm-1.36-1.875h3.485v-.69h-3.485v.69Zm0-1.627h3.485v-.69h-3.485v.69Zm1.499-9.584c.977 0 1.772.813 1.772 1.812v.726c0 .504-.244.952-.617 1.226v1.547c.284.257.464.633.464 1.052v1.594h.382c.107-1.512.783-2.912 1.894-3.89a5.771 5.771 0 0 0 1.943-4.333c0-3.113-2.477-5.678-5.52-5.718a5.489 5.489 0 0 0-3.994 1.648 5.736 5.736 0 0 0-1.675 4.053 5.774 5.774 0 0 0 1.917 4.326 5.776 5.776 0 0 1 1.922 3.914h.38v-1.594c0-.773.614-1.403 1.37-1.406v-.911h-.305c-.672 0-1.218-.559-1.218-1.246 0-.687.546-1.246 1.218-1.246.368 0 .697.167.922.43v-.172a.865.865 0 0 0-.855-.874h-.827a.464.464 0 0 1-.458-.469c0-.259.205-.469.458-.469h.827Zm-.215 6.363v1.594h.917v-1.594a.464.464 0 0 0-.459-.469.464.464 0 0 0-.458.469Zm-.153-3.563c0 .17.135.308.301.308h.304v-.305a.308.308 0 0 0-.304-.311.305.305 0 0 0-.301.308Zm6.68 3.8-.875-.894a.476.476 0 0 1 0-.663.452.452 0 0 1 .648 0l.876.895c.179.183.179.48 0 .663a.453.453 0 0 1-.649 0Zm-12.786 0a.476.476 0 0 1 0-.662l.875-.895a.451.451 0 0 1 .649 0c.179.183.179.48 0 .663l-.876.895a.453.453 0 0 1-.648 0Zm14.52-6.397a.464.464 0 0 1-.458-.469c0-.259.205-.469.458-.469h1.239c.253 0 .458.21.458.47a.464.464 0 0 1-.458.468h-1.239Zm-4.41-.469c0-1.247-.662-2.399-1.73-3.006a.474.474 0 0 1-.177-.638.453.453 0 0 1 .624-.182 4.4 4.4 0 0 1 2.2 3.826.464.464 0 0 1-.458.469.464.464 0 0 1-.458-.469Zm-12.434.469a.464.464 0 0 1-.459-.469c0-.259.205-.469.459-.469h1.238c.253 0 .458.21.458.47a.464.464 0 0 1-.458.468h-1.238Zm9.128-3.907h-.007a.466.466 0 0 1-.456-.474.462.462 0 0 1 .462-.464h.007a.466.466 0 0 1 .455.475.462.462 0 0 1-.456.463h-.005Zm5.107-1.87a.476.476 0 0 1 0-.664l.875-.895a.451.451 0 0 1 .649 0c.179.183.179.48 0 .663l-.876.895a.452.452 0 0 1-.648 0Zm-11.036 0-.875-.896a.476.476 0 0 1 0-.663.452.452 0 0 1 .648 0l.876.895c.179.183.179.48 0 .663a.452.452 0 0 1-.649 0Zm5.384-2.669v-1.265c0-.26.205-.469.458-.469s.459.21.459.469v1.265a.464.464 0 0 1-.459.47.464.464 0 0 1-.458-.47Z" fill="#b246ce" fill-rule="evenodd"/><path d="M115.618 1255c-1.256 0-2.277-1.044-2.277-2.328v-3.358c0-1.36-.591-2.668-1.622-3.588a6.72 6.72 0 0 1-2.23-5.035 6.677 6.677 0 0 1 1.948-4.718c1.253-1.26 2.903-1.94 4.65-1.918a6.404 6.404 0 0 1 4.546 1.978 6.692 6.692 0 0 1 1.879 4.678 6.716 6.716 0 0 1-2.262 5.043c-1.01.89-1.59 2.204-1.59 3.603v3.315c0 1.284-1.022 2.328-2.278 2.328h-.764Zm0-.937h.764c.595 0 1.102-.393 1.286-.938h-3.336c.184.545.691.938 1.286.938Zm-1.36-1.875h3.485v-.69h-3.485v.69Zm0-1.627h3.485v-.69h-3.485v.69Zm1.499-9.584c.977 0 1.772.813 1.772 1.812v.726c0 .504-.244.952-.617 1.226v1.547c.284.257.464.633.464 1.052v1.594h.382c.107-1.512.783-2.912 1.894-3.89a5.771 5.771 0 0 0 1.943-4.333c0-3.113-2.477-5.678-5.52-5.718a5.489 5.489 0 0 0-3.994 1.648 5.736 5.736 0 0 0-1.675 4.053 5.774 5.774 0 0 0 1.917 4.326 5.776 5.776 0 0 1 1.922 3.914h.38v-1.594c0-.773.614-1.403 1.37-1.406v-.911h-.305c-.672 0-1.218-.559-1.218-1.246 0-.687.546-1.246 1.218-1.246.368 0 .697.167.922.43v-.172a.865.865 0 0 0-.855-.874h-.827a.464.464 0 0 1-.458-.469c0-.259.205-.469.458-.469h.827Zm-.215 6.363v1.594h.917v-1.594a.464.464 0 0 0-.459-.469.464.464 0 0 0-.458.469Zm-.153-3.563c0 .17.135.308.301.308h.304v-.305a.308.308 0 0 0-.304-.311.305.305 0 0 0-.301.308Zm6.68 3.8-.875-.894a.476.476 0 0 1 0-.663.452.452 0 0 1 .648 0l.876.895c.179.183.179.48 0 .663a.453.453 0 0 1-.649 0Zm-12.786 0a.476.476 0 0 1 0-.662l.875-.895a.451.451 0 0 1 .649 0c.179.183.179.48 0 .663l-.876.895a.453.453 0 0 1-.648 0Zm14.52-6.397a.464.464 0 0 1-.458-.469c0-.259.205-.469.458-.469h1.239c.253 0 .458.21.458.47a.464.464 0 0 1-.458.468h-1.239Zm-4.41-.469c0-1.247-.662-2.399-1.73-3.006a.474.474 0 0 1-.177-.638.453.453 0 0 1 .624-.182 4.4 4.4 0 0 1 2.2 3.826.464.464 0 0 1-.458.469.464.464 0 0 1-.458-.469Zm-12.434.469a.464.464 0 0 1-.459-.469c0-.259.205-.469.459-.469h1.238c.253 0 .458.21.458.47a.464.464 0 0 1-.458.468h-1.238Zm9.128-3.907h-.007a.466.466 0 0 1-.456-.474.462.462 0 0 1 .462-.464h.007a.466.466 0 0 1 .455.475.462.462 0 0 1-.456.463h-.005Zm5.107-1.87a.476.476 0 0 1 0-.664l.875-.895a.451.451 0 0 1 .649 0c.179.183.179.48 0 .663l-.876.895a.452.452 0 0 1-.648 0Zm-11.036 0-.875-.896a.476.476 0 0 1 0-.663.452.452 0 0 1 .648 0l.876.895c.179.183.179.48 0 .663a.452.452 0 0 1-.649 0Zm5.384-2.669v-1.265c0-.26.205-.469.458-.469s.459.21.459.469v1.265a.464.464 0 0 1-.459.47.464.464 0 0 1-.458-.47Z" stroke-linejoin="round" stroke-linecap="round" stroke-width=".2" stroke="#b246ce" fill="transparent"/></g></g></g></svg>