<svg xmlns="http://www.w3.org/2000/svg" width="79.167" height="100" viewBox="-0.1 -0.1 79.167 100"><g data-name="Union 1"><path d="M37.991 100c-5.232 0-9.49-4.352-9.49-9.701V76.307c0-5.667-2.462-11.116-6.755-14.947-5.93-5.292-9.318-12.94-9.294-20.982.021-7.43 2.905-14.411 8.12-19.657 5.218-5.25 12.095-8.087 19.37-7.99 7.172.095 13.9 3.021 18.944 8.241 5.049 5.224 7.829 12.146 7.829 19.49 0 8.075-3.435 15.734-9.423 21.012-4.212 3.712-6.627 9.184-6.627 15.013v13.812c0 5.349-4.257 9.7-9.489 9.7h-3.185Zm0-3.906h3.184c2.48 0 4.59-1.636 5.358-3.907h-13.9c.768 2.27 2.879 3.907 5.358 3.907Zm-5.668-7.813h14.52v-2.872h-14.52v2.872Zm0-6.779h14.52V78.63h-14.52v2.872Zm6.246-39.93c4.071 0 7.383 3.386 7.383 7.547v3.025a6.323 6.323 0 0 1-2.571 5.108v6.42l-.002.026a5.903 5.903 0 0 1 1.936 4.385v6.64h1.59c.446-6.3 3.267-12.13 7.892-16.207 5.145-4.536 8.097-11.115 8.097-18.054 0-12.969-10.319-23.658-23.002-23.825-6.25-.084-12.154 2.356-16.64 6.868-4.482 4.508-6.96 10.505-6.98 16.885-.02 6.91 2.892 13.48 7.988 18.027 4.724 4.217 7.59 10.09 8.01 16.307h1.581v-6.641c0-3.223 2.559-5.846 5.708-5.859v-3.796h-1.267c-2.8 0-5.077-2.328-5.077-5.19 0-2.863 2.277-5.191 5.077-5.191 1.53 0 2.905.694 3.839 1.79v-.718c0-2.008-1.598-3.641-3.562-3.641h-3.444c-1.055 0-1.91-.874-1.91-1.953 0-1.079.855-1.953 1.91-1.953h3.444Zm-.896 26.511v6.64h3.821v-6.64c0-1.077-.857-1.953-1.91-1.953-1.055 0-1.911.876-1.911 1.953Zm-.637-14.846c0 .709.563 1.285 1.256 1.285h1.267v-1.274c0-.714-.568-1.295-1.267-1.295-.693 0-1.256.576-1.256 1.284ZM64.87 69.074l-3.649-3.73c-.745-.762-.745-1.999 0-2.761a1.881 1.881 0 0 1 2.703 0l3.647 3.728c.747.763.747 2 0 2.763-.373.38-.862.572-1.35.572-.49 0-.978-.191-1.351-.572Zm-53.277 0c-.746-.763-.746-2 0-2.763l3.647-3.728a1.88 1.88 0 0 1 2.702 0 1.983 1.983 0 0 1 0 2.762l-3.647 3.73c-.373.38-.862.571-1.351.571s-.978-.191-1.351-.572Zm60.503-26.658c-1.055 0-1.91-.875-1.91-1.954 0-1.078.855-1.953 1.91-1.953h5.159c1.055 0 1.91.875 1.91 1.953 0 1.08-.855 1.954-1.91 1.954h-5.159Zm-18.375-1.954c0-5.196-2.761-9.996-7.207-12.526-.923-.525-1.254-1.715-.74-2.657a1.89 1.89 0 0 1 2.599-.757c5.656 3.22 9.17 9.328 9.17 15.94 0 1.08-.856 1.954-1.911 1.954-1.055 0-1.91-.875-1.91-1.954ZM1.911 42.416C.855 42.416 0 41.54 0 40.462c0-1.078.855-1.953 1.91-1.953h5.16c1.055 0 1.91.875 1.91 1.953 0 1.08-.855 1.954-1.91 1.954H1.91Zm38.032-16.28h-.03c-1.055-.011-1.91-.897-1.897-1.975.013-1.078.87-1.941 1.923-1.93h.03c1.055.012 1.91.897 1.897 1.975-.012 1.072-.856 1.93-1.9 1.93h-.023Zm21.28-7.793c-.746-.763-.746-2 0-2.763l3.648-3.729a1.88 1.88 0 0 1 2.701 0c.747.763.747 2 0 2.762l-3.647 3.73a1.884 1.884 0 0 1-2.702 0Zm-45.982-.001-3.648-3.729c-.745-.763-.746-2 0-2.762a1.883 1.883 0 0 1 2.703 0l3.647 3.729c.747.763.747 2 0 2.762a1.882 1.882 0 0 1-2.702 0ZM37.673 7.227V1.953c0-1.079.855-1.953 1.91-1.953 1.056 0 1.911.874 1.911 1.953v5.274c0 1.078-.855 1.953-1.91 1.953-1.056 0-1.911-.875-1.911-1.953Z" fill="#b246ce" fill-rule="evenodd"/><path d="M37.991 100c-5.232 0-9.49-4.352-9.49-9.701V76.307c0-5.667-2.462-11.116-6.755-14.947-5.93-5.292-9.318-12.94-9.294-20.982.021-7.43 2.905-14.411 8.12-19.657 5.218-5.25 12.095-8.087 19.37-7.99 7.172.095 13.9 3.021 18.944 8.241 5.049 5.224 7.829 12.146 7.829 19.49 0 8.075-3.435 15.734-9.423 21.012-4.212 3.712-6.627 9.184-6.627 15.013v13.812c0 5.349-4.257 9.7-9.489 9.7h-3.185Zm0-3.906h3.184c2.48 0 4.59-1.636 5.358-3.907h-13.9c.768 2.27 2.879 3.907 5.358 3.907Zm-5.668-7.813h14.52v-2.872h-14.52v2.872Zm0-6.779h14.52V78.63h-14.52v2.872Zm6.246-39.93c4.071 0 7.383 3.386 7.383 7.547v3.025a6.323 6.323 0 0 1-2.571 5.108v6.42l-.002.026a5.903 5.903 0 0 1 1.936 4.385v6.64h1.59c.446-6.3 3.267-12.13 7.892-16.207 5.145-4.536 8.097-11.115 8.097-18.054 0-12.969-10.319-23.658-23.002-23.825-6.25-.084-12.154 2.356-16.64 6.868-4.482 4.508-6.96 10.505-6.98 16.885-.02 6.91 2.892 13.48 7.988 18.027 4.724 4.217 7.59 10.09 8.01 16.307h1.581v-6.641c0-3.223 2.559-5.846 5.708-5.859v-3.796h-1.267c-2.8 0-5.077-2.328-5.077-5.19 0-2.863 2.277-5.191 5.077-5.191 1.53 0 2.905.694 3.839 1.79v-.718c0-2.008-1.598-3.641-3.562-3.641h-3.444c-1.055 0-1.91-.874-1.91-1.953 0-1.079.855-1.953 1.91-1.953h3.444Zm-.896 26.511v6.64h3.821v-6.64c0-1.077-.857-1.953-1.91-1.953-1.055 0-1.911.876-1.911 1.953Zm-.637-14.846c0 .709.563 1.285 1.256 1.285h1.267v-1.274c0-.714-.568-1.295-1.267-1.295-.693 0-1.256.576-1.256 1.284ZM64.87 69.074l-3.649-3.73c-.745-.762-.745-1.999 0-2.761a1.881 1.881 0 0 1 2.703 0l3.647 3.728c.747.763.747 2 0 2.763-.373.38-.862.572-1.35.572-.49 0-.978-.191-1.351-.572Zm-53.277 0c-.746-.763-.746-2 0-2.763l3.647-3.728a1.88 1.88 0 0 1 2.702 0 1.983 1.983 0 0 1 0 2.762l-3.647 3.73c-.373.38-.862.571-1.351.571s-.978-.191-1.351-.572Zm60.503-26.658c-1.055 0-1.91-.875-1.91-1.954 0-1.078.855-1.953 1.91-1.953h5.159c1.055 0 1.91.875 1.91 1.953 0 1.08-.855 1.954-1.91 1.954h-5.159Zm-18.375-1.954c0-5.196-2.761-9.996-7.207-12.526-.923-.525-1.254-1.715-.74-2.657a1.89 1.89 0 0 1 2.599-.757c5.656 3.22 9.17 9.328 9.17 15.94 0 1.08-.856 1.954-1.911 1.954-1.055 0-1.91-.875-1.91-1.954ZM1.911 42.416C.855 42.416 0 41.54 0 40.462c0-1.078.855-1.953 1.91-1.953h5.16c1.055 0 1.91.875 1.91 1.953 0 1.08-.855 1.954-1.91 1.954H1.91Zm38.032-16.28h-.03c-1.055-.011-1.91-.897-1.897-1.975.013-1.078.87-1.941 1.923-1.93h.03c1.055.012 1.91.897 1.897 1.975-.012 1.072-.856 1.93-1.9 1.93h-.023Zm21.28-7.793c-.746-.763-.746-2 0-2.763l3.648-3.729a1.88 1.88 0 0 1 2.701 0c.747.763.747 2 0 2.762l-3.647 3.73a1.884 1.884 0 0 1-2.702 0Zm-45.982-.001-3.648-3.729c-.745-.763-.746-2 0-2.762a1.883 1.883 0 0 1 2.703 0l3.647 3.729c.747.763.747 2 0 2.762a1.882 1.882 0 0 1-2.702 0ZM37.673 7.227V1.953c0-1.079.855-1.953 1.91-1.953 1.056 0 1.911.874 1.911 1.953v5.274c0 1.078-.855 1.953-1.91 1.953-1.056 0-1.911-.875-1.911-1.953Z" stroke-linejoin="round" stroke-linecap="round" stroke-width=".2" stroke="#b246ce" fill="transparent"/></g></svg>