<svg xmlns="http://www.w3.org/2000/svg" viewBox="0 0 24 24">
  <defs>
    <style>
      .cls-1 {
        fill: #fff;
        opacity: 0;
      }

      .cls-2 {
        fill: #57b14b;
      }
    </style>
  </defs>
  <g id="car-rent" transform="translate(-1538 -1544)">
    <path id="Path_832" data-name="Path 832" class="cls-1" d="M0,0H24V24H0Z" transform="translate(1538 1544)"/>
    <path id="rent-a-car-service" class="cls-2" d="M4.9,54.16A4.5,4.5,0,0,1,.5,49.585a4.575,4.575,0,0,1,2.924-4.31.626.626,0,0,1-.005-.081.59.59,0,0,1,.578-.6h1.8a.59.59,0,0,1,.578.6.631.631,0,0,1,0,.079,4.272,4.272,0,0,1,.755.367l.544-.724a.563.563,0,0,1,.811-.1.617.617,0,0,1,.1.844l-3.229,4.3a.563.563,0,0,1-.811.1.617.617,0,0,1-.1-.844L6.413,46.6a3.118,3.118,0,0,0-1.51-.386,3.375,3.375,0,0,0,0,6.745,3.314,3.314,0,0,0,3.243-3.373,3.515,3.515,0,0,0-.121-.917.6.6,0,0,1,.4-.741.575.575,0,0,1,.713.416A4.765,4.765,0,0,1,9.3,49.585,4.5,4.5,0,0,1,4.9,54.16Zm-1.382,4.6H2.205a.6.6,0,0,0,0,1.2H3.521a.6.6,0,0,0,0-1.2ZM4.9,50.992h0a.6.6,0,1,0,.58.6A.589.589,0,0,0,4.9,50.992ZM3.521,56.606H.578a.6.6,0,0,0,0,1.2H3.521a.6.6,0,0,0,0-1.2Zm12.6,4.151a.59.59,0,0,1-.578.6H12.2a2.709,2.709,0,0,1-5.349-.1,1.764,1.764,0,0,1-1.05-.9,1.56,1.56,0,0,1-.155-.678V55.671a.578.578,0,1,1,1.156,0v4.008a.33.33,0,0,0,.034.143.469.469,0,0,0,.087.122,2.7,2.7,0,0,1,5.278.213h3.337A.59.59,0,0,1,16.117,60.757Zm-5.01,0a1.572,1.572,0,1,0-3.141-.018c0,.01,0,.021,0,.031a1.572,1.572,0,1,0,3.141-.013ZM8.555,55.794a.59.59,0,0,0,.578.6h.65a.6.6,0,0,0,0-1.2h-.65A.59.59,0,0,0,8.555,55.794Zm11.557,4.363h0a.6.6,0,1,0,.58.6A.589.589,0,0,0,20.11,60.156ZM24,58.429l0,.406c0,.24,0,.513,0,.844a1.7,1.7,0,0,1-1.2,1.578,2.831,2.831,0,1,1-.074-1.318.382.382,0,0,0,.115-.26c0-.333,0-.608,0-.849l0-.406c0-.49.005-1.16,0-1.473,0-.22-.01-.4-.025-.556H13.922c-.207,0-.693,0-2.18-1.528a10.039,10.039,0,0,1-1.519-1.873.61.61,0,0,1,.314-.785.569.569,0,0,1,.749.312,10.976,10.976,0,0,0,1.23,1.451,5.773,5.773,0,0,0,1.438,1.221h8.211c-.186-.185-.424-.405-.731-.687-.159-.147-.334-.307-.526-.486-.139-.13-.278-.268-.413-.4-.2-.2-.4-.4-.613-.583l-.532-.465c-2.145-1.878-2.722-2.383-4.531-2.383H10.829a.6.6,0,0,1,0-1.2H14.82c2.231,0,3.122.78,5.275,2.665l.53.463c.241.21.459.426.669.635.134.133.26.259.386.376.19.177.362.336.52.481,1.386,1.277,1.758,1.62,1.8,3.318C24,57.252,24,57.9,24,58.429Zm-2.316,2.322a1.637,1.637,0,1,0,0,.007ZM9.537,60.156h0a.6.6,0,1,0,.58.6A.589.589,0,0,0,9.536,60.156Z" transform="translate(1538 1501.906)"/>
  </g>
</svg>
