<svg xmlns="http://www.w3.org/2000/svg" viewBox="0 0 100 100">
  <defs>
    <style>
      .cls-1 {
        fill: #5c5287;
      }
    </style>
  </defs>
  <g id="care" transform="translate(-1254 -308)">
    <g id="Group_542" data-name="Group 542" transform="translate(1254 364.248)">
      <g id="Group_541" data-name="Group 541">
        <path id="Path_275" data-name="Path 275" class="cls-1" d="M59.678,312.541H52.1a2.343,2.343,0,0,0,0,4.62h7.578a2.544,2.544,0,0,1,0,5.017h-20.4a9.72,9.72,0,0,1-7.911-4.388l-4.878-6.936a13.47,13.47,0,0,0-10.5-6.039V291.17h7.191a12.537,12.537,0,0,1,9.455,4.517l10.529,12.021a2.591,2.591,0,0,1,.077,3.172,1.721,1.721,0,0,1-2.706.134l-8.266-8.963a1.749,1.749,0,0,0-2.759.142,2.616,2.616,0,0,0,.12,3.264l8.266,8.963a5.336,5.336,0,0,0,3.933,1.806,5.437,5.437,0,0,0,4.283-2.211,7.865,7.865,0,0,0-.235-9.629L35.344,292.363a16.135,16.135,0,0,0-12.167-5.813h-7.57a4.913,4.913,0,0,0-4.462-3.5H1.953A2.154,2.154,0,0,0,0,285.356v16.891a2.154,2.154,0,0,0,1.953,2.31,2.154,2.154,0,0,0,1.953-2.31V287.666h7.24a1.032,1.032,0,0,1,.935,1.106v18.515a1.032,1.032,0,0,1-.935,1.106H9.118a2.343,2.343,0,0,0,0,4.62h2.028a4.93,4.93,0,0,0,4.489-3.588,9.728,9.728,0,0,1,7.852,4.386l4.878,6.936A13.409,13.409,0,0,0,39.279,326.8h20.4c3.323,0,6.027-3.2,6.027-7.129S63,312.541,59.678,312.541Z" transform="translate(0 -283.046)"/>
      </g>
    </g>
    <g id="Group_544" data-name="Group 544" transform="translate(1288.295 308)">
      <g id="Group_543" data-name="Group 543" transform="translate(0 0)">
        <path id="Path_276" data-name="Path 276" class="cls-1" d="M239.342,60.906a2.154,2.154,0,0,0-1.953,2.31V78.7h-7.24a1.032,1.032,0,0,1-.935-1.106V59.08a1.032,1.032,0,0,1,.935-1.106h1.885a2.343,2.343,0,0,0,0-4.62h-1.885a4.93,4.93,0,0,0-4.489,3.588,9.728,9.728,0,0,1-7.852-4.386l-4.878-6.935a13.409,13.409,0,0,0-10.914-6.053h-20.4c-3.323,0-6.027,3.2-6.027,7.128s2.7,7.128,6.027,7.128h8.341a2.343,2.343,0,0,0,0-4.62h-8.341a2.544,2.544,0,0,1,0-5.017h20.4a9.72,9.72,0,0,1,7.911,4.388l4.878,6.935a13.47,13.47,0,0,0,10.5,6.04V75.2h-7.191a12.537,12.537,0,0,1-9.455-4.517L198.134,58.658a2.591,2.591,0,0,1-.077-3.172,1.721,1.721,0,0,1,2.706-.134l8.266,8.963a1.749,1.749,0,0,0,2.759-.142,2.616,2.616,0,0,0-.12-3.264L203.4,51.947a5.223,5.223,0,0,0-8.216.406,7.865,7.865,0,0,0,.235,9.629L205.951,74a16.135,16.135,0,0,0,12.167,5.813h7.57a4.913,4.913,0,0,0,4.462,3.5h9.193a2.154,2.154,0,0,0,1.953-2.31V63.216A2.154,2.154,0,0,0,239.342,60.906Z" transform="translate(-175.59 -39.568)"/>
      </g>
    </g>
    <g id="Group_546" data-name="Group 546" transform="translate(1313.3 385.202)">
      <g id="Group_545" data-name="Group 545">
        <path id="Path_277" data-name="Path 277" class="cls-1" d="M307.371,375.113a1.841,1.841,0,0,0-2.58-1.156A2.488,2.488,0,0,0,303.78,377a1.97,1.97,0,0,0,1.791,1.388,1.692,1.692,0,0,0,.779-.193l.042-.022A2.5,2.5,0,0,0,307.371,375.113Z" transform="translate(-303.617 -373.752)"/>
      </g>
    </g>
    <g id="Group_548" data-name="Group 548" transform="translate(1318.375 381.738)">
      <g id="Group_547" data-name="Group 547">
        <path id="Path_278" data-name="Path 278" class="cls-1" d="M333.137,359.693a1.771,1.771,0,0,0-2.734-.487,2.6,2.6,0,0,0-.422,3.228,1.87,1.87,0,0,0,1.577.946,1.752,1.752,0,0,0,1.152-.446l.024-.021A2.586,2.586,0,0,0,333.137,359.693Z" transform="translate(-329.603 -358.757)"/>
      </g>
    </g>
    <g id="Group_550" data-name="Group 550" transform="translate(1307.714 387.325)">
      <g id="Group_549" data-name="Group 549" transform="translate(0 0)">
        <path id="Path_279" data-name="Path 279" class="cls-1" d="M278.9,384.771a1.985,1.985,0,0,0-2.308-1.783,2.322,2.322,0,0,0-1.538,2.7,2.071,2.071,0,0,0,1.916,1.877,1.67,1.67,0,0,0,.369-.042l.058-.014A2.333,2.333,0,0,0,278.9,384.771Z" transform="translate(-275.016 -382.94)"/>
      </g>
    </g>
    <g id="Group_552" data-name="Group 552" transform="translate(1322.715 377.056)">
      <g id="Group_551" data-name="Group 551">
        <path id="Path_280" data-name="Path 280" class="cls-1" d="M355.093,339.082a1.749,1.749,0,0,0-2.758.168l-.041.055a2.613,2.613,0,0,0,.2,3.258,1.778,1.778,0,0,0,1.275.561,1.833,1.833,0,0,0,1.467-.784A2.615,2.615,0,0,0,355.093,339.082ZM354,341.029l-.217-.232.235.251Z" transform="translate(-351.819 -338.487)"/>
      </g>
    </g>
    <g id="Group_554" data-name="Group 554" transform="translate(1328.435 365.032)">
      <g id="Group_553" data-name="Group 553" transform="translate(0 0)">
        <path id="Path_281" data-name="Path 281" class="cls-1" d="M383.633,286.542a1.926,1.926,0,0,0-2.437,1.547,2.408,2.408,0,0,0,1.292,2.887,1.672,1.672,0,0,0,.575.1,2.021,2.021,0,0,0,1.866-1.631l.008-.032A2.4,2.4,0,0,0,383.633,286.542Z" transform="translate(-381.109 -286.442)"/>
      </g>
    </g>
    <g id="Group_556" data-name="Group 556" transform="translate(1329.582 351.286)">
      <g id="Group_555" data-name="Group 555" transform="translate(0 0)">
        <path id="Path_282" data-name="Path 282" class="cls-1" d="M390.858,228.863q-.006-.044-.014-.088a1.983,1.983,0,0,0-2.31-1.787,2.332,2.332,0,0,0-1.516,2.719,2.071,2.071,0,0,0,1.915,1.874,1.666,1.666,0,0,0,.346-.036A2.309,2.309,0,0,0,390.858,228.863Z" transform="translate(-386.979 -226.939)"/>
      </g>
    </g>
    <g id="Group_558" data-name="Group 558" transform="translate(1329.543 358.213)">
      <g id="Group_557" data-name="Group 557" transform="translate(0 0)">
        <path id="Path_283" data-name="Path 283" class="cls-1" d="M388.909,256.932a2.081,2.081,0,0,0-2.117,2.1c0,.022,0,.068-.006.09a2.205,2.205,0,0,0,1.835,2.442c.039,0,.078,0,.116,0a2.123,2.123,0,0,0,1.946-2.141A2.23,2.23,0,0,0,388.909,256.932Z" transform="translate(-386.783 -256.923)"/>
      </g>
    </g>
    <g id="Group_560" data-name="Group 560" transform="translate(1326.121 371.404)">
      <g id="Group_559" data-name="Group 559" transform="translate(0 0)">
        <path id="Path_284" data-name="Path 284" class="cls-1" d="M372.185,314.325a1.8,1.8,0,0,0-2.662.871l-.027.058a2.552,2.552,0,0,0,.781,3.142,1.723,1.723,0,0,0,.935.282,1.915,1.915,0,0,0,1.708-1.2l-1.7-1.142,1.7,1.139A2.549,2.549,0,0,0,372.185,314.325Z" transform="translate(-369.259 -314.024)"/>
      </g>
    </g>
    <g id="Group_562" data-name="Group 562" transform="translate(1289.917 326.435)">
      <g id="Group_561" data-name="Group 561">
        <path id="Path_285" data-name="Path 285" class="cls-1" d="M187.608,120.647a1.824,1.824,0,0,0-2.62-1.033l-.017.01a2.511,2.511,0,0,0-.865,3.094,1.945,1.945,0,0,0,1.751,1.274,1.716,1.716,0,0,0,.877-.245A2.521,2.521,0,0,0,187.608,120.647Z" transform="translate(-183.898 -119.37)"/>
      </g>
    </g>
    <g id="Group_564" data-name="Group 564" transform="translate(1295.404 324.021)">
      <g id="Group_563" data-name="Group 563">
        <path id="Path_286" data-name="Path 286" class="cls-1" d="M215.861,110.684a1.96,1.96,0,0,0-2.358-1.7l-.046.014a2.375,2.375,0,0,0-1.408,2.814,2.041,2.041,0,0,0,1.887,1.735,1.673,1.673,0,0,0,.488-.073A2.36,2.36,0,0,0,215.861,110.684Z" transform="translate(-211.987 -108.918)"/>
      </g>
    </g>
    <g id="Group_566" data-name="Group 566" transform="translate(1284.976 330.184)">
      <g id="Group_565" data-name="Group 565" transform="translate(0 0)">
        <path id="Path_287" data-name="Path 287" class="cls-1" d="M162.087,136.455a1.758,1.758,0,0,0-2.745-.352l1.211,1.812-1.217-1.807a2.606,2.606,0,0,0-.311,3.246,1.854,1.854,0,0,0,1.529.871,1.766,1.766,0,0,0,1.215-.5l.026-.024A2.6,2.6,0,0,0,162.087,136.455Z" transform="translate(-158.599 -135.595)"/>
      </g>
    </g>
    <g id="Group_568" data-name="Group 568" transform="translate(1275.579 347.397)">
      <g id="Group_567" data-name="Group 567">
        <path id="Path_288" data-name="Path 288" class="cls-1" d="M112.959,210.188a1.94,1.94,0,0,0-2.4,1.621c0,.021-.014.065-.019.086a2.358,2.358,0,0,0,1.437,2.787,1.671,1.671,0,0,0,.462.066A2.049,2.049,0,0,0,114.335,213,2.379,2.379,0,0,0,112.959,210.188Z" transform="translate(-110.487 -210.106)"/>
      </g>
    </g>
    <g id="Group_570" data-name="Group 570" transform="translate(1274.74 354.263)">
      <g id="Group_569" data-name="Group 569" transform="translate(0 0)">
        <path id="Path_289" data-name="Path 289" class="cls-1" d="M108.257,239.828A2.1,2.1,0,0,0,106.195,242c0,.03,0,.059,0,.089a2.178,2.178,0,0,0,1.894,2.375h.059a2.14,2.14,0,0,0,1.951-2.226A2.2,2.2,0,0,0,108.257,239.828Z" transform="translate(-106.191 -239.824)"/>
      </g>
    </g>
    <g id="Group_572" data-name="Group 572" transform="translate(1277.64 340.902)">
      <g id="Group_571" data-name="Group 571">
        <path id="Path_290" data-name="Path 290" class="cls-1" d="M123.906,182.254a1.815,1.815,0,0,0-2.637.972l-.032.074a2.515,2.515,0,0,0,.89,3.09,1.7,1.7,0,0,0,.86.238,1.949,1.949,0,0,0,1.75-1.278A2.53,2.53,0,0,0,123.906,182.254Z" transform="translate(-121.037 -181.989)"/>
      </g>
    </g>
    <g id="Group_574" data-name="Group 574" transform="translate(1280.824 335.076)">
      <g id="Group_573" data-name="Group 573" transform="translate(0 0)">
        <path id="Path_291" data-name="Path 291" class="cls-1" d="M140.551,157.306a1.754,1.754,0,0,0-2.75.3l-.04.059a2.6,2.6,0,0,0,.318,3.242,1.762,1.762,0,0,0,1.211.5,1.855,1.855,0,0,0,1.527-.865A2.61,2.61,0,0,0,140.551,157.306Z" transform="translate(-137.339 -156.773)"/>
      </g>
    </g>
    <g id="Group_576" data-name="Group 576" transform="translate(1275.139 361.185)">
      <g id="Group_575" data-name="Group 575">
        <path id="Path_292" data-name="Path 292" class="cls-1" d="M112.105,271.694a2.006,2.006,0,0,0-2.267-1.866,2.309,2.309,0,0,0-1.578,2.681l0,.023a2.064,2.064,0,0,0,1.915,1.892,1.685,1.685,0,0,0,.35-.037A2.321,2.321,0,0,0,112.105,271.694Z" transform="translate(-108.23 -269.791)"/>
      </g>
    </g>
    <g id="Group_578" data-name="Group 578" transform="translate(1288.485 345.553)">
      <g id="Group_577" data-name="Group 577" transform="translate(0 0)">
        <path id="Path_293" data-name="Path 293" class="cls-1" d="M198.786,202.125a8.447,8.447,0,0,0-6.576,3.332,8.448,8.448,0,0,0-6.576-3.332c-5,0-9.069,4.812-9.069,10.727a11.576,11.576,0,0,0,3.265,8.241l.038.037L191,231.551a1.723,1.723,0,0,0,2.429,0l11.6-10.93a2.083,2.083,0,0,0,.162-.171,11.712,11.712,0,0,0,2.665-7.595C207.855,206.937,203.786,202.125,198.786,202.125Zm3.716,14.966-10.3,9.7-9.893-9.264a6.6,6.6,0,0,1-1.842-4.675c0-3.368,2.316-6.107,5.163-6.107a5.222,5.222,0,0,1,4.771,3.772,1.854,1.854,0,0,0,3.608,0,5.222,5.222,0,0,1,4.771-3.772c2.847,0,5.163,2.74,5.163,6.107A6.689,6.689,0,0,1,202.5,217.091Z" transform="translate(-176.566 -202.125)"/>
      </g>
    </g>
    <g id="Group_580" data-name="Group 580" transform="translate(1254.007 389.602)">
      <g id="Group_579" data-name="Group 579">
        <ellipse id="Ellipse_109" data-name="Ellipse 109" class="cls-1" cx="1.946" cy="2.302" rx="1.946" ry="2.302"/>
      </g>
    </g>
    <g id="Group_582" data-name="Group 582" transform="translate(1350.101 321.793)">
      <g id="Group_581" data-name="Group 581" transform="translate(0 0)">
        <ellipse id="Ellipse_110" data-name="Ellipse 110" class="cls-1" cx="1.946" cy="2.302" rx="1.946" ry="2.302"/>
      </g>
    </g>
  </g>
</svg>
