<svg xmlns="http://www.w3.org/2000/svg" width="36" height="36" viewBox="1458 41 36 36"><path d="M1493.792 49.484a1.154 1.154 0 0 0-.898-.495l-22.33-.966a1.154 1.154 0 0 0-1.204 1.109c-.028.64.466 1.18 1.104 1.207l20.82.901-4.094 12.817h-18.217l-3.291-17.983a1.158 1.158 0 0 0-.714-.87l-5.39-4.124a1.155 1.155 0 0 0-1.498.655 1.161 1.161 0 0 0 .653 1.503l4.792 3.89 3.35 18.297c.1.55.578.95 1.136.95h.555l-1.268 3.536a.967.967 0 0 0 .905 1.293h.89a3.475 3.475 0 0 0 2.575 5.796 3.475 3.475 0 0 0 2.576-5.796h7.555a3.475 3.475 0 0 0 2.575 5.796 3.475 3.475 0 0 0 2.576-5.796h1.082a.964.964 0 0 0 .962-.966.964.964 0 0 0-.962-.966h-18.46l1.04-2.897h17.42c.502 0 .947-.326 1.1-.806l4.812-15.068a1.16 1.16 0 0 0-.152-1.017Zm-22.123 25.584c-.85 0-1.54-.693-1.54-1.545 0-.853.69-1.546 1.54-1.546.849 0 1.54.693 1.54 1.546 0 .852-.691 1.545-1.54 1.545Zm12.705 0c-.85 0-1.54-.693-1.54-1.545 0-.853.69-1.546 1.54-1.546.85 0 1.54.693 1.54 1.546 0 .852-.69 1.545-1.54 1.545Z" fill="#121212" fill-rule="evenodd" data-name="Path 240"/></svg>