<svg xmlns="http://www.w3.org/2000/svg" viewBox="0 0 24 24">
  <defs>
    <style>
      .cls-1 {
        fill: #fff;
        opacity: 0;
      }

      .cls-2 {
        fill: #fb3b71;
      }
    </style>
  </defs>
  <g id="commercial-active" transform="translate(-956 -94)">
    <path id="Path_837" data-name="Path 837" class="cls-1" d="M0,0H24V24H0Z" transform="translate(956 94)"/>
    <g id="commercial" transform="translate(-836 -2015)">
      <g id="Group_74" data-name="Group 74" transform="translate(1796 2113)">
        <path id="Path_52" data-name="Path 52" class="cls-2" d="M15.524,23.865h-.476V10.685a1.72,1.72,0,0,0-1.588-1.824H9.092A1.72,1.72,0,0,0,7.5,10.685v2.42a1.663,1.663,0,0,0-.4-.053H2.739a1.546,1.546,0,0,0-1.588,1.5v9.316H.476a.5.5,0,0,0,0,1H15.524a.5.5,0,0,0,0-1Zm-13.1-9.316c0-.049.111-.168.318-.168H7.107c.206,0,.318.119.318.168v9.316h-5Zm6.352-3.864c0-.292.167-.5.318-.5h4.367c.15,0,.318.2.318.5v13.18h-5Z" transform="translate(0 -8.861)"/>
        <path id="Path_53" data-name="Path 53" class="cls-2" d="M238.185,55.12H237.4a.471.471,0,0,0-.46.481v.821a.471.471,0,0,0,.46.481h.785a.471.471,0,0,0,.46-.481V55.6A.471.471,0,0,0,238.185,55.12Z" transform="translate(-227.682 -53.231)"/>
        <path id="Path_54" data-name="Path 54" class="cls-2" d="M238.185,112.02H237.4a.471.471,0,0,0-.46.481v.821a.471.471,0,0,0,.46.481h.785a.471.471,0,0,0,.46-.481V112.5A.471.471,0,0,0,238.185,112.02Z" transform="translate(-227.682 -107.807)"/>
        <path id="Path_55" data-name="Path 55" class="cls-2" d="M238.185,168.92H237.4a.471.471,0,0,0-.46.481v.821a.471.471,0,0,0,.46.481h.785a.471.471,0,0,0,.46-.481V169.4A.471.471,0,0,0,238.185,168.92Z" transform="translate(-227.682 -162.383)"/>
        <path id="Path_56" data-name="Path 56" class="cls-2" d="M297.792,55.12h-.785a.471.471,0,0,0-.46.481v.821a.471.471,0,0,0,.46.481h.785a.471.471,0,0,0,.46-.481V55.6A.471.471,0,0,0,297.792,55.12Z" transform="translate(-284.96 -53.231)"/>
        <path id="Path_57" data-name="Path 57" class="cls-2" d="M297.792,112.02h-.785a.471.471,0,0,0-.46.481v.821a.471.471,0,0,0,.46.481h.785a.471.471,0,0,0,.46-.481V112.5A.471.471,0,0,0,297.792,112.02Z" transform="translate(-284.96 -107.807)"/>
        <path id="Path_58" data-name="Path 58" class="cls-2" d="M297.792,168.92h-.785a.471.471,0,0,0-.46.481v.821a.471.471,0,0,0,.46.481h.785a.471.471,0,0,0,.46-.481V169.4A.471.471,0,0,0,297.792,168.92Z" transform="translate(-284.96 -162.383)"/>
        <path id="Path_59" data-name="Path 59" class="cls-2" d="M238.185,225.82H237.4a.471.471,0,0,0-.46.481v.821a.471.471,0,0,0,.46.481h.785a.471.471,0,0,0,.46-.481V226.3A.471.471,0,0,0,238.185,225.82Z" transform="translate(-227.682 -216.959)"/>
        <path id="Path_60" data-name="Path 60" class="cls-2" d="M238.185,282.72H237.4a.471.471,0,0,0-.46.481v.821a.471.471,0,0,0,.46.481h.785a.471.471,0,0,0,.46-.481V283.2A.471.471,0,0,0,238.185,282.72Z" transform="translate(-227.682 -271.535)"/>
        <path id="Path_61" data-name="Path 61" class="cls-2" d="M297.792,225.82h-.785a.471.471,0,0,0-.46.481v.821a.471.471,0,0,0,.46.481h.785a.471.471,0,0,0,.46-.481V226.3A.471.471,0,0,0,297.792,225.82Z" transform="translate(-284.96 -216.959)"/>
        <path id="Path_62" data-name="Path 62" class="cls-2" d="M297.792,282.72h-.785a.471.471,0,0,0-.46.481v.821a.471.471,0,0,0,.46.481h.785a.471.471,0,0,0,.46-.481V283.2A.471.471,0,0,0,297.792,282.72Z" transform="translate(-284.96 -271.535)"/>
        <path id="Path_63" data-name="Path 63" class="cls-2" d="M75.614,168.92h-.785a.471.471,0,0,0-.46.481v.821a.471.471,0,0,0,.46.481h.785a.471.471,0,0,0,.46-.481V169.4A.471.471,0,0,0,75.614,168.92Z" transform="translate(-71.463 -162.383)"/>
        <path id="Path_64" data-name="Path 64" class="cls-2" d="M135.22,168.92h-.785a.471.471,0,0,0-.46.481v.821a.471.471,0,0,0,.46.481h.785a.471.471,0,0,0,.46-.481V169.4A.471.471,0,0,0,135.22,168.92Z" transform="translate(-128.74 -162.383)"/>
        <path id="Path_65" data-name="Path 65" class="cls-2" d="M75.614,225.82h-.785a.471.471,0,0,0-.46.481v.821a.471.471,0,0,0,.46.481h.785a.471.471,0,0,0,.46-.481V226.3A.471.471,0,0,0,75.614,225.82Z" transform="translate(-71.463 -216.959)"/>
        <path id="Path_66" data-name="Path 66" class="cls-2" d="M75.614,282.72h-.785a.471.471,0,0,0-.46.481v.821a.471.471,0,0,0,.46.481h.785a.471.471,0,0,0,.46-.481V283.2A.471.471,0,0,0,75.614,282.72Z" transform="translate(-71.463 -271.535)"/>
        <path id="Path_67" data-name="Path 67" class="cls-2" d="M135.22,225.82h-.785a.471.471,0,0,0-.46.481v.821a.471.471,0,0,0,.46.481h.785a.471.471,0,0,0,.46-.481V226.3A.471.471,0,0,0,135.22,225.82Z" transform="translate(-128.74 -216.959)"/>
        <path id="Path_68" data-name="Path 68" class="cls-2" d="M135.22,282.72h-.785a.471.471,0,0,0-.46.481v.821a.471.471,0,0,0,.46.481h.785a.471.471,0,0,0,.46-.481V283.2A.471.471,0,0,0,135.22,282.72Z" transform="translate(-128.74 -271.535)"/>
      </g>
    </g>
  </g>
</svg>
