<svg xmlns="http://www.w3.org/2000/svg" width="180" height="118.638" viewBox="1644 734 180 118.638"><g data-name="deals-card icon"><g data-name="Group 121"><path d="M1824 764.621c-.004-2.733-.808-5.504-2.585-7.788l-14.262-18.25c-2.39-3.033-6.024-4.577-9.656-4.583-2.162 0-4.363.554-6.308 1.767l-13.906 8.652c-1.463.933-3.97 1.573-6.392 1.556-1.882.008-3.7-.368-4.9-.961l-13.619-6.597c-2.196-1.057-4.645-1.49-7.107-1.495-3.537.017-7.118.886-9.996 2.88l-1.589 1.115c-1.27-.634-3.211-1.6-5.41-2.694-2.637-1.292-5.737-1.814-8.869-1.824-2.829.008-5.657.444-8.14 1.493l-9.276 3.958c-1.51.655-3.91 1.082-6.296 1.072-2.385.01-4.782-.418-6.291-1.072l-9.284-3.96c-1.694-.722-3.504-1.03-5.298-1.033-2.066.002-4.12.41-6.028 1.182-1.906.778-3.676 1.925-5.085 3.5l-16.903 18.93a10.954 10.954 0 0 0-2.8 7.32 10.981 10.981 0 0 0 3.872 8.37l15.767 13.452-7.48 7.803a11.122 11.122 0 0 0-3.088 7.7 11.095 11.095 0 0 0 3.471 8.082l1.517 1.442c1.43 1.356 3.148 2.219 4.946 2.679-.902 1.658-1.395 3.477-1.39 5.3a11.113 11.113 0 0 0 3.466 8.083l-.004-.002 1.522 1.448a11.245 11.245 0 0 0 7.742 3.074 11.31 11.31 0 0 0 4.375-.882c.49 1.993 1.505 3.887 3.1 5.4l1.522 1.448a11.237 11.237 0 0 0 7.742 3.075 11.276 11.276 0 0 0 6.216-1.876c.548 1.763 1.487 3.434 2.916 4.792l1.522 1.448a11.227 11.227 0 0 0 7.738 3.075 11.232 11.232 0 0 0 8.122-3.451l6.61-6.903 8.982 8.312a11.188 11.188 0 0 0 7.633 2.98 11.21 11.21 0 0 0 8.214-3.55l1.434-1.537c1.237-1.329 2.045-2.902 2.514-4.544l3.479 3.211a11.24 11.24 0 0 0 7.63 2.972 11.254 11.254 0 0 0 8.228-3.557l1.425-1.534c1.647-1.76 2.573-3.938 2.86-6.163.918.235 1.849.395 2.787.395 2.997 0 6.015-1.197 8.223-3.555l1.43-1.534a11.111 11.111 0 0 0 2.988-7.596c0-.84-.121-1.677-.307-2.504 2.485-.33 4.895-1.438 6.727-3.405l1.434-1.536a11.132 11.132 0 0 0 2.988-7.6 11.119 11.119 0 0 0-3.571-8.182l-2.682-2.477 24.201-26.758c2.173-2.408 3.175-5.51 3.179-8.563Zm-158.198 47.002a5.09 5.09 0 0 1-3.516-1.39l-1.52-1.442a5.025 5.025 0 0 1-1.575-3.676 5.023 5.023 0 0 1 1.4-3.498l15.319-15.986a5.083 5.083 0 0 1 3.696-1.565 5.095 5.095 0 0 1 3.516 1.393l1.513 1.444s1.567 2.317 1.571 3.677a5.049 5.049 0 0 1-.906 2.87l-16.535 17.23c-.875.62-1.91.939-2.963.943Zm12.235 15.946c-.996 1.037-2.326 1.556-3.692 1.56a5.088 5.088 0 0 1-3.516-1.39l-1.522-1.446-.004-.003a5.027 5.027 0 0 1-1.567-3.675 5.02 5.02 0 0 1 1.395-3.498s20.42-21.257 20.593-21.462a5.073 5.073 0 0 1 3.532-1.426 5.079 5.079 0 0 1 3.516 1.391l1.522 1.448c1.047.99 1.567 2.316 1.57 3.676a5.044 5.044 0 0 1-1.399 3.5l-20.428 21.325Zm16.737 9.038c-.994 1.04-2.323 1.56-3.69 1.563a5.08 5.08 0 0 1-3.516-1.392l-1.526-1.447a5.019 5.019 0 0 1-1.57-3.675c0-1.137.386-2.24 1.126-3.159l14.221-14.843a5.062 5.062 0 0 1 3.408-1.321 5.079 5.079 0 0 1 3.516 1.39l1.526 1.449a5.041 5.041 0 0 1 1.57 3.673 5.055 5.055 0 0 1-1.398 3.5l-13.667 14.262Zm27.021-1.567-8.629 9.007c-.994 1.039-2.326 1.559-3.692 1.562a5.08 5.08 0 0 1-3.516-1.392l-1.522-1.447a5.045 5.045 0 0 1-1.57-3.675 5.027 5.027 0 0 1 1.399-3.498l8.625-9.006a5.093 5.093 0 0 1 3.696-1.563 5.078 5.078 0 0 1 3.516 1.393l1.526 1.447c1.044.99 1.563 2.315 1.567 3.673a5.042 5.042 0 0 1-1.4 3.5Zm74.967-24.43a5.024 5.024 0 0 1-1.358 3.45l-1.43 1.534a5.09 5.09 0 0 1-3.739 1.61 5.072 5.072 0 0 1-3.467-1.348l-24.094-22.282-4.166 4.46 25.79 23.892a5.072 5.072 0 0 1 1.621 3.723 5.063 5.063 0 0 1-1.358 3.453l-1.425 1.534c-.998 1.068-2.353 1.606-3.74 1.61a5.082 5.082 0 0 1-3.462-1.346l-24.1-22.282-4.163 4.461 21.389 19.779a5.027 5.027 0 0 1 1.558 3.653 5.01 5.01 0 0 1-1.35 3.448l-1.43 1.534c-.994 1.068-2.352 1.608-3.742 1.612a5.09 5.09 0 0 1-3.467-1.346l-21.345-19.707h-.004l-.004-.004-4.154 4.47.004.003.08.076 10.69 9.867a5.023 5.023 0 0 1 .093 6.948l-1.43 1.536c-.998 1.068-2.348 1.603-3.731 1.608a5.072 5.072 0 0 1-3.463-1.348l-9.308-8.62c.81-1.588 1.262-3.313 1.262-5.043a11.113 11.113 0 0 0-3.467-8.081l-1.526-1.448a11.214 11.214 0 0 0-7.733-3.073c-.215 0-.432.05-.642.062 0-.051.012-.104.012-.155.004-2.936-3.467-8.086-3.467-8.086l-1.522-1.443a11.175 11.175 0 0 0-5.645-2.876c.423-1.199.663-2.446.663-3.696 0-2.935-1.162-5.897-3.467-8.081l-1.522-1.448a11.235 11.235 0 0 0-7.738-3.077c-.323 0-.641.066-.963.095-.088-2.819-1.223-5.635-3.432-7.734v-.002l-1.517-1.441a11.228 11.228 0 0 0-7.738-3.079 11.224 11.224 0 0 0-8.122 3.45l-3.616 3.775-16.02-13.664a4.9 4.9 0 0 1-1.73-3.747 4.87 4.87 0 0 1 1.254-3.272l16.903-18.93c.67-.752 1.663-1.433 2.825-1.906a10.058 10.058 0 0 1 3.714-.73c1.074 0 2.082.194 2.888.542l9.28 3.96c2.616 1.102 5.653 1.554 8.705 1.564 3.056-.01 6.09-.463 8.706-1.565l9.275-3.958c1.43-.623 3.588-1.01 5.733-1.002 2.373-.014 4.75.477 6.128 1.18.875.436 1.706.85 2.477 1.236l-9.46 6.65a10.953 10.953 0 0 0-4.674 8.966 10.91 10.91 0 0 0 2.18 6.543l-.003-.004 1.25 1.68c2.372 3.153 6.072 4.775 9.77 4.783 2.088 0 4.215-.527 6.111-1.665l5.658-3.397c1.153-.706 2.896-1.152 4.698-1.144 2.117-.012 4.25.614 5.532 1.557l15.652 11.22c3.483 2.496 9.156 7.125 12.3 10.037l18.116 16.75a5.047 5.047 0 0 1 1.617 3.719Zm19.517-41.497-24.133 26.685-10.958-10.128c-3.432-3.168-9.091-7.789-12.887-10.515l-15.647-11.221c-2.653-1.88-5.901-2.692-9.112-2.704-2.733.008-5.486.604-7.863 2.019l-5.653 3.397c-.867.521-1.89.788-2.951.79-1.899.006-3.799-.88-4.858-2.322l-1.246-1.677-.004-.004a4.864 4.864 0 0 1-.976-2.91 4.872 4.872 0 0 1 2.087-3.991l16.727-11.753c1.446-1.047 4.02-1.781 6.463-1.763 1.698-.008 3.32.333 4.43.882l13.618 6.596c2.322 1.115 4.942 1.57 7.578 1.577 3.387-.017 6.81-.753 9.632-2.485l13.91-8.654c.888-.554 1.954-.84 3.065-.84 1.877-.004 3.759.846 4.824 2.235l14.263 18.249c.822 1.045 1.298 2.52 1.298 4.048.003 1.709-.6 3.39-1.607 4.489Z" fill="#fff" fill-rule="evenodd" data-name="Path 114"/></g></g></svg>