<svg xmlns="http://www.w3.org/2000/svg" viewBox="0 0 24 24">
  <defs>
    <style>
      .cls-1 {
        fill: #fe5a76;
      }
    </style>
  </defs>
  <g id="eyebrows" transform="translate(-822 -1544.001)">
    <g id="Group_496" data-name="Group 496" transform="translate(836.23 1547.275)">
      <g id="Group_495" data-name="Group 495">
        <path id="Path_252" data-name="Path 252" class="cls-1" d="M304.377,70.17a.469.469,0,1,0,.137.332A.471.471,0,0,0,304.377,70.17Z" transform="translate(-303.577 -70.033)"/>
      </g>
    </g>
    <g id="Group_498" data-name="Group 498" transform="translate(822 1544.001)">
      <g id="Group_497" data-name="Group 497" transform="translate(0)">
        <path id="Path_253" data-name="Path 253" class="cls-1" d="M23.919,8.494,20.155,2.961A6.235,6.235,0,0,0,12.771.644L1.3,5.036A2.006,2.006,0,0,0,.117,7.588,1.783,1.783,0,0,0,2.368,8.682L13.008,5.05a.469.469,0,0,0-.3-.888L2.065,7.794A.843.843,0,0,1,1,7.277a1.072,1.072,0,0,1,.631-1.364L13.106,1.52a5.279,5.279,0,0,1,6.275,1.969l2.312,3.4L21.5,6.755a.469.469,0,0,0-.54.767l2.3,1.619a.469.469,0,0,0,.657-.648Z" transform="translate(0 -0.233)"/>
      </g>
    </g>
    <g id="Group_500" data-name="Group 500" transform="translate(829.918 1557.762)">
      <g id="Group_499" data-name="Group 499">
        <path id="Path_254" data-name="Path 254" class="cls-1" d="M172.417,294.408a1.9,1.9,0,1,0,.252,1.434A1.888,1.888,0,0,0,172.417,294.408Zm-.663,1.231a.964.964,0,1,1-.128-.727A.965.965,0,0,1,171.754,295.639Z" transform="translate(-168.912 -293.527)"/>
      </g>
    </g>
    <g id="Group_502" data-name="Group 502" transform="translate(841.867 1567.063)">
      <g id="Group_501" data-name="Group 501">
        <path id="Path_255" data-name="Path 255" class="cls-1" d="M424.636,491.9a.469.469,0,1,0,.137.332A.472.472,0,0,0,424.636,491.9Z" transform="translate(-423.836 -491.766)"/>
      </g>
    </g>
    <g id="Group_504" data-name="Group 504" transform="translate(823.42 1546.532)">
      <g id="Group_503" data-name="Group 503">
        <path id="Path_256" data-name="Path 256" class="cls-1" d="M52.852,73.692,48.781,58.486a.47.47,0,0,0-.072-.152L45.87,54.38a.469.469,0,0,0-.847.227l-.484,4.845a.47.47,0,0,0,.014.168l.015.058a.468.468,0,0,0-.9.241,3.039,3.039,0,0,1-2.617,3.411.47.47,0,0,0-.082.019,3.982,3.982,0,0,0,1.549-3.7.469.469,0,1,0-.929.122,3.039,3.039,0,0,1-2,3.264,3.982,3.982,0,0,0,1-3.878.469.469,0,1,0-.9.255,3.038,3.038,0,0,1-2.071,3.743,8.018,8.018,0,0,0-5.144,2.512q-.195.2-.372.394c.1-.212.207-.427.327-.642A6.046,6.046,0,0,1,37.963,62h.022a.469.469,0,0,0,0-.938h-.022a7.01,7.01,0,0,0-6.352,3.9,11.905,11.905,0,0,0-1.32,3.842.469.469,0,0,0,.891.257,10.78,10.78,0,0,1,1.978-2.754,7.906,7.906,0,0,1,2.416-1.7,4.133,4.133,0,0,0,.62,6,16.986,16.986,0,0,1-2.438-.369.469.469,0,0,0-.2.916,16.848,16.848,0,0,0,3.651.43,10.31,10.31,0,0,0,5.8-1.622,10.124,10.124,0,0,0,3.315-3.72L48.25,73.43a.469.469,0,1,0,.905-.243L45.678,60.2a2.791,2.791,0,0,0,2.418-.649l3.851,14.384a.469.469,0,1,0,.905-.243Zm-9.04-10.953A3.956,3.956,0,0,0,44.6,59.8l.894,3.34a15.167,15.167,0,0,1-2.322.258A4,4,0,0,0,43.812,62.739ZM41.8,68.008a3.187,3.187,0,1,1-.422-2.4A3.166,3.166,0,0,1,41.8,68.008Zm3.943-3.959.212.792A9.431,9.431,0,0,1,42.3,69.3a4.145,4.145,0,0,0,.407-1.085,4.1,4.1,0,0,0-.546-3.109,4.155,4.155,0,0,0-.626-.766A18.1,18.1,0,0,0,45.738,64.049Zm-.229-4.881.323-3.232,1.894,2.638A1.852,1.852,0,0,1,45.509,59.167Z" transform="translate(-30.288 -54.184)"/>
      </g>
    </g>
  </g>
</svg>
