<svg xmlns="http://www.w3.org/2000/svg" viewBox="0 0 24 24">
  <defs>
    <style>
      .cls-1 {
        fill: #fe5a76;
      }
    </style>
  </defs>
  <g id="fashion" transform="translate(-822 -1231)">
    <path id="Union_2" data-name="Union 2" class="cls-1" d="M11.645,23.842.167,11.073l0,0A.465.465,0,0,1,.119,10.4L4.261,5.779a.478.478,0,0,1,.356-.158H19.383a.478.478,0,0,1,.356.158L23.881,10.4a.465.465,0,0,1-.045.665l0,0L12.355,23.842a.479.479,0,0,1-.711,0Zm-.617-2.1L7.15,11.184H1.537Zm4.391-7.858a.467.467,0,0,1,.281.6L12.99,21.723l9.473-10.539H8.16L12,21.652l2.8-7.49a.475.475,0,0,1,.445-.306A.48.48,0,0,1,15.418,13.885Zm1.923-3.639h5.13L19.457,6.88Zm-8.764,0h6.845L12,6.848Zm-7.049,0h5.13L4.543,6.88Zm14.9-.329,2.111-3.358H13.048Zm-8.861,0,3.383-3.358H5.459ZM15.4,12.579a.469.469,0,1,1,.469.469A.469.469,0,0,1,15.4,12.579ZM13.944,4.223a.469.469,0,0,1,0-.663l1.707-1.707a.469.469,0,1,1,.663.663L14.607,4.223a.469.469,0,0,1-.663,0Zm-4.644,0L7.593,2.516a.469.469,0,0,1,.663-.663L9.963,3.56a.469.469,0,1,1-.663.663Zm2.231-1.34V.469a.469.469,0,0,1,.938,0V2.883a.469.469,0,0,1-.938,0Z" transform="translate(821.999 1231)"/>
  </g>
</svg>
