<svg id="games" xmlns="http://www.w3.org/2000/svg" xmlns:xlink="http://www.w3.org/1999/xlink" viewBox="0 0 100 100">
  <defs>
    <style>
      .cls-1 {
        fill: none;
      }

      .cls-2 {
        fill: #e68942;
      }

      .cls-3 {
        fill: rgba(0,0,0,0);
      }

      .cls-4 {
        clip-path: url(#clip-path);
      }

      .cls-5 {
        clip-path: url(#clip-path-2);
      }
    </style>
    <clipPath id="clip-path">
      <path id="icon_action_extension_24px" data-name="icon/action/extension_24px" class="cls-1" d="M26.172,88h0L9.025,88A9.037,9.037,0,0,1,0,78.97V61.823H1.352a12.184,12.184,0,1,0,0-24.369H.045V20.307a9.013,9.013,0,0,1,8.98-9.024H27.078a11.281,11.281,0,1,1,22.562,0H67.693a9.035,9.035,0,0,1,9.025,9.024V38.356a11.283,11.283,0,1,1,0,22.565V78.97A9.037,9.037,0,0,1,67.693,88H50.541V86.642a12.185,12.185,0,0,0-24.369,0V88Zm12.185-22.57A21.348,21.348,0,0,1,58.124,78.97h9.569V51.9h9.025a2.256,2.256,0,0,0,0-4.512H67.693V20.307H40.615V11.283a2.256,2.256,0,1,0-4.512,0v9.024H9.025l.045,9.569A21.089,21.089,0,0,1,18.78,37.54a21.1,21.1,0,0,1,3.786,12.1A21.355,21.355,0,0,1,9.025,69.406V78.97h9.569A21.347,21.347,0,0,1,38.357,65.434Z" transform="translate(0 0)"/>
    </clipPath>
    <clipPath id="clip-path-2">
      <rect id="Rectangle" class="cls-2" width="108.305" height="108.305"/>
    </clipPath>
  </defs>
  <rect id="icon_action_stars_24px_background" data-name="icon/action/stars_24px background" class="cls-3" width="100" height="100"/>
  <path id="icon_action_extension_24px-2" data-name="icon/action/extension_24px" class="cls-1" d="M26.172,88h0L9.024,88A9.037,9.037,0,0,1,0,78.97V61.823H1.352a12.184,12.184,0,0,0,0-24.369H.045V20.307a9.012,9.012,0,0,1,8.98-9.024H27.078a11.281,11.281,0,1,1,22.561,0H67.692a9.035,9.035,0,0,1,9.024,9.024V38.356a11.283,11.283,0,1,1,0,22.565V78.97A9.037,9.037,0,0,1,67.692,88H50.54V86.642a12.184,12.184,0,1,0-24.369,0V88Zm12.184-22.57A21.347,21.347,0,0,1,58.123,78.97h9.569V51.9h9.024a2.256,2.256,0,0,0,0-4.512H67.692V20.307H40.614V11.283a2.256,2.256,0,1,0-4.512,0v9.024H9.024l.045,9.569a21.089,21.089,0,0,1,9.71,7.664,21.1,21.1,0,0,1,3.786,12.1A21.355,21.355,0,0,1,9.024,69.406V78.97h9.569A21.347,21.347,0,0,1,38.356,65.434Z" transform="translate(6 6)"/>
  <g id="Group_172" data-name="Group 172" class="cls-4" transform="translate(6 6)">
    <g id="_Color" data-name="↳ Color" transform="translate(-10.154 -10.154)">
      <rect id="_Color_background" data-name="↳ Color background" class="cls-2" width="108.307" height="108.305"/>
      <rect id="Rectangle-2" data-name="Rectangle" class="cls-2" width="108.305" height="108.305"/>
    </g>
  </g>
</svg>
