<svg xmlns="http://www.w3.org/2000/svg" xmlns:xlink="http://www.w3.org/1999/xlink" viewBox="0 0 100 100">
  <defs>
    <style>
      .cls-1 {
        fill: none;
      }

      .cls-2 {
        fill: #2df;
      }

      .cls-3 {
        fill: rgba(0,0,0,0);
      }

      .cls-4 {
        clip-path: url(#clip-path);
      }

      .cls-5 {
        clip-path: url(#clip-path-2);
      }
    </style>
    <clipPath id="clip-path">
      <path id="icon_action_language_24px" data-name="icon/action/language_24px" class="cls-1" d="M44.622,89.333A44.666,44.666,0,1,1,89.333,44.666,44.695,44.695,0,0,1,44.622,89.333Zm-8.486-26.8a63.015,63.015,0,0,0,8.53,17.688A62.88,62.88,0,0,0,53.2,62.535Zm26.263,0a69.8,69.8,0,0,1-6.163,15.9,35.845,35.845,0,0,0,19.34-15.9Zm-48.642,0a35.714,35.714,0,0,0,19.34,15.9,70.348,70.348,0,0,1-6.163-15.9Zm50.387-26.8a75.574,75.574,0,0,1,.623,8.932,75.574,75.574,0,0,1-.623,8.932h15.1A36.935,36.935,0,0,0,80.4,44.666a36.927,36.927,0,0,0-1.162-8.932Zm-29.929,0a64.153,64.153,0,0,0-.716,8.932,65.972,65.972,0,0,0,.716,8.932h20.9a65.191,65.191,0,0,0,.716-8.932,64.152,64.152,0,0,0-.716-8.932Zm-24.12,0a34.92,34.92,0,0,0,0,17.865h15.1a73.122,73.122,0,0,1-.627-8.932,71.375,71.375,0,0,1,.627-8.932ZM56.236,10.9A70.943,70.943,0,0,1,62.4,26.8H75.576a35.765,35.765,0,0,0-19.34-15.9ZM44.666,9.113A62.909,62.909,0,0,0,36.136,26.8H53.2A62.822,62.822,0,0,0,44.666,9.113ZM33.1,10.9a35.7,35.7,0,0,0-19.34,15.9H26.934A69.946,69.946,0,0,1,33.1,10.9Z" transform="translate(0 0)"/>
    </clipPath>
    <clipPath id="clip-path-2">
      <rect id="Rectangle" class="cls-2" width="107.2" height="107.2"/>
    </clipPath>
  </defs>
  <g id="gps" transform="translate(-1690 -421)">
    <rect id="icon_action_stars_24px_background" data-name="icon/action/stars_24px background" class="cls-3" width="100" height="100" transform="translate(1690 421)"/>
    <path id="icon_action_language_24px-2" data-name="icon/action/language_24px" class="cls-1" d="M44.622,89.333A44.666,44.666,0,1,1,89.333,44.666,44.695,44.695,0,0,1,44.622,89.333Zm-8.486-26.8a63.015,63.015,0,0,0,8.53,17.688A62.88,62.88,0,0,0,53.2,62.535Zm26.263,0a69.8,69.8,0,0,1-6.163,15.9,35.845,35.845,0,0,0,19.34-15.9Zm-48.642,0a35.714,35.714,0,0,0,19.34,15.9,70.348,70.348,0,0,1-6.163-15.9Zm50.387-26.8a75.574,75.574,0,0,1,.623,8.932,75.574,75.574,0,0,1-.623,8.932h15.1A36.935,36.935,0,0,0,80.4,44.666a36.927,36.927,0,0,0-1.162-8.932Zm-29.929,0a64.153,64.153,0,0,0-.716,8.932,65.972,65.972,0,0,0,.716,8.932h20.9a65.191,65.191,0,0,0,.716-8.932,64.152,64.152,0,0,0-.716-8.932Zm-24.12,0a34.92,34.92,0,0,0,0,17.865h15.1a73.122,73.122,0,0,1-.627-8.932,71.375,71.375,0,0,1,.627-8.932ZM56.236,10.9A70.943,70.943,0,0,1,62.4,26.8H75.576a35.765,35.765,0,0,0-19.34-15.9ZM44.666,9.113A62.909,62.909,0,0,0,36.136,26.8H53.2A62.822,62.822,0,0,0,44.666,9.113ZM33.1,10.9a35.7,35.7,0,0,0-19.34,15.9H26.934A69.946,69.946,0,0,1,33.1,10.9Z" transform="translate(1695.333 426.333)"/>
    <g id="Group_182" data-name="Group 182" class="cls-4" transform="translate(1695.333 426.333)">
      <g id="_Color" data-name="↳ Color" transform="translate(-8.933 -8.933)">
        <rect id="_Color_background" data-name="↳ Color background" class="cls-2" width="107.2" height="107.2"/>
        <rect id="Rectangle-2" data-name="Rectangle" class="cls-2" width="107.2" height="107.2"/>
      </g>
    </g>
  </g>
</svg>
