<svg xmlns="http://www.w3.org/2000/svg" viewBox="0 0 101.154 101.147">
  <defs>
    <style>
      .cls-1, .cls-2 {
        fill: #e68942;
        stroke: #e68942;
        stroke-linecap: round;
      }

      .cls-1 {
        stroke-linejoin: round;
      }
    </style>
  </defs>
  <g id="guitar" transform="translate(-1020.491 -368.354)">
    <path id="Path_20" data-name="Path 20" class="cls-1" d="M2.766,34.532a5.816,5.816,0,0,0,2.538.55A7.657,7.657,0,0,0,6.936,34.9c3.358-.732,5.251-3.313,4.606-6.275h0L7.848,11.691,23.377,8.3l2.737,12.549a7.331,7.331,0,0,0-2.92.089c-3.432.748-5.309,3.224-4.669,6.159a5.016,5.016,0,0,0,5.19,3.967,7.6,7.6,0,0,0,1.611-.179c3.358-.732,5.252-3.313,4.606-6.276h0L25.011,2.047a2.6,2.6,0,0,0-3.1-1.986L5.744,3.588A2.6,2.6,0,0,0,3.757,6.681L7.723,24.865a7.33,7.33,0,0,0-2.92.088,6.667,6.667,0,0,0-3.639,1.978,4.659,4.659,0,0,0-1.03,4.181A4.837,4.837,0,0,0,2.766,34.532ZM24.7,28.026c-.666.145-2.876.464-3.314-1.55C21,24.7,22.745,24.038,23.82,23.8a5.372,5.372,0,0,1,1.126-.134,1.93,1.93,0,0,1,2.125,1.566h0C27.51,27.249,25.369,27.88,24.7,28.026ZM22.219,2.993l.534,2.448L7.224,8.828,6.69,6.381ZM3.361,28.869a3.859,3.859,0,0,1,2.067-1.054,5.372,5.372,0,0,1,1.126-.134,1.93,1.93,0,0,1,2.125,1.566h0c.439,2.013-1.7,2.644-2.368,2.789a3.58,3.58,0,0,1-2.273-.145A1.888,1.888,0,0,1,3,30.488,1.711,1.711,0,0,1,3.361,28.869Zm0,0" transform="translate(1020.992 369)"/>
    <path id="Path_21" data-name="Path 21" class="cls-1" d="M357.96,344.143a2.585,2.585,0,0,0-1.438-1.376l-15.429-6a2.6,2.6,0,0,0-3.366,1.482l-6.744,17.359a7.244,7.244,0,0,0-2.477-1.553,6.669,6.669,0,0,0-4.127-.362,4.66,4.66,0,0,0-3.168,2.916,4.836,4.836,0,0,0,.3,4.3,6.4,6.4,0,0,0,3.272,2.611,7.082,7.082,0,0,0,2.562.507,4.9,4.9,0,0,0,4.745-3.193l6.276-16.155,14.815,5.756-4.656,11.985a7.247,7.247,0,0,0-2.477-1.553c-3.275-1.273-6.207-.246-7.294,2.554a4.833,4.833,0,0,0,.305,4.3,6.4,6.4,0,0,0,3.271,2.611,7.1,7.1,0,0,0,2.563.507,4.9,4.9,0,0,0,4.744-3.194L358,346.133A2.585,2.585,0,0,0,357.96,344.143ZM325.848,360.8a3.573,3.573,0,0,1-1.814-1.376,1.892,1.892,0,0,1-.092-1.747,1.712,1.712,0,0,1,1.2-1.147,2.539,2.539,0,0,1,.66-.081,4.617,4.617,0,0,1,1.645.344,3.714,3.714,0,0,1,1.836,1.334,1.738,1.738,0,0,1,.083,1.656C328.617,361.7,326.484,361.046,325.848,360.8Zm13.583-18.841.907-2.335,14.816,5.756-.907,2.335Zm3.963,25.658a3.572,3.572,0,0,1-1.814-1.376,1.891,1.891,0,0,1-.093-1.746,1.833,1.833,0,0,1,1.854-1.238,4.739,4.739,0,0,1,1.649.354,3.714,3.714,0,0,1,1.836,1.334,1.737,1.737,0,0,1,.083,1.656C346.163,368.52,344.031,367.863,343.394,367.616Zm0,0" transform="translate(762.818 98.146)"/>
    <path id="Path_22" data-name="Path 22" class="cls-1" d="M43.022,256.915c-9.007,6.546-22.715,4.4-31.886-4.981a27.832,27.832,0,0,1-8.2-19.709,19.93,19.93,0,0,1,6.023-14.276,19.524,19.524,0,0,1,9.914-4.956,23.717,23.717,0,0,0,13.213-7.205,1.465,1.465,0,0,0-2.148-1.991,20.813,20.813,0,0,1-11.6,6.316,22.444,22.444,0,0,0-11.4,5.708A22.835,22.835,0,0,0,.006,232.168a30.773,30.773,0,0,0,9.035,21.814,31.039,31.039,0,0,0,21.88,9.633,23.32,23.32,0,0,0,13.823-4.329,1.465,1.465,0,0,0-1.722-2.37Zm0,0" transform="translate(1020.999 205.386)"/>
    <path id="Path_23" data-name="Path 23" class="cls-1" d="M185.385,63.85a14.337,14.337,0,0,0,4.23-11.41,23.378,23.378,0,0,0-3.843-10.8l9.348-9.348a1.464,1.464,0,1,0-2.071-2.071l-25.92,25.919a11.282,11.282,0,0,0-6.214-6.215l30.51-30.512,6.216,6.216-.173.173a1.465,1.465,0,0,0,2.071,2.071l.371-.37a2.408,2.408,0,0,0,.723.112l.076,0a2.431,2.431,0,0,0,1.744-.822l1.555-1.765,1.667,1.667a1.465,1.465,0,1,0,2.072-2.071l-1.8-1.8,2.447-2.779,1.741,1.741a1.465,1.465,0,1,0,2.072-2.072l-1.873-1.872,2.428-2.757,1.261,1.262a1.465,1.465,0,1,0,2.072-2.072L214.7,12.881l1.758-2a2.432,2.432,0,0,0-.1-3.32L209.5.715a2.431,2.431,0,0,0-3.32-.105l-2,1.759L202.794.975a1.465,1.465,0,0,0-2.071,2.073l1.262,1.261-2.757,2.427-1.89-1.889a1.465,1.465,0,0,0-2.071,2.071l1.759,1.758-2.779,2.448-1.8-1.8a1.465,1.465,0,0,0-2.071,2.071l1.667,1.667-1.766,1.555a2.416,2.416,0,0,0-.718,2.517L175.43,31.267c-8.235-5.292-16.528-5.323-21.851,0a19.361,19.361,0,0,0-3.207,4.081,1.465,1.465,0,1,0,2.543,1.454,16.541,16.541,0,0,1,2.735-3.463c5.823-5.824,13.8-2.266,17.651.056L157.549,49.148c-.278-.021-.557-.034-.838-.034a11.231,11.231,0,1,0,11.23,11.231c0-.282-.014-.561-.034-.838L183.64,43.774c2.3,3.872,5.765,11.914-.327,18.006a14.291,14.291,0,0,1-3.255,2.44A23.99,23.99,0,0,0,167.652,81.1a19.578,19.578,0,0,1-3.466,8.128,1.465,1.465,0,1,0,2.36,1.736,22.483,22.483,0,0,0,3.987-9.332,21.111,21.111,0,0,1,10.931-14.845A17.232,17.232,0,0,0,185.385,63.85ZM207.767,3.121,213.949,9.3,200.607,24.454l-7.99-7.992ZM162.58,66.214a8.3,8.3,0,1,1,2.431-5.869A8.246,8.246,0,0,1,162.58,66.214Zm0,0" transform="translate(903.934 368.995)"/>
    <path id="Path_24" data-name="Path 24" class="cls-1" d="M57.7,328.7a5.077,5.077,0,0,0,0,7.171l14.957,14.958a5.071,5.071,0,0,0,7.171-7.172L64.867,328.7a5.071,5.071,0,0,0-7.171,0Zm20.056,17.03a2.141,2.141,0,0,1-3.027,3.027L59.769,333.8a2.141,2.141,0,1,1,3.027-3.028Zm0,0" transform="translate(975.765 105.698)"/>
    <path id="Path_25" data-name="Path 25" class="cls-1" d="M358.084,133.391a1.464,1.464,0,0,0,1.036-2.5L356,127.765a1.465,1.465,0,0,0-2.072,2.072l3.125,3.125A1.461,1.461,0,0,0,358.084,133.391Zm0,0" transform="translate(736.548 266.534)"/>
    <path id="Path_26" data-name="Path 26" class="cls-1" d="M335.92,155.559a1.464,1.464,0,0,0,1.036-2.5l-3.125-3.126a1.465,1.465,0,1,0-2.071,2.072l3.125,3.125A1.459,1.459,0,0,0,335.92,155.559Zm0,0" transform="translate(754.383 248.696)"/>
    <path id="Path_27" data-name="Path 27" class="cls-1" d="M313.752,177.725a1.465,1.465,0,0,0,1.035-2.5l-3.125-3.125a1.465,1.465,0,1,0-2.071,2.071l3.125,3.126A1.46,1.46,0,0,0,313.752,177.725Zm0,0" transform="translate(772.221 230.86)"/>
    <path id="Path_28" data-name="Path 28" class="cls-1" d="M291.588,199.893a1.465,1.465,0,0,0,1.036-2.5l-3.125-3.125a1.465,1.465,0,0,0-2.071,2.071l3.125,3.126A1.459,1.459,0,0,0,291.588,199.893Zm0,0" transform="translate(790.056 213.022)"/>
    <path id="Path_29" data-name="Path 29" class="cls-1" d="M265.259,216.435a1.465,1.465,0,0,0,0,2.072l3.125,3.125a1.465,1.465,0,0,0,2.071-2.072l-3.125-3.125A1.464,1.464,0,0,0,265.259,216.435Zm0,0" transform="translate(807.895 195.183)"/>
    <path id="Path_30" data-name="Path 30" class="cls-2" d="M407.319,74.775a1.465,1.465,0,1,0,0,2.071A1.464,1.464,0,0,0,407.319,74.775Zm0,0" transform="translate(695.248 309.175)"/>
    <path id="Path_31" data-name="Path 31" class="cls-2" d="M425.306,92.607a1.465,1.465,0,1,0,0,2.071A1.465,1.465,0,0,0,425.306,92.607Zm0,0" transform="translate(680.774 294.826)"/>
    <path id="Path_32" data-name="Path 32" class="cls-2" d="M429.827,52.232a1.465,1.465,0,1,0,0,2.071A1.464,1.464,0,0,0,429.827,52.232Zm0,0" transform="translate(677.136 327.315)"/>
    <path id="Path_33" data-name="Path 33" class="cls-2" d="M447.827,70.083a1.465,1.465,0,1,0,0,2.071A1.464,1.464,0,0,0,447.827,70.083Zm0,0" transform="translate(662.652 312.951)"/>
    <path id="Path_34" data-name="Path 34" class="cls-2" d="M452.346,29.712a1.465,1.465,0,1,0,0,2.071A1.464,1.464,0,0,0,452.346,29.712Zm0,0" transform="translate(659.015 345.437)"/>
    <path id="Path_35" data-name="Path 35" class="cls-2" d="M470.342,47.56a1.465,1.465,0,1,0,0,2.071A1.464,1.464,0,0,0,470.342,47.56Zm0,0" transform="translate(644.534 331.075)"/>
  </g>
</svg>
