<svg xmlns="http://www.w3.org/2000/svg" viewBox="0 0 24 24">
  <defs>
    <style>
      .cls-1 {
        fill: #b246ce;
      }
    </style>
  </defs>
  <g id="hair" transform="translate(-104 -1544)">
    <g id="Group_464" data-name="Group 464" transform="translate(104 1544)">
      <g id="Group_463" data-name="Group 463">
        <path id="Path_245" data-name="Path 245" class="cls-1" d="M23.687.313l0,0A1.075,1.075,0,0,0,22.932,0h0a1.067,1.067,0,0,0-.665.233c-2.552,2.039-5.114,4.143-7.614,6.254q-.912.77-1.824,1.551L5.886,1.1A1.76,1.76,0,0,0,3.4,1.1L.1,4.394a.352.352,0,0,0,.5.5l2.3-2.3.5.5-2.3,2.3a.352.352,0,0,0,.5.5l2.3-2.3.5.5-2.3,2.3a.352.352,0,0,0,.5.5l2.3-2.3.5.5-2.3,2.3a.352.352,0,0,0,.5.5l2.3-2.3.5.5L4.1,8.4a.352.352,0,0,0,.5.5l2.3-2.3.5.5L5.1,9.4a.352.352,0,0,0,.5.5l2.3-2.3.5.5L6.1,10.4a.352.352,0,0,0,.5.5l2.3-2.3.5.5-2.3,2.3a.352.352,0,0,0,.5.5l2.3-2.3.521.521q-1.619,1.41-3.215,2.833h0c-.315.281-.659.6-1,.91a.354.354,0,0,0-.065.518h0a2.349,2.349,0,0,1-.16,3.139l-1.06,1.06a2.459,2.459,0,1,1,.152-3.264.352.352,0,0,0,.509.039l.005,0,0,0a.352.352,0,0,0-.031-.547,3.159,3.159,0,0,0-2.4-1.1h0a3.162,3.162,0,1,0,.969,6.173A3.164,3.164,0,0,0,7.14,24h0A3.163,3.163,0,0,0,9.4,18.626l.718-.816q1.9-2.114,3.757-4.244l.53.53-2.3,2.3a.352.352,0,0,0,.5.5l2.3-2.3.5.5-2.3,2.3a.352.352,0,0,0,.5.5l2.3-2.3.5.5-2.3,2.3a.352.352,0,0,0,.5.5l2.3-2.3.5.5-2.3,2.3a.352.352,0,0,0,.5.5l2.3-2.3.5.5-2.3,2.3a.352.352,0,0,0,.5.5l2.3-2.3.5.5-2.3,2.3a.352.352,0,0,0,.5.5l2.3-2.3.5.5-2.3,2.3a.352.352,0,0,0,.5.5l2.3-2.3.5.5-2.3,2.3a.352.352,0,0,0,.5.5l2.55-2.551h0L22.9,20.6a1.758,1.758,0,0,0,0-2.486l-6.949-6.948c2.7-3.144,5.309-6.3,7.812-9.432A1.066,1.066,0,0,0,23.687.313ZM3.4,2.092l.5-.5a1.056,1.056,0,0,1,1.492,0l6.9,6.9q-.668.574-1.334,1.151Zm19.006,16.52a1.054,1.054,0,0,1,0,1.491l-.5.5-7.566-7.566q.579-.666,1.153-1.333ZM9.8,17.122a1.344,1.344,0,0,1-.7-1,.352.352,0,0,0-.7.083h0A1.916,1.916,0,0,0,9.25,17.6l.075.052c-.244.278-.445.512-.676.767a.352.352,0,0,0,.039.509,2.46,2.46,0,1,1-4.008,1.913,2.513,2.513,0,0,1,.759-1.785L6.483,18.01a3.053,3.053,0,0,0,.892-2.163,3.006,3.006,0,0,0-.49-1.654c.275-.252.515-.475.793-.723v0C15.3,6.672,22.615.829,22.752.75,22.658.845,8.941,14.556,8.878,14.627a.352.352,0,0,0,.526.467c.042-.048,13.745-13.746,13.846-13.846C23.221,1.3,17.559,8.469,9.8,17.122Z" transform="translate(0)"/>
      </g>
    </g>
    <g id="Group_466" data-name="Group 466" transform="translate(105.407 1559.097)">
      <g id="Group_465" data-name="Group 465">
        <path id="Path_246" data-name="Path 246" class="cls-1" d="M33.007,322.579a1.757,1.757,0,1,0,0,2.485A1.76,1.76,0,0,0,33.007,322.579Zm-.5,1.988a1.054,1.054,0,1,1-.746-1.8A1.056,1.056,0,0,1,32.51,324.567Z" transform="translate(-30.006 -322.063)"/>
      </g>
    </g>
    <g id="Group_468" data-name="Group 468" transform="translate(109.382 1563.08)">
      <g id="Group_467" data-name="Group 467">
        <path id="Path_247" data-name="Path 247" class="cls-1" d="M116.578,407.051a1.759,1.759,0,0,0-.014,3.518,1.787,1.787,0,0,0,.685-.138,1.73,1.73,0,0,0,1.088-1.622A1.76,1.76,0,0,0,116.578,407.051Zm.4,2.729a1.053,1.053,0,1,1-.4-2.026,1.056,1.056,0,0,1,1.055,1.054A1.04,1.04,0,0,1,116.979,409.78Z" transform="translate(-114.818 -407.051)"/>
      </g>
    </g>
  </g>
</svg>
