<svg xmlns="http://www.w3.org/2000/svg" viewBox="0 0 25 25">
  <defs>
    <style>
      .cls-1 {
        fill: #fff;
        opacity: 0;
      }

      .cls-2 {
        fill: #121212;
      }
    </style>
  </defs>
  <g id="home" transform="translate(17618 23535)">
    <path id="Path_898" data-name="Path 898" class="cls-1" d="M0,0H25V25H0Z" transform="translate(-17618 -23535)"/>
    <g id="house-outline" transform="translate(-17618 -23533.959)">
      <g id="Group_1234" data-name="Group 1234" transform="translate(0 0)">
        <path id="Path_912" data-name="Path 912" class="cls-2" d="M101.074,300.251a.7.7,0,0,0-.721.706v9.638H95.245v-3.935a.7.7,0,0,0-.695-.692H90.856a.721.721,0,0,0-.734.692v3.935h-5.1v-9.318a.708.708,0,0,0-1.415,0V311.3a.693.693,0,0,0,.694.681h6.551a.693.693,0,0,0,.694-.681v-3.936H93.83V311.3a.7.7,0,0,0,.721.681h6.524a.693.693,0,0,0,.694-.681V300.957A.7.7,0,0,0,101.074,300.251Z" transform="translate(-80.195 -288.981)"/>
        <path id="Path_913" data-name="Path 913" class="cls-2" d="M24.8,30.12,19.11,24.533v-3.81a.713.713,0,0,0-.734-.7.7.7,0,0,0-.694.7v2.412l-4.69-4.616a.7.7,0,0,0-.485-.219.719.719,0,0,0-.511.219L.219,30.043a.651.651,0,0,0,0,.974.685.685,0,0,0,1,0L12.508,19.993,23.774,31.121a.7.7,0,0,0,.511.181.8.8,0,0,0,.511-.181A.716.716,0,0,0,24.8,30.12Z" transform="translate(0 -18.3)"/>
      </g>
    </g>
  </g>
</svg>
