<svg xmlns="http://www.w3.org/2000/svg" xmlns:xlink="http://www.w3.org/1999/xlink" viewBox="0 0 24 24">
  <defs>
    <style>
      .cls-1 {
        fill: none;
      }

      .cls-2 {
        fill: #21cbb8;
      }

      .cls-3 {
        fill: rgba(0,0,0,0);
      }

      .cls-4 {
        clip-path: url(#clip-path);
      }

      .cls-5 {
        clip-path: url(#clip-path-2);
      }
    </style>
    <clipPath id="clip-path">
      <path id="icon_places_spa_24px" data-name="icon/places/spa_24px" class="cls-1" d="M12,24h0a12.912,12.912,0,0,1-2.364-.611,14.44,14.44,0,0,1-6.92-5.252A14.63,14.63,0,0,1,0,9.6a14.1,14.1,0,0,1,8.306,2.681c-.055-.036-.111-.071-.17-.108l-.019-.012-.012-.008c-.1-.06-.178-.111-.257-.166a2.8,2.8,0,0,0,.253.169l.016.01.009.005c.075.045.143.088.2.129A14.446,14.446,0,0,1,12,16.14,14.339,14.339,0,0,1,24,9.6a14.624,14.624,0,0,1-2.716,8.536,14.44,14.44,0,0,1-6.92,5.252A15.367,15.367,0,0,1,12,24ZM2.712,12.312h0A12.3,12.3,0,0,0,5.439,17.7a12.078,12.078,0,0,0,5.013,3.429,10.865,10.865,0,0,0,1.536.432,15.1,15.1,0,0,0,1.6-.444A11.954,11.954,0,0,0,18.57,17.7a12.344,12.344,0,0,0,2.718-5.4,11.93,11.93,0,0,0-3.852,1.679l.013.025-.027.018-.044.029c-.083.054-.169.11-.253.157l-.084.059A12.167,12.167,0,0,0,14,17.461l-2,3.06-2-3.072a11.869,11.869,0,0,0-3.012-3.181L6.9,14.22a4.883,4.883,0,0,1-.444-.284l-.023-.016.024-.012a12.133,12.133,0,0,0-3.744-1.6Zm9.288,0h0A16.576,16.576,0,0,0,7.812,9.156,14.693,14.693,0,0,1,12.072,0a14.225,14.225,0,0,1,4.116,9.156A17.21,17.21,0,0,0,12,12.311Zm.06-8.485A12.21,12.21,0,0,0,10.416,7.9a19,19,0,0,1,1.6,1.164A16.488,16.488,0,0,1,13.62,7.884,12.141,12.141,0,0,0,12.06,3.828Z" transform="translate(0 0)"/>
    </clipPath>
    <clipPath id="clip-path-2">
      <rect id="Rectangle" class="cls-2" width="28.8" height="28.8"/>
    </clipPath>
  </defs>
  <g id="home-garden" transform="translate(-463 -1231)">
    <rect id="icon_action_stars_24px_background" data-name="icon/action/stars_24px background" class="cls-3" width="24" height="24" transform="translate(463 1231)"/>
    <path id="icon_places_spa_24px-2" data-name="icon/places/spa_24px" class="cls-1" d="M7.733,15.466h0a8.321,8.321,0,0,1-1.523-.394A9.306,9.306,0,0,1,1.75,11.688,9.428,9.428,0,0,1,0,6.187,9.088,9.088,0,0,1,5.353,7.914c-.035-.023-.071-.046-.11-.069l-.012-.008-.008,0c-.062-.039-.114-.072-.166-.107a1.8,1.8,0,0,0,.163.109l.01.006.006,0c.048.029.092.057.13.083A9.309,9.309,0,0,1,7.733,10.4a9.24,9.24,0,0,1,7.733-4.214,9.424,9.424,0,0,1-1.75,5.5,9.306,9.306,0,0,1-4.459,3.385,9.9,9.9,0,0,1-1.523.394ZM1.748,7.934h0A7.927,7.927,0,0,0,3.5,11.409a7.784,7.784,0,0,0,3.231,2.21,7,7,0,0,0,.99.278,9.731,9.731,0,0,0,1.029-.286,7.7,7.7,0,0,0,3.213-2.2,7.955,7.955,0,0,0,1.752-3.48,7.688,7.688,0,0,0-2.483,1.082l.008.016-.017.012-.028.018c-.054.035-.109.071-.163.1l-.054.038a7.841,7.841,0,0,0-1.956,2.057L7.733,13.224,6.442,11.244A7.649,7.649,0,0,0,4.5,9.195l-.054-.031a3.147,3.147,0,0,1-.286-.183l-.015-.01.015-.008A7.819,7.819,0,0,0,1.748,7.934Zm5.985,0h0A10.682,10.682,0,0,0,5.034,5.9,9.469,9.469,0,0,1,7.78,0a9.167,9.167,0,0,1,2.652,5.9,11.09,11.09,0,0,0-2.7,2.033Zm.039-5.468a7.868,7.868,0,0,0-1.06,2.622,12.243,12.243,0,0,1,1.029.75,10.625,10.625,0,0,1,1.036-.758A7.824,7.824,0,0,0,7.772,2.467Z" transform="translate(467.267 1235.267)"/>
    <g id="Group_5" data-name="Group 5" class="cls-4" transform="translate(463 1231)">
      <g id="_Color" data-name="↳ Color" transform="translate(-2.4 -2.4)">
        <rect id="_Color_background" data-name="↳ Color background" class="cls-2" width="28.8" height="28.8"/>
        <rect id="Rectangle-2" data-name="Rectangle" class="cls-2" width="28.8" height="28.8"/>
      </g>
    </g>
  </g>
</svg>
