<svg xmlns="http://www.w3.org/2000/svg" viewBox="0 0 100 100">
  <defs>
    <style>
      .cls-1 {
        fill: #fe5a76;
      }
    </style>
  </defs>
  <g id="liner" transform="translate(-626 -384.001)">
    <g id="Group_496" data-name="Group 496" transform="translate(685.292 397.646)">
      <g id="Group_495" data-name="Group 495">
        <path id="Path_252" data-name="Path 252" class="cls-1" d="M306.909,70.606a1.955,1.955,0,1,0,.572,1.382A1.963,1.963,0,0,0,306.909,70.606Z" transform="translate(-303.577 -70.033)"/>
      </g>
    </g>
    <g id="Group_498" data-name="Group 498" transform="translate(626 384.001)">
      <g id="Group_497" data-name="Group 497" transform="translate(0)">
        <path id="Path_253" data-name="Path 253" class="cls-1" d="M99.661,34.654,83.98,11.6A25.978,25.978,0,0,0,53.211,1.944L5.4,20.245A8.358,8.358,0,0,0,.486,30.878a7.431,7.431,0,0,0,9.38,4.558L54.2,20.3a1.955,1.955,0,0,0-1.261-3.7L8.605,31.736A3.513,3.513,0,0,1,4.17,29.581,4.468,4.468,0,0,1,6.8,23.9L54.606,5.6A22,22,0,0,1,80.751,13.8l9.632,14.16-.783-.552a1.954,1.954,0,0,0-2.249,3.2l9.572,6.748a1.954,1.954,0,0,0,2.739-2.7Z" transform="translate(0 -0.233)"/>
      </g>
    </g>
    <g id="Group_500" data-name="Group 500" transform="translate(658.991 441.337)">
      <g id="Group_499" data-name="Group 499">
        <path id="Path_254" data-name="Path 254" class="cls-1" d="M183.517,297.2a7.929,7.929,0,1,0,1.05,5.976A7.867,7.867,0,0,0,183.517,297.2Zm-2.763,5.128a4.018,4.018,0,1,1-.532-3.029A4.02,4.02,0,0,1,180.754,302.327Z" transform="translate(-168.912 -293.527)"/>
      </g>
    </g>
    <g id="Group_502" data-name="Group 502" transform="translate(708.781 480.091)">
      <g id="Group_501" data-name="Group 501">
        <path id="Path_255" data-name="Path 255" class="cls-1" d="M427.169,492.339a1.954,1.954,0,1,0,.572,1.384A1.966,1.966,0,0,0,427.169,492.339Z" transform="translate(-423.836 -491.766)"/>
      </g>
    </g>
    <g id="Group_504" data-name="Group 504" transform="translate(631.915 394.548)">
      <g id="Group_503" data-name="Group 503">
        <path id="Path_256" data-name="Path 256" class="cls-1" d="M124.3,135.466,107.344,72.106a1.958,1.958,0,0,0-.3-.635L95.212,55a1.952,1.952,0,0,0-3.529.946L89.666,76.132a1.96,1.96,0,0,0,.057.7l.064.24a1.952,1.952,0,0,0-3.738,1,12.661,12.661,0,0,1-10.9,14.214,1.96,1.96,0,0,0-.34.078A16.59,16.59,0,0,0,81.263,76.96a1.953,1.953,0,1,0-3.873.509,12.664,12.664,0,0,1-8.327,13.6,16.593,16.593,0,0,0,4.16-16.159,1.953,1.953,0,1,0-3.759,1.061,12.66,12.66,0,0,1-8.631,15.6C53,92.14,45.687,95.69,39.4,102.033q-.812.82-1.549,1.643c.41-.883.862-1.779,1.361-2.675,5.274-9.462,13.03-14.259,23.054-14.259h.09a1.955,1.955,0,0,0,.005-3.909h-.094c-11.384,0-20.535,5.623-26.467,16.264A49.605,49.605,0,0,0,30.3,115.1a1.953,1.953,0,0,0,3.712,1.071A44.916,44.916,0,0,1,42.258,104.7,32.942,32.942,0,0,1,52.325,97.62,17.219,17.219,0,0,0,54.907,122.6a70.773,70.773,0,0,1-10.16-1.536,1.955,1.955,0,0,0-.847,3.816,70.2,70.2,0,0,0,15.211,1.791c9.27,0,17.368-2.258,24.184-6.76a42.184,42.184,0,0,0,13.813-15.5l8.021,29.961a1.953,1.953,0,1,0,3.773-1.012L94.413,79.248a11.628,11.628,0,0,0,10.075-2.7l16.044,59.932a1.953,1.953,0,1,0,3.773-1.012ZM86.64,89.827a16.485,16.485,0,0,0,3.283-12.245L93.65,91.5a63.2,63.2,0,0,1-9.673,1.075A16.683,16.683,0,0,0,86.64,89.827Zm-8.4,21.956a13.278,13.278,0,1,1-1.758-10.009A13.191,13.191,0,0,1,78.236,111.783Zm16.427-16.5.883,3.3c-2.45,5.9-7,13.483-15.192,18.57a17.271,17.271,0,0,0,1.695-4.523,17.087,17.087,0,0,0-2.276-12.956,17.312,17.312,0,0,0-2.609-3.191A75.4,75.4,0,0,0,94.663,95.286ZM93.71,74.947l1.346-13.468,7.893,10.99A7.717,7.717,0,0,1,93.71,74.947Z" transform="translate(-30.288 -54.184)"/>
      </g>
    </g>
  </g>
</svg>
