<svg xmlns="http://www.w3.org/2000/svg" xmlns:xlink="http://www.w3.org/1999/xlink" viewBox="0 0 172 57">
  <defs>
    <style>
      .cls-1 {
        fill: none;
      }

     .cls-2 {
        clip-path: url(#clip-path);
      }

      .cls-3 {
        fill: url(#linear-gradient);
      }

      .cls-4 {
        clip-path: url(#clip-path-2);
      }

      .cls-5 {
        fill: url(#linear-gradient-2);
      }

      .cls-6 {
        fill: #3a444c;
      }
    </style>
    <clipPath id="clip-path">
      <path id="Clip_2" data-name="Clip 2" class="cls-1" d="M32.423.25,0,17.437,4.576,54.8a2.058,2.058,0,0,0,3.864.652h0L35.208,2.873A1.992,1.992,0,0,0,33.4,0h0a2.07,2.07,0,0,0-.975.25"/>
    </clipPath>
    <linearGradient id="linear-gradient" x1="0.461" y1="1.059" x2="0.514" y2="-0.146" gradientUnits="objectBoundingBox">
      <stop offset="0" stop-color="#fb6d00"/>
      <stop offset="1" stop-color="#f61d5e"/>
    </linearGradient>
    <clipPath id="clip-path-2">
      <path id="Clip_5" data-name="Clip 5" class="cls-1" d="M20.949.593,1.063,20.379a3.589,3.589,0,0,0-.522,4.445h0L14.588,47.431a2.027,2.027,0,0,0,3.65-1.7h0l-6.2-18.1a1.907,1.907,0,0,1,.909-2.3h0l13.423-7.216L24.4,1.77A2.016,2.016,0,0,0,22.373,0h0a2,2,0,0,0-1.424.593" transform="translate(0)"/>
    </clipPath>
    <linearGradient id="linear-gradient-2" x1="0.458" y1="1.247" x2="0.531" y2="-0.181" xlink:href="#linear-gradient"/>
  </defs>
  <g id="Logo_" data-name="Logo " transform="translate(-80 -30)">
    <g id="Group" transform="translate(80 30)">
      <g id="Group_2" data-name="Group 2" transform="translate(0)">
        <g id="Group_3" data-name="Group 3" transform="translate(26.371 0.439)">
          <path id="Clip_2-2" data-name="Clip 2" class="cls-1" d="M32.423.25,0,17.437,4.576,54.8a2.058,2.058,0,0,0,3.864.652h0L35.208,2.873A1.992,1.992,0,0,0,33.4,0h0a2.07,2.07,0,0,0-.975.25"/>
          <g id="Group_3-2" data-name="Group 3" class="cls-2">
            <g id="Fill_1" data-name="Fill 1">
              <path id="Fill_1-2" data-name="Fill 1" class="cls-3" d="M32.423.25,0,17.437,4.576,54.8a2.058,2.058,0,0,0,3.864.652h0L35.208,2.873A1.992,1.992,0,0,0,33.4,0h0a2.07,2.07,0,0,0-.975.25"/>
              <path id="Fill_1-3" data-name="Fill 1" class="cls-1" d="M32.423.25,0,17.437,4.576,54.8a2.058,2.058,0,0,0,3.864.652h0L35.208,2.873A1.992,1.992,0,0,0,33.4,0h0a2.07,2.07,0,0,0-.975.25"/>
              <path id="Fill_1-4" data-name="Fill 1" class="cls-1" d="M32.423.25,0,17.437,4.576,54.8a2.058,2.058,0,0,0,3.864.652h0L35.208,2.873A1.992,1.992,0,0,0,33.4,0h0a2.07,2.07,0,0,0-.975.25"/>
            </g>
          </g>
        </g>
        <g id="Group_6" data-name="Group 6">
          <path id="Clip_5-2" data-name="Clip 5" class="cls-1" d="M20.949.593,1.063,20.379a3.589,3.589,0,0,0-.522,4.445h0L14.588,47.431a2.027,2.027,0,0,0,3.65-1.7h0l-6.2-18.1a1.907,1.907,0,0,1,.909-2.3h0l13.423-7.216L24.4,1.77A2.016,2.016,0,0,0,22.373,0h0a2,2,0,0,0-1.424.593" transform="translate(0)"/>
          <g id="Group_6-2" data-name="Group 6" class="cls-4">
            <g id="Fill_4" data-name="Fill 4">
              <path id="Fill_4-2" data-name="Fill 4" class="cls-5" d="M20.949.593,1.063,20.379a3.589,3.589,0,0,0-.522,4.445h0L14.588,47.431a2.027,2.027,0,0,0,3.65-1.7h0l-6.2-18.1a1.907,1.907,0,0,1,.909-2.3h0l13.423-7.216L24.4,1.77A2.016,2.016,0,0,0,22.373,0h0a2,2,0,0,0-1.424.593" transform="translate(0)"/>
              <path id="Fill_4-3" data-name="Fill 4" class="cls-1" d="M20.949.593,1.063,20.379a3.589,3.589,0,0,0-.522,4.445h0L14.588,47.431a2.027,2.027,0,0,0,3.65-1.7h0l-6.2-18.1a1.907,1.907,0,0,1,.909-2.3h0l13.423-7.216L24.4,1.77A2.016,2.016,0,0,0,22.373,0h0a2,2,0,0,0-1.424.593" transform="translate(0)"/>
              <path id="Fill_4-4" data-name="Fill 4" class="cls-1" d="M20.949.593,1.063,20.379a3.589,3.589,0,0,0-.522,4.445h0L14.588,47.431a2.027,2.027,0,0,0,3.65-1.7h0l-6.2-18.1a1.907,1.907,0,0,1,.909-2.3h0l13.423-7.216L24.4,1.77A2.016,2.016,0,0,0,22.373,0h0a2,2,0,0,0-1.424.593" transform="translate(0)"/>
            </g>
          </g>
        </g>
      </g>
      <g id="Group_17" data-name="Group 17" transform="translate(70.28 16.675)">
        <path id="Fill_7" data-name="Fill 7" class="cls-6" d="M22.111,0,12.964,23.214h-3.6L0,0H4.257l6.892,17.762L17.9,0Z"/>
        <path id="Fill_9" data-name="Fill 9" class="cls-6" d="M9.433,18.78a9.442,9.442,0,0,1-6.74-2.687A9.378,9.378,0,0,1,0,9.38,9.349,9.349,0,0,1,2.693,2.672,9.461,9.461,0,0,1,9.433,0a9.192,9.192,0,0,1,6.625,2.665l.436-2.24h2.875V18.335h-3L16,16.157A9.191,9.191,0,0,1,9.433,18.78ZM9.725,3.5A5.959,5.959,0,0,0,5.478,5.186,5.848,5.848,0,0,0,3.791,9.38a5.85,5.85,0,0,0,1.686,4.2,5.958,5.958,0,0,0,4.247,1.681,5.931,5.931,0,0,0,4.236-1.672,5.867,5.867,0,0,0,1.674-4.2,5.866,5.866,0,0,0-1.674-4.2A5.931,5.931,0,0,0,9.725,3.5Z" transform="translate(22.095 4.87)"/>
        <path id="Fill_11" data-name="Fill 11" class="cls-6" d="M9.433,18.78a9.442,9.442,0,0,1-6.74-2.687A9.378,9.378,0,0,1,0,9.38,9.349,9.349,0,0,1,2.693,2.672,9.461,9.461,0,0,1,9.433,0a9.192,9.192,0,0,1,6.625,2.665l.436-2.24h2.875V18.335h-3L16,16.157A9.191,9.191,0,0,1,9.433,18.78ZM9.725,3.5A5.959,5.959,0,0,0,5.478,5.186,5.848,5.848,0,0,0,3.791,9.38a5.85,5.85,0,0,0,1.686,4.2,5.958,5.958,0,0,0,4.247,1.681,5.931,5.931,0,0,0,4.236-1.672,5.867,5.867,0,0,0,1.674-4.2,5.866,5.866,0,0,0-1.674-4.2A5.931,5.931,0,0,0,9.725,3.5Z" transform="translate(45.446 4.87)"/>
        <path id="Fill_13" data-name="Fill 13" class="cls-6" d="M12.426,18.745v3.344H9.657c-3.968,0-6.417-2.421-6.417-6.377V7.334H0V6.622L6.3,0h.633V4.181h5.39V7.334H6.964v8.087c0,2.135,1.2,3.323,3.4,3.323Z" transform="translate(67.843 1.126)"/>
        <path id="Fill_15" data-name="Fill 15" class="cls-6" d="M9.433,18.78a9.442,9.442,0,0,1-6.74-2.687A9.378,9.378,0,0,1,0,9.38,9.349,9.349,0,0,1,2.693,2.672,9.461,9.461,0,0,1,9.433,0a9.192,9.192,0,0,1,6.625,2.665l.436-2.24h2.875V18.335h-3L16,16.157A9.191,9.191,0,0,1,9.433,18.78ZM9.725,3.5A5.959,5.959,0,0,0,5.478,5.186,5.848,5.848,0,0,0,3.791,9.38a5.85,5.85,0,0,0,1.686,4.2,5.958,5.958,0,0,0,4.247,1.681,5.931,5.931,0,0,0,4.236-1.672,5.867,5.867,0,0,0,1.674-4.2,5.866,5.866,0,0,0-1.674-4.2A5.931,5.931,0,0,0,9.725,3.5Z" transform="translate(82.351 4.87)"/>
      </g>
    </g>
  </g>
</svg>
