<svg xmlns="http://www.w3.org/2000/svg" viewBox="0 0 84 100">
  <defs>
    <style>
      .cls-1 {
        fill: #373a8a;
      }
    </style>
  </defs>
  <g id="makeup" transform="translate(-807 -369)">
    <g id="Group_506" data-name="Group 506" transform="translate(826.855 426.16)">
      <g id="Group_505" data-name="Group 505">
        <path id="Path_257" data-name="Path 257" class="cls-1" d="M157.282,293.234a1.985,1.985,0,0,0-2.788,0,5.317,5.317,0,0,1-7.462,0,1.985,1.985,0,0,0-2.788,0,1.941,1.941,0,0,0,0,2.762,9.29,9.29,0,0,0,13.037,0A1.94,1.94,0,0,0,157.282,293.234Z" transform="translate(-143.667 -292.662)"/>
      </g>
    </g>
    <g id="Group_508" data-name="Group 508" transform="translate(856.952 426.16)">
      <g id="Group_507" data-name="Group 507">
        <path id="Path_258" data-name="Path 258" class="cls-1" d="M309.955,293.234a1.985,1.985,0,0,0-2.788,0,5.317,5.317,0,0,1-7.462,0,1.985,1.985,0,0,0-2.788,0,1.941,1.941,0,0,0,0,2.762,9.29,9.29,0,0,0,13.037,0A1.94,1.94,0,0,0,309.955,293.234Z" transform="translate(-296.34 -292.662)"/>
      </g>
    </g>
    <g id="Group_510" data-name="Group 510" transform="translate(807 369)">
      <g id="Group_509" data-name="Group 509" transform="translate(0)">
        <path id="Path_259" data-name="Path 259" class="cls-1" d="M126.937,55.989a8.5,8.5,0,0,0-7.665-8.392V44.531a33.874,33.874,0,0,0-14.434-27.689,20.138,20.138,0,0,0-39.733,0A33.874,33.874,0,0,0,50.67,44.531v3.063a8.5,8.5,0,0,0-7.715,8.4l-.009,4.947a8.356,8.356,0,0,0,2.493,5.985,8.514,8.514,0,0,0,6.037,2.48h.955A44.334,44.334,0,0,0,84.471,99.942a1.99,1.99,0,0,0,.952,0l.033-.008A44.907,44.907,0,0,0,95.8,95.977a1.944,1.944,0,0,0,.8-2.645,1.98,1.98,0,0,0-2.67-.8,40.93,40.93,0,0,1-8.987,3.494A40.276,40.276,0,0,1,54.613,57.076V54.583l.851-.191a98.74,98.74,0,0,0,31.7-13.282A35.319,35.319,0,0,0,115.1,54.758h.227v2.307A40.077,40.077,0,0,1,110.5,76.1a1.944,1.944,0,0,0,.8,2.645,1.981,1.981,0,0,0,2.669-.8,43.81,43.81,0,0,0,3.513-8.543h.925a8.514,8.514,0,0,0,6.037-2.48,8.356,8.356,0,0,0,2.493-5.986ZM51.475,65.5h0a4.579,4.579,0,0,1-3.246-1.334,4.493,4.493,0,0,1-1.34-3.219L46.9,56a4.565,4.565,0,0,1,3.773-4.463v5.542a44.055,44.055,0,0,0,.81,8.42h0Zm33.5-61.59A16.139,16.139,0,0,1,99.99,13.983a34.544,34.544,0,0,0-30.039,0A16.138,16.138,0,0,1,84.971,3.906ZM115.329,50v.852H115.1A31.369,31.369,0,0,1,90.43,38.913q2.047-1.438,4.016-2.978a1.941,1.941,0,0,0,.324-2.744A1.985,1.985,0,0,0,92,32.871,94.588,94.588,0,0,1,54.613,50.577V44.531a30.359,30.359,0,0,1,60.716,0Zm6.334,14.162a4.576,4.576,0,0,1-3.217,1.333,43.766,43.766,0,0,0,.826-8.431V51.542A4.565,4.565,0,0,1,122.994,56L123,60.943A4.492,4.492,0,0,1,121.663,64.162Z" transform="translate(-42.946)"/>
      </g>
    </g>
    <g id="Group_512" data-name="Group 512" transform="translate(860.594 396.973)">
      <g id="Group_511" data-name="Group 511" transform="translate(0)">
        <path id="Path_260" data-name="Path 260" class="cls-1" d="M318.284,143.875a1.984,1.984,0,0,0-2.784-.155l-.027.024a1.941,1.941,0,0,0-.157,2.758,1.984,1.984,0,0,0,2.783.155l.027-.024A1.941,1.941,0,0,0,318.284,143.875Z" transform="translate(-314.816 -143.223)"/>
      </g>
    </g>
    <g id="Group_514" data-name="Group 514" transform="translate(850.349 436.606)">
      <g id="Group_513" data-name="Group 513" transform="translate(0)">
        <path id="Path_261" data-name="Path 261" class="cls-1" d="M296.874,370.179l-10.891-10.79L281.8,348.541a3.768,3.768,0,0,0-4.189-2.335,18.28,18.28,0,0,0-14.693,14.553l-.008.046a3.74,3.74,0,0,0,2.261,4.113l10.746,4.411,8.719,8.638a1.984,1.984,0,0,0,2.788,0,1.941,1.941,0,0,0,0-2.762l-7.6-7.532,4.476-4.435,9.793,9.7a1.985,1.985,0,0,0,2.788,0A1.941,1.941,0,0,0,296.874,370.179Zm-20.308-4.81-9.757-4a14.341,14.341,0,0,1,11.358-11.288l3.828,9.914Z" transform="translate(-262.844 -346.146)"/>
      </g>
    </g>
    <g id="Group_516" data-name="Group 516" transform="translate(886.087 465.093)">
      <g id="Group_515" data-name="Group 515">
        <path id="Path_262" data-name="Path 262" class="cls-1" d="M447.5,492.572a1.986,1.986,0,0,0-2.789,0,1.944,1.944,0,0,0,0,2.762,1.985,1.985,0,0,0,2.789,0,1.939,1.939,0,0,0,0-2.762Z" transform="translate(-444.132 -492)"/>
      </g>
    </g>
  </g>
</svg>
