<svg xmlns="http://www.w3.org/2000/svg" width="21" height="24"><g data-name="Group 877"><path d="M14.914 10.313A.927.927 0 0 0 14 9.374H4.571a.927.927 0 0 0-.915.938c0 .517.41.937.915.937H14c.506 0 .915-.42.915-.938Z" fill="#fb3b71" fill-rule="evenodd" data-name="Path 618"/><path d="M4.571 13.125a.927.927 0 0 0-.915.938c0 .517.41.937.915.937h5.726c.506 0 .916-.42.916-.938a.927.927 0 0 0-.916-.937H4.571Z" fill="#fb3b71" fill-rule="evenodd" data-name="Path 619"/><path d="M6.722 22.125h-3.06c-1.01 0-1.831-.841-1.831-1.875V3.75c0-1.034.82-1.875 1.83-1.875h11.253c1.01 0 1.831.841 1.831 1.875v5.766c0 .517.41.937.915.937.506 0 .916-.42.916-.937V3.75c0-2.068-1.643-3.75-3.662-3.75H3.661C1.642 0 0 1.682 0 3.75v16.5C0 22.318 1.642 24 3.661 24h3.061c.506 0 .916-.42.916-.938a.927.927 0 0 0-.916-.937Z" fill="#fb3b71" fill-rule="evenodd" data-name="Path 620"/><path d="M20.197 13.574a2.703 2.703 0 0 0-3.883-.001l-5.025 5.136a.942.942 0 0 0-.23.39L9.966 22.79a.954.954 0 0 0 .221.927.905.905 0 0 0 .9.249l3.694-1.048a.91.91 0 0 0 .402-.24l5.015-5.127a2.864 2.864 0 0 0 0-3.977Zm-6.138 7.603-1.858.527.544-1.834 3.39-3.465 1.295 1.326-3.37 3.446Zm4.844-4.952-.177.181-1.295-1.326.177-.18a.901.901 0 0 1 1.295 0 .955.955 0 0 1 0 1.325Z" fill="#fb3b71" fill-rule="evenodd" data-name="Path 621"/><path d="M14 5.625H4.57a.927.927 0 0 0-.915.938c0 .517.41.937.915.937H14c.506 0 .915-.42.915-.938A.927.927 0 0 0 14 5.625Z" fill="#fb3b71" fill-rule="evenodd" data-name="Path 622"/></g></svg>