<svg xmlns="http://www.w3.org/2000/svg" viewBox="0 0 24 24">
  <defs>
    <style>
      .cls-1 {
        fill: #373a8a;
      }
    </style>
  </defs>
  <g id="parts" transform="translate(-1180 -1231)">
    <path id="Path_15" data-name="Path 15" class="cls-1" d="M14.44,9.3a7.25,7.25,0,0,0,.27-1.941A7.355,7.355,0,1,0,7.236,14.7,7.351,7.351,0,1,0,14.44,9.3ZM7.355,13.935a6.581,6.581,0,1,1,6.581-6.581,6.521,6.521,0,0,1-.315,1.971,7.384,7.384,0,0,0-.861.136,5.8,5.8,0,1,0-9.787,1.7l.584-.507A5.031,5.031,0,0,1,2.34,7.742H3.871V6.968H2.342a5,5,0,0,1,.126-.793l1.454.472.239-.736L2.7,5.437a5.066,5.066,0,0,1,.369-.714l1.235.9.455-.626L3.527,4.1A5.107,5.107,0,0,1,4.1,3.528l.9,1.237.626-.455-.9-1.235A4.968,4.968,0,0,1,5.436,2.7l.473,1.457.736-.239L6.174,2.469a4.985,4.985,0,0,1,.793-.126V3.871h.774V2.342a5,5,0,0,1,.793.126L8.063,3.922l.736.239L9.272,2.7a5.066,5.066,0,0,1,.714.369l-.9,1.235.626.455.9-1.237a5.089,5.089,0,0,1,.568.568l-1.236.9.455.626,1.235-.9A4.948,4.948,0,0,1,12,5.436l-1.457.473.239.736,1.454-.472a5.006,5.006,0,0,1,.126.793H10.839v.774H12.37a5.024,5.024,0,0,1-.6,2.015,7.374,7.374,0,0,0-3.336,2.5,4.967,4.967,0,0,1-1.078.129A5.031,5.031,0,0,1,4.06,11.153l-.507.584a5.8,5.8,0,0,0,3.8,1.424c.168,0,.339-.016.51-.032a7.357,7.357,0,0,0-.371.8C7.448,13.932,7.4,13.935,7.355,13.935Zm6.968,9.29A6.581,6.581,0,1,1,20.9,16.645,6.588,6.588,0,0,1,14.323,23.226Zm0,0" transform="translate(1180 1231)"/>
    <path id="Path_16" data-name="Path 16" class="cls-1" d="M181.806,224A5.813,5.813,0,0,0,176,229.806v.387h3.1v-.387a2.7,2.7,0,0,1,4.52-2.01l-1.832,5.5a1.171,1.171,0,1,0,.733.249l1.673-5.019a2.693,2.693,0,0,1,.325,1.285v.387h3.1v-.387A5.813,5.813,0,0,0,181.806,224Zm0,10.839a.387.387,0,1,1,.387-.387A.387.387,0,0,1,181.806,234.839Zm3.462-5.419a3.466,3.466,0,0,0-.771-1.818l.386-1.156-.734-.245-.27.809a3.481,3.481,0,0,0-5.535,2.41h-1.555a5.032,5.032,0,0,1,10.035,0Zm0,0" transform="translate(1012.516 1017.839)"/>
    <path id="Path_17" data-name="Path 17" class="cls-1" d="M371.1,32H368v2.323h3.1Zm-.774,1.548h-1.548v-.774h1.548Zm0,0" transform="translate(829.806 1200.548)"/>
    <path id="Path_18" data-name="Path 18" class="cls-1" d="M328.176,2.6l-1.208-1.208V1.161A1.163,1.163,0,0,0,325.806,0h-3.871a1.163,1.163,0,0,0-1.161,1.161v5.1A1.16,1.16,0,0,0,320,7.355V8.516h7.742V7.355a1.16,1.16,0,0,0-.774-1.09V5.806h.387a1.163,1.163,0,0,0,1.161-1.161V3.417A1.153,1.153,0,0,0,328.176,2.6ZM321.935.774h3.871a.387.387,0,0,1,.387.387V6.194h-4.645V1.161A.387.387,0,0,1,321.935.774Zm5.032,6.968h-6.194V7.355a.387.387,0,0,1,.387-.387h5.419a.387.387,0,0,1,.387.387Zm.774-3.1a.387.387,0,0,1-.387.387h-.387V2.483l.661.661a.389.389,0,0,1,.113.274Zm0,0" transform="translate(875.484 1231)"/>
    <path id="Path_19" data-name="Path 19" class="cls-1" d="M129.161,118.194a1.158,1.158,0,0,0,.387-2.251V112h-.774v3.942a1.158,1.158,0,0,0,.387,2.251Zm0-1.548a.387.387,0,1,1-.387.387A.387.387,0,0,1,129.161,116.645Zm0,0" transform="translate(1058.194 1124.419)"/>
  </g>
</svg>
