<svg xmlns="http://www.w3.org/2000/svg" viewBox="0 0 91 100">
  <defs>
    <style>
      .cls-1 {
        fill: #6dc82a;
      }

      .cls-2 {
        fill: #5eac24;
      }

      .cls-3 {
        fill: #4e901e;
      }

      .cls-4 {
        fill: #91dc5a;
      }

      .cls-5 {
        fill: #cc7400;
      }

      .cls-6 {
        fill: #aa6100;
      }
    </style>
  </defs>
  <g id="plant" transform="translate(-562 -311)">
    <path id="Path_196" data-name="Path 196" class="cls-1" d="M112.088,41.275a3.664,3.664,0,0,1-2.9,1.148,49.352,49.352,0,0,1-18.507-5.616c-8.663-4.7-19.117-14.232-19.724-32.969A3.71,3.71,0,0,1,72.031,1.1,3.881,3.881,0,0,1,74.961,0h0A40.012,40.012,0,0,1,93.885,5.743a37.372,37.372,0,0,1,12.067,11.645A48.065,48.065,0,0,1,113.07,38.3,3.713,3.713,0,0,1,112.088,41.275Z" transform="translate(500.634 311)"/>
    <path id="Path_197" data-name="Path 197" class="cls-2" d="M223.035,89.963a42.924,42.924,0,0,0-3.772,9.714,90.846,90.846,0,0,0-3.175,13.073,46.456,46.456,0,0,0,10.069,2.065,3.662,3.662,0,0,0,2.9-1.148,3.712,3.712,0,0,0,.981-2.976A48.183,48.183,0,0,0,223.035,89.963Z" transform="translate(383.666 238.608)"/>
    <path id="Path_198" data-name="Path 198" class="cls-3" d="M130.569,55l-7.915-7.769-2.087-10.468a1.522,1.522,0,1,0-2.985.6l1.212,6.077-4.365-4.284-2.116-10.612a1.522,1.522,0,1,0-2.985.6l1.24,6.221-10.187-10a1.515,1.515,0,0,0-2.152.027,1.539,1.539,0,0,0,.027,2.166l11.2,10.993-7.814-.134a1.532,1.532,0,0,0-.052,3.063l11.043.19,5.2,5.1-7.933-.136a1.532,1.532,0,0,0-.052,3.063l11.163.192,7.435,7.3a1.515,1.515,0,0,0,2.152-.028A1.538,1.538,0,0,0,130.569,55Z" transform="translate(479.001 290.931)"/>
    <path id="Path_199" data-name="Path 199" class="cls-4" d="M282.6,1.155A3.664,3.664,0,0,0,279.7.008a49.352,49.352,0,0,0-18.507,5.616,36.124,36.124,0,0,0-18.428,23.4c-1.723,5.108-5.52,18.961-4.632,39.818a3.347,3.347,0,0,0,3.332,3.215q.072,0,.145,0a3.351,3.351,0,0,0,3.191-3.5A122.161,122.161,0,0,1,246.364,42.4,40.813,40.813,0,0,0,264.4,36.688a37.372,37.372,0,0,0,12.067-11.645A48.065,48.065,0,0,0,283.58,4.132,3.713,3.713,0,0,0,282.6,1.155Z" transform="translate(366.007 311)"/>
    <path id="Path_200" data-name="Path 200" class="cls-2" d="M306.913,25.4a1.515,1.515,0,0,0-2.152-.027l-10.186,10,1.24-6.221a1.522,1.522,0,1,0-2.985-.6L290.715,39.16l-4.365,4.284,1.212-6.077a1.522,1.522,0,1,0-2.985-.6l-2.087,10.469L274.574,55a1.539,1.539,0,0,0-.027,2.166,1.515,1.515,0,0,0,2.152.027l7.435-7.3,11.163-.192a1.532,1.532,0,0,0-.025-3.063h-.027l-7.933.136,5.2-5.1,11.043-.19a1.532,1.532,0,0,0-.025-3.063H303.5l-7.814.134,11.2-10.993A1.538,1.538,0,0,0,306.913,25.4Z" transform="translate(336.9 290.931)"/>
    <path id="Path_201" data-name="Path 201" class="cls-5" d="M104.528,326.168a7.933,7.933,0,0,0-4.187,1.189,14.351,14.351,0,0,0-15.868-10.08,18.976,18.976,0,0,0-34.871,0,14.351,14.351,0,0,0-15.868,10.08,7.932,7.932,0,0,0-4.187-1.189,8.062,8.062,0,1,0,5.966,13.439A14.317,14.317,0,0,0,57.8,341.674a18.915,18.915,0,0,0,18.475,0,14.317,14.317,0,0,0,22.287-2.067,8.033,8.033,0,1,0,5.966-13.439Z" transform="translate(540.462 64.934)"/>
    <g id="Group_290" data-name="Group 290" transform="translate(562 370.724)">
      <path id="Path_202" data-name="Path 202" class="cls-6" d="M77.494,313.627a18.906,18.906,0,0,1,5.442.8,18.965,18.965,0,0,0-33.334,2.85,14.351,14.351,0,0,0-15.868,10.08,7.932,7.932,0,0,0-4.187-1.189,8.062,8.062,0,1,0,5.966,13.439A14.317,14.317,0,0,0,57.8,341.672a18.888,18.888,0,0,0,3.8,1.612,19.168,19.168,0,0,1,15.9-29.658Z" transform="translate(-21.537 -305.789)"/>
      <ellipse id="Ellipse_84" data-name="Ellipse 84" class="cls-6" cx="3.449" cy="3.471" rx="3.449" ry="3.471" transform="translate(49.616 19.034)"/>
      <ellipse id="Ellipse_85" data-name="Ellipse 85" class="cls-6" cx="3.449" cy="3.471" rx="3.449" ry="3.471" transform="translate(63.521 27.208)"/>
      <ellipse id="Ellipse_86" data-name="Ellipse 86" class="cls-6" cx="1.327" cy="1.336" rx="1.327" ry="1.336" transform="translate(63.522 17.466)"/>
      <ellipse id="Ellipse_87" data-name="Ellipse 87" class="cls-6" cx="1.327" cy="1.336" rx="1.327" ry="1.336" transform="translate(44.173 30.679)"/>
      <ellipse id="Ellipse_88" data-name="Ellipse 88" class="cls-6" cx="1.327" cy="1.336" rx="1.327" ry="1.336" transform="translate(48.288 12.475)"/>
      <ellipse id="Ellipse_89" data-name="Ellipse 89" class="cls-6" cx="1.327" cy="1.336" rx="1.327" ry="1.336" transform="translate(76.842 24.641)"/>
    </g>
    <g id="Group_291" data-name="Group 291" transform="translate(628.971 369.485)">
      <ellipse id="Ellipse_90" data-name="Ellipse 90" class="cls-5" cx="3.449" cy="3.471" rx="3.449" ry="3.471"/>
      <ellipse id="Ellipse_91" data-name="Ellipse 91" class="cls-5" cx="1.327" cy="1.336" rx="1.327" ry="1.336" transform="translate(9.872 9.896)"/>
      <ellipse id="Ellipse_92" data-name="Ellipse 92" class="cls-5" cx="1.327" cy="1.336" rx="1.327" ry="1.336" transform="translate(9.872 3.471)"/>
    </g>
    <g id="Group_292" data-name="Group 292" transform="translate(572.604 368.26)">
      <ellipse id="Ellipse_93" data-name="Ellipse 93" class="cls-6" cx="3.449" cy="3.471" rx="3.449" ry="3.471" transform="translate(3.605)"/>
      <ellipse id="Ellipse_94" data-name="Ellipse 94" class="cls-6" cx="1.327" cy="1.336" rx="1.327" ry="1.336" transform="translate(0 9.786)"/>
    </g>
  </g>
</svg>
