<svg xmlns="http://www.w3.org/2000/svg" viewBox="0 0 100 100">
  <defs>
    <style>
      .cls-1 {
        opacity: 0.896;
      }

      .cls-2 {
        fill: #4b407b;
      }
    </style>
  </defs>
  <g id="puzzle" transform="translate(-1467 -369)">
    <g id="puzzle-2" data-name="puzzle" class="cls-1" transform="translate(1467 369)">
      <g id="Group_6" data-name="Group 6" transform="translate(0)">
        <path id="Path_37" data-name="Path 37" class="cls-2" d="M91.211,0H50a2.93,2.93,0,0,0-2.93,2.93V15.215a11.719,11.719,0,1,0,0,22.7v9.16H33.108a2.93,2.93,0,0,0-2.182,4.885,5.859,5.859,0,1,1-8.728,0,2.93,2.93,0,0,0-2.182-4.885H2.93A2.93,2.93,0,0,0,0,50V91.211A8.8,8.8,0,0,0,8.789,100H91.211A8.8,8.8,0,0,0,100,91.211V8.789A8.8,8.8,0,0,0,91.211,0ZM47.07,79.97h0V94.141H8.789a2.933,2.933,0,0,1-2.93-2.93V52.91h9.356a11.859,11.859,0,0,0-.372,2.949,11.719,11.719,0,1,0,23.066-2.93H47.07V66.892h0a2.933,2.933,0,0,0,4.885,2.182,5.859,5.859,0,1,1,.007,8.734A2.932,2.932,0,0,0,47.07,79.97Zm47.07,11.241a2.933,2.933,0,0,1-2.93,2.93H52.93V84.784a11.719,11.719,0,1,0,0-22.693V52.93H66.892a2.93,2.93,0,0,0,2.182-4.885,5.859,5.859,0,1,1,8.728,0,2.93,2.93,0,0,0,2.182,4.885H94.141Zm0-44.141H84.784a11.719,11.719,0,1,0-22.694,0H52.93V33.114a2.932,2.932,0,0,0-4.884-2.183,5.859,5.859,0,1,1,0-8.736,2.932,2.932,0,0,0,4.884-2.183V5.859H91.211a2.933,2.933,0,0,1,2.93,2.93Z" transform="translate(0)"/>
      </g>
    </g>
  </g>
</svg>
