<svg xmlns="http://www.w3.org/2000/svg" viewBox="0 0 100 80">
  <defs>
    <style>
      .cls-1 {
        fill: #57b14b;
      }
    </style>
  </defs>
  <g id="rent-a-car-service" transform="translate(-1244 -378.999)">
    <path id="rent-a-car-service-2" data-name="rent-a-car-service" class="cls-1" d="M20.43,84.877c-10.108,0-18.33-8.641-18.33-19.262A19.259,19.259,0,0,1,14.284,47.465a2.662,2.662,0,0,1-.022-.342,2.472,2.472,0,0,1,2.408-2.531h7.518A2.472,2.472,0,0,1,26.6,47.124a2.685,2.685,0,0,1-.021.333A17.719,17.719,0,0,1,29.72,49l2.266-3.049a2.332,2.332,0,0,1,3.381-.437,2.618,2.618,0,0,1,.416,3.552l-13.455,18.1a2.331,2.331,0,0,1-3.381.437,2.618,2.618,0,0,1-.416-3.552L26.721,53.04a12.884,12.884,0,0,0-6.291-1.626c-7.451,0-13.513,6.37-13.513,14.2s6.062,14.2,13.513,14.2,13.514-6.37,13.514-14.2a14.947,14.947,0,0,0-.5-3.86,2.55,2.55,0,0,1,1.667-3.121,2.394,2.394,0,0,1,2.97,1.752,20.262,20.262,0,0,1,.683,5.229C38.761,76.236,30.537,84.877,20.43,84.877Zm-5.757,19.389H9.188a2.534,2.534,0,0,0,0,5.062h5.485a2.534,2.534,0,0,0,0-5.062Zm5.761-32.731h-.009a2.416,2.416,0,1,0,.009,0ZM14.673,95.175H2.408a2.534,2.534,0,0,0,0,5.062H14.673a2.534,2.534,0,0,0,0-5.062Zm52.481,17.479a2.472,2.472,0,0,1-2.408,2.531H50.839a11.528,11.528,0,0,1-11.1,9.408,11.554,11.554,0,0,1-11.183-9.822,7.373,7.373,0,0,1-4.377-3.8,6.626,6.626,0,0,1-.646-2.856V91.237a2.411,2.411,0,1,1,4.817,0v16.876a1.4,1.4,0,0,0,.142.6,1.973,1.973,0,0,0,.362.513,11.472,11.472,0,0,1,10.885-8.512,11.529,11.529,0,0,1,11.1,9.408H64.746A2.472,2.472,0,0,1,67.154,112.654Zm-20.874,0a6.551,6.551,0,1,0-13.089-.075c0,.043,0,.087,0,.131a6.551,6.551,0,1,0,13.089-.056Zm-10.636-20.9a2.472,2.472,0,0,0,2.408,2.531h2.71a2.534,2.534,0,0,0,0-5.062h-2.71A2.472,2.472,0,0,0,35.644,91.754ZM83.8,110.124h-.006a2.415,2.415,0,1,0,.006,0Zm16.191-7.273-.007,1.709c0,1.011-.01,2.16-.01,3.553a7.142,7.142,0,0,1-4.991,6.643,11.556,11.556,0,0,1-11.187,9.837c-6.264,0-11.361-5.356-11.361-11.939s5.1-11.939,11.361-11.939a11.471,11.471,0,0,1,10.88,8.49,1.617,1.617,0,0,0,.481-1.093c0-1.4.005-2.559.01-3.577l.007-1.71c.009-2.061.022-4.884-.007-6.2-.02-.925-.044-1.684-.106-2.34H58.007c-.864,0-2.889,0-9.083-6.433-1.887-1.96-5.639-6.131-6.329-7.888a2.577,2.577,0,0,1,1.308-3.3,2.364,2.364,0,0,1,3.121,1.315,46.107,46.107,0,0,0,5.124,6.109c3.575,3.737,5.475,4.947,5.993,5.139H92.353c-.775-.781-1.769-1.706-3.046-2.895-.663-.617-1.391-1.295-2.19-2.048-.581-.548-1.16-1.13-1.72-1.691-.82-.824-1.669-1.676-2.553-2.454q-1.167-1.028-2.216-1.957c-8.938-7.908-11.34-10.034-18.878-10.034H45.123a2.534,2.534,0,0,1,0-5.062H61.751c9.295,0,13.009,3.286,21.98,11.223q1.046.926,2.206,1.949c1,.884,1.911,1.794,2.787,2.675.558.56,1.085,1.089,1.61,1.584.79.745,1.51,1.416,2.166,2.026,5.774,5.375,7.326,6.82,7.48,13.97C100.011,97.9,100,100.643,99.989,102.851Zm-9.649,9.778a6.9,6.9,0,1,0,0,.031Zm-50.6-2.5h-.006a2.415,2.415,0,1,0,.006,0Z" transform="translate(1244 334.406)"/>
  </g>
</svg>
