<svg xmlns="http://www.w3.org/2000/svg" viewBox="0 0 100 100">
  <defs>
    <style>
      .cls-1 {
        fill: #b246ce;
      }
    </style>
  </defs>
  <g id="salon" transform="translate(-130 -369)">
    <g id="Group_464" data-name="Group 464" transform="translate(130 369)">
      <g id="Group_463" data-name="Group 463">
        <path id="Path_245" data-name="Path 245" class="cls-1" d="M98.695,1.3l-.015-.013A4.478,4.478,0,0,0,95.549,0h-.006a4.444,4.444,0,0,0-2.771.972C82.138,9.467,71.464,18.234,61.046,27.031q-3.8,3.208-7.6,6.462L24.523,4.572a7.333,7.333,0,0,0-10.358,0L.429,18.308A1.465,1.465,0,0,0,2.5,20.38l9.593-9.593,2.1,2.1L4.6,22.476a1.465,1.465,0,0,0,2.071,2.072l9.593-9.593,2.1,2.1L8.765,26.644a1.465,1.465,0,0,0,2.071,2.072l9.593-9.593,2.1,2.1-9.593,9.593A1.465,1.465,0,0,0,15,32.883L24.6,23.291l2.1,2.1L17.1,34.98a1.465,1.465,0,0,0,2.071,2.072l9.593-9.593,2.1,2.1-9.593,9.593a1.465,1.465,0,0,0,2.071,2.072l9.593-9.593,2.1,2.1-9.593,9.593a1.465,1.465,0,0,0,2.071,2.072L37.1,35.795l2.1,2.1L29.6,47.484a1.465,1.465,0,0,0,2.071,2.072l9.593-9.593,2.17,2.17q-6.747,5.875-13.4,11.8s0,0,0,0c-1.314,1.169-2.748,2.515-4.162,3.791a1.474,1.474,0,0,0-.271,2.158,0,0,0,0,0,0,0,9.788,9.788,0,0,1-.666,13.08l-4.418,4.418a10.244,10.244,0,1,1,.633-13.6,1.468,1.468,0,0,0,2.121.164.194.194,0,0,0,.021-.02l.014-.012a1.465,1.465,0,0,0-.129-2.277,13.162,13.162,0,0,0-10-4.586h-.02a13.177,13.177,0,1,0,4.039,25.722A13.182,13.182,0,0,0,29.748,100h.016a13.178,13.178,0,0,0,9.422-22.391l2.991-3.4Q50.092,65.4,57.83,56.524l2.207,2.207-9.593,9.593A1.465,1.465,0,0,0,52.517,70.4L62.109,60.8l2.1,2.1-9.593,9.593a1.465,1.465,0,0,0,2.072,2.072l9.593-9.593,2.1,2.1-9.593,9.593a1.465,1.465,0,0,0,2.072,2.072l9.593-9.593,2.1,2.1-9.593,9.593A1.465,1.465,0,0,0,65.021,82.9l9.593-9.593,2.1,2.1-9.593,9.593a1.465,1.465,0,0,0,2.072,2.072l9.593-9.593,2.1,2.1-9.593,9.593a1.465,1.465,0,0,0,2.072,2.072l9.593-9.593,2.1,2.1L75.453,93.33A1.465,1.465,0,0,0,77.525,95.4l9.593-9.593,2.1,2.1L79.621,97.5a1.465,1.465,0,0,0,2.072,2.072L92.32,88.943h0v0l3.106-3.106a7.324,7.324,0,0,0,0-10.358L66.475,46.524c11.231-13.1,22.119-26.244,32.551-39.3A4.444,4.444,0,0,0,98.695,1.3ZM14.165,8.715l2.071-2.071a4.4,4.4,0,0,1,6.215,0L51.215,35.407q-2.783,2.391-5.56,4.8ZM93.356,77.549a4.394,4.394,0,0,1,0,6.214l-2.071,2.071L59.758,54.309q2.411-2.775,4.8-5.554ZM40.812,71.341a5.6,5.6,0,0,1-2.918-4.157,1.465,1.465,0,0,0-2.91.344h0a7.985,7.985,0,0,0,3.557,5.791c.1.069.207.139.314.217-1.016,1.159-1.855,2.135-2.816,3.2a1.467,1.467,0,0,0,.164,2.121,10.25,10.25,0,1,1-16.7,7.971,10.472,10.472,0,0,1,3.164-7.437l4.346-4.346a12.72,12.72,0,0,0,3.715-9.012,12.524,12.524,0,0,0-2.041-6.892c1.147-1.049,2.144-1.979,3.3-3.012L32,56.117C63.757,27.8,94.227,3.455,94.8,3.127c-.393.393-57.546,57.521-57.81,57.818a1.465,1.465,0,0,0,2.191,1.945c.175-.2,57.271-57.275,57.69-57.693C96.751,5.408,73.161,35.289,40.812,71.341Z" transform="translate(0)"/>
      </g>
    </g>
    <g id="Group_466" data-name="Group 466" transform="translate(135.861 431.903)">
      <g id="Group_465" data-name="Group 465">
        <path id="Path_246" data-name="Path 246" class="cls-1" d="M42.51,324.214a7.319,7.319,0,1,0,0,10.356A7.335,7.335,0,0,0,42.51,324.214ZM40.439,332.5a4.393,4.393,0,1,1-3.107-7.5A4.4,4.4,0,0,1,40.439,332.5Z" transform="translate(-30.006 -322.063)"/>
      </g>
    </g>
    <g id="Group_468" data-name="Group 468" transform="translate(152.425 448.502)">
      <g id="Group_467" data-name="Group 467">
        <path id="Path_247" data-name="Path 247" class="cls-1" d="M122.151,407.051a7.328,7.328,0,0,0-.06,14.656,7.443,7.443,0,0,0,2.852-.577,7.21,7.21,0,0,0,4.532-6.757A7.332,7.332,0,0,0,122.151,407.051Zm1.67,11.373a4.386,4.386,0,1,1-1.671-8.443,4.4,4.4,0,0,1,4.394,4.393A4.335,4.335,0,0,1,123.821,418.424Z" transform="translate(-114.818 -407.051)"/>
      </g>
    </g>
  </g>
</svg>
