<svg xmlns="http://www.w3.org/2000/svg" xmlns:xlink="http://www.w3.org/1999/xlink" viewBox="0 0 25 25">
  <defs>
    <style>
      .cls-1 {
        fill: #637381;
      }

      .cls-2 {
        fill: rgba(0,0,0,0);
      }

      .cls-3 {
        fill: #121212;
      }

      .cls-4 {
        clip-path: url(#clip-path);
      }
    </style>
    <clipPath id="clip-path">
      <path id="icon_action_search_24px" data-name="icon/action/search_24px" class="cls-1" d="M14.6,15.958h0l-4.562-4.552v-.721l-.246-.255a5.939,5.939,0,1,1,.639-.639l.255.246h.721L15.958,14.6,14.6,15.957ZM5.931,1.825a4.106,4.106,0,1,0,4.106,4.106A4.111,4.111,0,0,0,5.931,1.825Z" transform="translate(0 0)"/>
    </clipPath>
  </defs>
  <g id="search" transform="translate(-61 -333)">
    <rect id="icon_navigation_menu_24px_copy_4_background" data-name="icon/navigation/menu_24px copy 4 background" class="cls-2" width="25" height="25" transform="translate(61 333)"/>
    <path id="icon_action_search_24px-2" data-name="icon/action/search_24px" class="cls-3" d="M15.551,17h0L10.692,12.15v-.768l-.263-.273a6.327,6.327,0,1,1,.68-.68l.273.262h.768L17,15.551,15.552,17ZM6.318,1.944a4.374,4.374,0,1,0,4.374,4.373A4.378,4.378,0,0,0,6.318,1.944Z" transform="translate(65.521 337.521)"/>
  </g>
</svg>
