<?xml version="1.0" standalone="no"?>
<!DOCTYPE svg PUBLIC "-//W3C//DTD SVG 20010904//EN"
 "http://www.w3.org/TR/2001/REC-SVG-20010904/DTD/svg10.dtd">
<svg version="1.0" xmlns="http://www.w3.org/2000/svg"
 width="752.000000pt" height="372.000000pt" viewBox="0 0 752.000000 372.000000"
 preserveAspectRatio="xMidYMid meet">

<g transform="translate(0.000000,372.000000) scale(0.100000,-0.100000)"
fill="#000000" stroke="none">
<path d="M3951 3685 c-22 -21 -32 -69 -40 -187 -1 -5 -11 -8 -23 -8 -20 -1
-16 -7 28 -48 68 -64 139 -152 171 -215 29 -58 72 -169 80 -207 3 -14 10 -31
16 -37 6 -9 6 -13 -1 -13 -6 0 -20 19 -30 43 -17 37 -62 91 -62 73 0 -13 25
-51 43 -64 21 -16 22 -42 1 -42 -8 0 -12 -5 -9 -10 5 -8 11 -8 20 0 9 8 14 6
19 -6 3 -9 13 -14 21 -10 8 3 14 2 14 -2 -3 -21 15 -53 27 -48 8 3 30 -12 51
-34 33 -37 71 -58 43 -25 -16 19 -3 40 16 24 8 -6 14 -8 14 -3 0 5 101 8 224
7 244 -3 374 -21 462 -65 39 -19 44 -26 44 -55 0 -18 -4 -33 -10 -33 -5 0 -10
-8 -10 -17 -1 -22 -20 -47 -42 -56 -10 -3 -18 -13 -18 -22 0 -9 -9 -15 -25
-15 -17 0 -23 -4 -19 -15 19 -49 252 -34 358 23 27 15 84 59 126 97 41 39 114
103 163 143 48 40 85 77 82 82 -3 5 0 12 6 16 8 4 9 3 5 -4 -5 -8 0 -12 13
-12 12 0 21 4 21 9 0 15 86 -18 105 -39 12 -13 19 -43 22 -92 3 -47 10 -76 20
-83 16 -12 8 -45 -10 -41 -7 1 -9 1 -4 -1 4 -3 7 -15 7 -28 0 -23 -17 -35 -59
-41 -35 -4 -38 -14 -4 -14 27 0 30 -3 26 -25 -4 -20 0 -25 21 -31 19 -4 25
-11 21 -23 -3 -9 1 -26 9 -37 12 -15 17 -17 27 -6 9 8 9 12 2 12 -8 0 -10 12
-6 36 6 36 6 37 -22 30 -23 -6 -26 -4 -21 9 3 9 6 26 6 37 0 15 4 18 18 13 9
-4 23 -8 30 -8 9 0 9 -4 2 -11 -17 -17 -11 -36 15 -46 29 -11 31 -22 10 -44
-9 -8 -20 -29 -26 -45 -7 -20 -15 -28 -25 -24 -8 3 -13 10 -11 17 6 17 -28 47
-46 40 -12 -4 -14 -1 -10 15 7 29 -4 58 -19 43 -6 -6 -17 -8 -24 -5 -8 3 -14
0 -14 -6 0 -6 7 -11 16 -11 23 0 11 -24 -14 -28 -31 -5 -45 -65 -46 -197 0
-112 15 -202 42 -243 17 -27 9 -40 -14 -22 -13 12 -17 11 -25 -1 -5 -8 -8 -21
-8 -29 0 -11 2 -11 7 2 5 12 11 15 21 9 8 -5 21 -7 29 -3 10 3 13 1 8 -6 -9
-16 -66 -45 -66 -35 0 5 -4 3 -8 -3 -4 -5 -52 -34 -107 -63 -232 -124 -421
-266 -627 -472 l-138 -138 43 -5 c143 -19 384 -31 612 -30 141 0 185 4 259 22
101 25 211 75 238 106 16 19 17 19 11 2 -5 -16 -2 -18 18 -14 13 3 31 9 41 12
12 6 24 -4 46 -37 37 -54 96 -99 127 -99 21 0 23 -4 18 -28 -3 -15 -1 -30 4
-33 6 -4 10 7 11 23 0 17 4 40 7 53 6 18 5 20 -6 10 -27 -27 -42 -4 -15 23 16
15 36 19 36 6 0 -15 35 -9 47 7 6 9 15 13 18 9 4 -4 16 -3 26 2 11 7 27 6 44
0 14 -5 24 -6 21 -1 -5 8 73 23 134 26 14 0 36 7 50 15 14 8 43 17 65 21 39 6
38 7 -15 8 -30 0 -62 -3 -70 -8 -8 -6 -18 -7 -23 -4 -5 3 -3 9 4 14 11 7 11 9
-2 9 -9 0 -20 -7 -23 -16 -4 -11 -14 -14 -33 -10 -62 13 -114 16 -108 6 4 -7
-2 -7 -19 0 -20 7 -24 6 -20 -5 5 -12 0 -12 -28 -5 -44 13 -48 13 -48 -5 0
-18 -41 -20 -57 -4 -9 9 -19 9 -42 -1 -36 -15 -61 -8 -61 17 0 15 2 16 10 3 5
-8 12 -11 15 -8 15 15 -8 26 -45 23 -22 -2 -40 0 -40 6 0 5 -10 8 -22 6 -19
-2 -23 3 -22 24 1 21 -3 25 -18 21 -16 -4 -18 2 -18 62 0 37 4 66 10 66 6 0
10 8 10 19 0 19 23 45 32 36 3 -3 3 7 -1 22 -5 25 -6 26 -9 6 -5 -33 -22 -28
-22 6 0 16 -6 31 -12 34 -20 7 -3 19 39 28 21 4 59 13 86 19 46 11 50 10 97
-20 28 -18 50 -36 50 -41 0 -5 3 -8 8 -7 4 1 18 -5 32 -13 59 -37 128 -77 175
-100 44 -21 63 -24 165 -24 79 1 126 5 149 16 l34 15 3 91 c1 51 6 98 10 105
13 20 14 321 2 335 -7 9 -6 15 6 19 9 3 16 17 16 30 0 31 -45 39 -129 24 -57
-10 -64 -9 -79 7 -9 11 -25 17 -34 15 -10 -2 -18 1 -18 7 0 6 -4 11 -9 11 -4
0 -6 -12 -3 -27 4 -24 3 -26 -9 -16 -12 10 -27 9 -73 -3 -32 -8 -63 -13 -69
-10 -7 2 -5 5 4 5 9 1 20 8 23 17 9 23 -2 31 -17 12 -10 -14 -29 -16 -69 -9
-5 0 -8 13 -8 29 l-1 27 -15 -28 c-20 -37 -39 -29 -39 15 0 20 -4 40 -9 45 -5
5 -7 1 -3 -10 7 -20 -12 -57 -29 -57 -6 0 -18 7 -25 16 -12 15 -11 16 8 10 12
-4 24 -2 28 4 3 5 -1 10 -9 10 -10 0 -16 9 -16 25 0 14 -5 25 -10 25 -6 0 -22
12 -35 26 -18 19 -25 22 -25 12 0 -14 -28 -34 -36 -26 -10 11 -14 58 -5 58 6
0 11 14 11 30 0 17 -4 30 -10 30 -5 0 -10 -13 -10 -30 0 -16 -5 -30 -11 -30
-20 0 -5 -55 19 -65 12 -5 22 -19 22 -29 0 -18 -3 -17 -28 7 -15 15 -35 27
-44 27 -9 0 -18 10 -22 23 -9 35 -7 38 14 27 19 -10 28 -1 13 14 -5 4 -9 12
-9 17 -1 5 -2 14 -3 19 0 6 -6 10 -12 10 -5 0 -7 -5 -4 -10 8 -12 -21 -60 -35
-60 -5 0 -9 8 -8 18 1 9 0 28 0 41 -2 20 -4 21 -17 11 -8 -7 -15 -9 -16 -4 0
5 -1 24 -2 43 -1 19 -8 36 -16 39 -8 3 -11 0 -7 -6 4 -6 -2 -8 -15 -5 -12 4
-17 9 -11 15 11 11 3 58 -9 58 -5 0 -9 -5 -9 -11 0 -5 -4 -8 -9 -4 -5 3 -7 20
-4 39 5 33 -12 60 -26 38 -4 -7 -13 -5 -26 5 -16 13 -17 15 -2 10 18 -7 24 8
7 18 -19 12 -10 24 18 22 20 -2 28 -8 32 -26 3 -13 11 -26 18 -29 7 -2 10 2 7
11 -7 17 20 41 35 32 5 -3 10 -13 10 -21 0 -8 -4 -13 -9 -10 -5 3 -11 -13 -15
-36 -5 -29 -3 -44 6 -50 20 -12 32 -10 21 5 -5 6 -9 26 -8 42 2 25 6 30 24 28
12 -2 31 2 41 7 13 7 21 7 25 0 3 -5 14 -10 23 -10 15 1 15 2 -1 11 -9 6 -14
15 -11 21 4 6 0 16 -9 23 -14 10 -7 13 43 18 72 8 125 33 205 99 33 27 70 56
82 66 12 9 22 23 23 30 0 7 7 26 15 42 8 16 20 78 26 137 6 60 17 137 24 172
15 72 12 89 -19 101 -18 6 -21 16 -21 66 0 33 -2 110 -3 172 l-2 112 -1252 -1
-1253 0 -24 -24z m1609 -784 c0 -13 -48 -19 -59 -8 -8 8 -11 5 -11 -8 0 -10
-3 -16 -6 -12 -4 3 -4 13 -1 22 7 16 77 22 77 6z m370 -185 c0 -3 -4 -8 -10
-11 -5 -3 -10 -1 -10 4 0 6 5 11 10 11 6 0 10 -2 10 -4z m150 -40 c0 -21 -21
-31 -31 -15 -5 8 -3 17 4 21 18 12 27 10 27 -6z m-91 -185 c8 -5 11 -16 6 -31
-4 -12 -9 -19 -12 -16 -4 3 -11 1 -18 -4 -9 -7 -12 0 -12 25 0 35 10 42 36 26z
m46 -81 c0 -8 -8 -16 -17 -18 -13 -2 -18 3 -18 18 0 15 5 20 18 18 9 -2 17
-10 17 -18z m235 -114 c0 -30 -32 -31 -46 -1 -9 18 -9 25 0 28 23 8 46 -6 46
-27z m380 -95 c0 -6 -4 -13 -10 -16 -5 -3 -10 1 -10 9 0 9 5 16 10 16 6 0 10
-4 10 -9z m-63 -33 c-3 -8 -6 -5 -6 6 -1 11 2 17 5 13 3 -3 4 -12 1 -19z m-26
3 c-8 -5 -20 -7 -28 -4 -21 8 -15 13 15 13 20 0 23 -3 13 -9z m-531 -731 c0
-5 -4 -10 -10 -10 -5 0 -10 5 -10 10 0 6 5 10 10 10 6 0 10 -4 10 -10z m95
-39 c3 -5 1 -12 -5 -16 -5 -3 -10 1 -10 9 0 18 6 21 15 7z m89 -87 c9 -23 7
-36 -3 -30 -12 8 -21 46 -11 46 4 0 11 -7 14 -16z"/>
<path d="M3678 3218 c-9 -40 -23 -97 -32 -127 -13 -48 -13 -53 0 -39 8 8 17
24 19 34 2 10 4 19 5 19 1 0 4 11 6 25 1 14 12 52 22 85 11 33 18 63 15 68
-11 18 -20 2 -35 -65z"/>
<path d="M3970 3220 c0 -5 5 -10 11 -10 5 0 7 5 4 10 -3 6 -8 10 -11 10 -2 0
-4 -4 -4 -10z"/>
<path d="M4010 3070 c0 -5 5 -10 10 -10 6 0 10 5 10 10 0 6 -4 10 -10 10 -5 0
-10 -4 -10 -10z"/>
<path d="M3980 2979 c0 -5 5 -7 10 -4 6 3 10 8 10 11 0 2 -4 4 -10 4 -5 0 -10
-5 -10 -11z"/>
<path d="M3920 2945 c-11 -13 -10 -14 4 -9 9 3 16 10 16 15 0 13 -6 11 -20 -6z"/>
<path d="M3855 2940 c-4 -6 -11 -7 -17 -4 -7 4 -8 2 -4 -4 7 -12 36 -5 36 9 0
12 -7 11 -15 -1z"/>
<path d="M4105 2940 c-3 -5 -1 -10 4 -10 6 0 11 5 11 10 0 6 -2 10 -4 10 -3 0
-8 -4 -11 -10z"/>
<path d="M3881 2913 c-1 -22 8 -27 35 -24 7 1 14 -5 17 -13 3 -8 15 -19 25
-25 18 -10 19 -9 8 14 -6 14 -17 25 -23 25 -7 0 -13 4 -13 9 0 5 -9 7 -19 4
-13 -3 -21 1 -24 14 -4 15 -5 14 -6 -4z"/>
<path d="M3990 2911 c0 -5 7 -11 14 -14 10 -4 13 -1 9 9 -6 15 -23 19 -23 5z"/>
<path d="M3562 2868 c-6 -18 -13 -44 -16 -58 -3 -14 -10 -41 -15 -60 -14 -43
-14 -50 -1 -50 6 0 10 9 10 21 0 11 4 18 9 15 5 -4 7 3 4 14 -3 11 0 26 5 33
6 7 13 29 16 48 2 19 7 42 11 52 4 9 3 17 -2 17 -5 0 -14 -15 -21 -32z"/>
<path d="M4070 2879 c0 -5 5 -7 10 -4 6 3 10 8 10 11 0 2 -4 4 -10 4 -5 0 -10
-5 -10 -11z"/>
<path d="M4230 2880 c0 -5 5 -10 10 -10 6 0 10 5 10 10 0 6 -4 10 -10 10 -5 0
-10 -4 -10 -10z"/>
<path d="M6621 2874 c0 -11 3 -14 6 -6 3 7 2 16 -1 19 -3 4 -6 -2 -5 -13z"/>
<path d="M6515 2860 c-3 -5 -1 -10 4 -10 6 0 11 5 11 10 0 6 -2 10 -4 10 -3 0
-8 -4 -11 -10z"/>
<path d="M4002 2847 c-8 -10 -6 -13 9 -13 20 0 25 11 10 20 -5 3 -13 0 -19 -7z"/>
<path d="M4205 2850 c-3 -5 -1 -10 4 -10 6 0 11 5 11 10 0 6 -2 10 -4 10 -3 0
-8 -4 -11 -10z"/>
<path d="M6568 2853 c-22 -6 -22 -14 -2 -39 15 -18 15 -18 8 5 -4 16 -3 21 5
17 6 -4 11 0 11 8 0 9 -1 15 -2 15 -2 -1 -11 -3 -20 -6z"/>
<path d="M6498 2822 c-12 -13 -14 -22 -7 -35 6 -10 15 -15 21 -11 7 4 6 9 -2
14 -7 4 -9 13 -5 20 6 9 9 9 16 -1 6 -10 8 -7 6 9 -2 26 -6 27 -29 4z"/>
<path d="M3695 2820 c-3 -5 -1 -10 4 -10 6 0 11 5 11 10 0 6 -2 10 -4 10 -3 0
-8 -4 -11 -10z"/>
<path d="M4080 2820 c0 -5 5 -10 10 -10 6 0 10 5 10 10 0 6 -4 10 -10 10 -5 0
-10 -4 -10 -10z"/>
<path d="M6449 2813 c-1 -5 -1 -12 0 -17 3 -16 -23 -25 -37 -14 -10 9 -17 7
-30 -5 -10 -11 -12 -17 -4 -17 7 0 12 -7 12 -15 0 -18 -27 -20 -32 -3 -3 8
-21 3 -58 -15 -30 -15 -63 -27 -73 -27 -15 0 -18 -5 -15 -25 6 -30 -11 -34
-19 -5 -7 25 -43 27 -43 2 0 -11 12 -21 35 -28 20 -6 35 -7 35 -2 0 5 9 6 21
3 18 -6 20 -4 11 11 -7 12 -6 21 3 31 18 17 35 17 35 -2 0 -17 9 -19 29 -6 7
5 10 14 7 20 -5 7 2 11 17 11 20 0 23 -4 19 -29 -2 -18 1 -30 10 -34 11 -4 13
2 10 23 -2 15 1 31 7 34 6 4 11 2 11 -3 0 -6 8 -11 18 -11 10 0 13 3 6 8 -6 4
-13 19 -16 34 -4 20 0 28 14 31 11 3 18 0 18 -9 0 -8 5 -14 11 -14 5 0 7 5 4
10 -4 6 -2 16 3 23 11 15 12 47 0 47 -4 0 -9 -3 -9 -7z"/>
<path d="M3665 2800 c-3 -5 -1 -10 4 -10 6 0 11 5 11 10 0 6 -2 10 -4 10 -3 0
-8 -4 -11 -10z"/>
<path d="M4166 2801 c-4 -5 3 -7 14 -4 23 6 26 13 6 13 -8 0 -17 -4 -20 -9z"/>
<path d="M6582 2789 c-7 -11 -22 -19 -35 -19 -12 0 -28 -9 -35 -20 -7 -11 -8
-20 -2 -20 5 0 7 -7 4 -15 -4 -8 -1 -15 6 -15 7 0 9 -8 5 -20 -9 -27 -1 -25
19 5 14 21 14 24 1 19 -17 -7 -21 22 -6 45 8 12 12 10 22 -12 10 -21 15 -24
26 -15 19 16 27 4 13 -22 -11 -21 -11 -21 16 -4 15 10 22 20 15 22 -6 2 -11
10 -11 19 0 10 -6 12 -20 8 -23 -7 -26 3 -6 30 13 18 14 18 26 -5 9 -17 14
-20 21 -9 4 7 4 18 -1 25 -6 6 -7 13 -4 16 2 3 -6 6 -19 6 -13 0 -29 -9 -35
-19z"/>
<path d="M4091 2791 c-12 -8 -12 -12 -2 -25 8 -9 18 -16 23 -16 6 0 5 6 -2 15
-6 8 -9 19 -5 25 8 12 4 12 -14 1z"/>
<path d="M4258 2788 c5 -5 16 -8 23 -6 8 3 3 7 -10 11 -17 4 -21 3 -13 -5z"/>
<path d="M3760 2779 c0 -6 7 -9 15 -5 8 3 15 1 15 -4 0 -6 5 -10 11 -10 8 0 8
5 -1 15 -15 17 -40 20 -40 4z"/>
<path d="M6660 2783 c0 -4 5 -15 10 -23 8 -13 10 -13 10 2 0 9 -4 20 -10 23
-5 3 -10 3 -10 -2z"/>
<path d="M3710 2753 c-13 -15 -12 -16 4 -10 10 4 20 7 22 7 2 0 4 5 4 10 0 15
-13 12 -30 -7z"/>
<path d="M3825 2750 c-4 -6 -2 -10 4 -10 5 0 12 -13 16 -30 7 -31 25 -42 25
-15 0 8 -4 15 -10 15 -5 0 -10 5 -10 10 0 17 21 11 39 -12 11 -13 23 -18 30
-14 9 6 2 15 -21 30 -43 30 -66 37 -73 26z"/>
<path d="M3770 2746 c0 -2 7 -9 15 -16 9 -7 15 -8 15 -2 0 5 -7 12 -15 16 -8
3 -15 4 -15 2z"/>
<path d="M4135 2740 c3 -5 8 -10 11 -10 2 0 4 5 4 10 0 6 -5 10 -11 10 -5 0
-7 -4 -4 -10z"/>
<path d="M6473 2718 c3 -9 0 -21 -6 -27 -8 -8 -6 -17 11 -33 12 -12 24 -19 28
-15 3 3 -1 13 -10 23 -9 9 -14 24 -11 34 3 10 0 22 -6 26 -8 5 -10 2 -6 -8z"/>
<path d="M6650 2712 c0 -10 -9 -28 -20 -40 -12 -12 -17 -22 -12 -22 5 0 18 11
30 25 23 26 29 55 12 55 -5 0 -10 -8 -10 -18z"/>
<path d="M3730 2701 c0 -5 5 -13 10 -16 6 -3 10 -2 10 4 0 5 -4 13 -10 16 -5
3 -10 2 -10 -4z"/>
<path d="M4378 2703 c7 -3 16 -2 19 1 4 3 -2 6 -13 5 -11 0 -14 -3 -6 -6z"/>
<path d="M5730 2689 c0 -5 5 -7 10 -4 6 3 10 8 10 11 0 2 -4 4 -10 4 -5 0 -10
-5 -10 -11z"/>
<path d="M3430 2682 c0 -4 9 -13 20 -20 22 -13 27 -3 8 16 -14 14 -28 16 -28
4z"/>
<path d="M3496 2674 c-9 -22 -8 -23 13 -17 12 3 17 11 14 19 -7 19 -19 18 -27
-2z"/>
<path d="M3786 2676 c3 -8 13 -17 22 -21 13 -5 13 -2 -3 15 -21 24 -26 25 -19
6z"/>
<path d="M3970 2655 c19 -19 29 -35 22 -35 -7 0 -12 -8 -12 -18 0 -10 -6 -24
-12 -31 -11 -11 -10 -13 5 -7 10 3 23 6 28 6 5 0 9 7 9 15 0 8 -5 15 -10 15
-6 0 -6 7 2 19 10 16 7 23 -18 45 -43 38 -53 31 -14 -9z"/>
<path d="M6571 2674 c0 -11 3 -14 6 -6 3 7 2 16 -1 19 -3 4 -6 -2 -5 -13z"/>
<path d="M3896 2665 c-11 -8 -15 -15 -9 -15 19 0 43 12 43 21 0 13 -12 11 -34
-6z"/>
<path d="M6427 2660 c-3 -11 -1 -20 4 -20 5 0 9 9 9 20 0 11 -2 20 -4 20 -2 0
-6 -9 -9 -20z"/>
<path d="M3550 2660 c0 -5 5 -10 11 -10 5 0 7 5 4 10 -3 6 -8 10 -11 10 -2 0
-4 -4 -4 -10z"/>
<path d="M3675 2660 c3 -5 8 -10 11 -10 2 0 4 5 4 10 0 6 -5 10 -11 10 -5 0
-7 -4 -4 -10z"/>
<path d="M5740 2659 c0 -5 5 -7 10 -4 6 3 10 8 10 11 0 2 -4 4 -10 4 -5 0 -10
-5 -10 -11z"/>
<path d="M5674 2635 c2 -16 7 -28 12 -26 10 3 8 16 -6 41 -6 10 -8 6 -6 -15z"/>
<path d="M3850 2640 c0 -5 5 -10 10 -10 6 0 10 5 10 10 0 6 -4 10 -10 10 -5 0
-10 -4 -10 -10z"/>
<path d="M3920 2645 c-2 -5 -2 -14 -1 -19 1 -5 -4 -13 -11 -17 -8 -5 -5 -8 10
-6 24 1 25 3 12 32 -5 11 -9 16 -10 10z"/>
<path d="M6530 2645 c0 -5 5 -17 10 -25 5 -8 10 -10 10 -5 0 6 -5 17 -10 25
-5 8 -10 11 -10 5z"/>
<path d="M3500 2626 c0 -9 5 -16 10 -16 6 0 10 4 10 9 0 6 -4 13 -10 16 -5 3
-10 -1 -10 -9z"/>
<path d="M3610 2630 c0 -5 5 -10 11 -10 5 0 7 5 4 10 -3 6 -8 10 -11 10 -2 0
-4 -4 -4 -10z"/>
<path d="M6077 2608 c-4 -13 -1 -29 7 -36 12 -12 14 -9 12 16 -2 39 -12 49
-19 20z"/>
<path d="M6140 2605 c0 -20 -4 -26 -16 -21 -10 4 -15 0 -14 -12 4 -35 -12 -62
-35 -62 -21 0 -23 3 -18 43 3 23 2 38 -3 34 -4 -4 -9 -14 -10 -21 -1 -7 -5
-23 -9 -35 -5 -18 -2 -24 15 -28 11 -3 20 -13 19 -22 -5 -49 15 -58 25 -10 7
38 41 38 41 0 0 -13 5 -26 11 -28 7 -2 12 2 11 9 -1 36 4 48 22 48 10 0 21 -7
25 -15 3 -8 1 -15 -5 -15 -6 0 -7 -5 -3 -12 5 -8 13 -5 25 10 22 27 38 28 36
2 -1 -12 -8 -20 -19 -20 -19 0 -23 -11 -11 -24 4 -4 8 -15 8 -24 0 -9 10 -21
22 -27 12 -5 24 -18 27 -29 3 -11 8 -17 11 -14 10 10 -14 48 -30 48 -23 0 -18
41 5 47 15 4 19 11 14 25 -4 14 -2 18 5 14 7 -5 11 2 11 17 0 14 -7 28 -15 31
-10 4 -15 16 -13 33 2 20 -2 28 -16 31 -10 2 -16 0 -13 -5 7 -11 -23 -57 -39
-60 -18 -3 -4 38 15 45 9 4 16 17 17 30 1 26 -2 26 -36 7 -32 -18 -44 -19 -37
-1 3 8 -1 20 -9 26 -12 10 -14 8 -14 -15z m31 -45 c5 0 9 -5 9 -11 0 -18 -28
-39 -52 -38 -13 0 -17 3 -10 6 6 2 12 16 12 30 0 19 4 24 16 19 9 -3 20 -6 25
-6z m99 -50 c0 -5 -4 -10 -10 -10 -5 0 -10 5 -10 10 0 6 5 10 10 10 6 0 10 -4
10 -10z"/>
<path d="M6277 2624 c-4 -4 -7 -14 -7 -23 0 -11 3 -12 11 -4 6 6 10 16 7 23
-2 6 -7 8 -11 4z"/>
<path d="M6440 2620 c0 -5 5 -10 11 -10 5 0 7 5 4 10 -3 6 -8 10 -11 10 -2 0
-4 -4 -4 -10z"/>
<path d="M6480 2625 c0 -15 18 -40 24 -34 3 3 -1 14 -9 25 -8 10 -14 15 -15 9z"/>
<path d="M3670 2609 c0 -5 5 -7 10 -4 6 3 10 8 10 11 0 2 -4 4 -10 4 -5 0 -10
-5 -10 -11z"/>
<path d="M3790 2610 c0 -5 5 -10 10 -10 6 0 10 5 10 10 0 6 -4 10 -10 10 -5 0
-10 -4 -10 -10z"/>
<path d="M4551 2601 c-10 -7 -7 -9 12 -8 14 1 23 5 20 10 -6 9 -15 9 -32 -2z"/>
<path d="M5720 2599 c0 -5 5 -7 10 -4 6 3 10 8 10 11 0 2 -4 4 -10 4 -5 0 -10
-5 -10 -11z"/>
<path d="M3730 2584 c0 -8 5 -12 10 -9 6 3 10 10 10 16 0 5 -4 9 -10 9 -5 0
-10 -7 -10 -16z"/>
<path d="M3860 2585 c0 -8 2 -15 4 -15 2 0 6 7 10 15 3 8 1 15 -4 15 -6 0 -10
-7 -10 -15z"/>
<path d="M4690 2589 c0 -5 5 -7 10 -4 6 3 10 8 10 11 0 2 -4 4 -10 4 -5 0 -10
-5 -10 -11z"/>
<path d="M6385 2591 c-3 -5 -1 -12 5 -16 6 -4 8 -11 5 -16 -3 -5 1 -6 9 -3 12
5 13 11 5 25 -11 21 -15 23 -24 10z"/>
<path d="M3918 2571 c8 -4 13 -11 13 -15 -1 -3 1 -6 4 -6 3 0 8 0 11 0 4 0 1
7 -6 15 -7 8 -18 15 -24 15 -7 0 -6 -4 2 -9z"/>
<path d="M5705 2570 c-3 -5 -1 -10 4 -10 6 0 11 5 11 10 0 6 -2 10 -4 10 -3 0
-8 -4 -11 -10z"/>
<path d="M5735 2560 c3 -5 11 -10 16 -10 6 0 7 5 4 10 -3 6 -11 10 -16 10 -6
0 -7 -4 -4 -10z"/>
<path d="M6312 2558 c-7 -7 -12 -17 -12 -23 0 -16 24 -65 32 -65 16 0 18 21 4
36 -19 19 -20 36 -4 52 7 7 8 12 2 12 -5 0 -15 -5 -22 -12z"/>
<path d="M6436 2561 c-4 -5 3 -7 14 -4 23 6 26 13 6 13 -8 0 -17 -4 -20 -9z"/>
<path d="M4260 2541 c0 -5 5 -13 10 -16 6 -3 10 -2 10 4 0 5 -4 13 -10 16 -5
3 -10 2 -10 -4z"/>
<path d="M5710 2539 c0 -5 5 -7 10 -4 6 3 10 8 10 11 0 2 -4 4 -10 4 -5 0 -10
-5 -10 -11z"/>
<path d="M6418 2524 c-13 -13 -9 -42 6 -47 12 -5 13 -13 6 -36 -7 -24 -5 -31
5 -31 8 0 19 -8 24 -17 9 -16 10 -16 11 -2 0 9 -7 19 -15 23 -17 6 -21 36 -5
36 6 0 10 7 10 15 0 8 7 15 15 15 8 0 15 4 15 10 0 5 -13 7 -29 4 -25 -5 -30
-3 -33 16 -1 12 -6 18 -10 14z"/>
<path d="M6520 2520 c0 -5 5 -10 11 -10 5 0 7 5 4 10 -3 6 -8 10 -11 10 -2 0
-4 -4 -4 -10z"/>
<path d="M4292 2511 c4 -13 18 -16 19 -4 0 4 -5 9 -11 12 -7 2 -11 -2 -8 -8z"/>
<path d="M4640 2510 c0 -4 9 -10 20 -13 11 -3 20 -2 20 3 0 4 -9 10 -20 13
-11 3 -20 2 -20 -3z"/>
<path d="M6368 2503 c7 -3 16 -2 19 1 4 3 -2 6 -13 5 -11 0 -14 -3 -6 -6z"/>
<path d="M3301 2483 c-9 -4 3 -13 33 -25 26 -10 52 -16 57 -13 5 4 9 1 9 -5 0
-7 7 -9 16 -6 10 4 23 -2 34 -14 11 -13 21 -17 25 -10 3 5 2 10 -4 10 -6 0 -8
8 -5 18 5 14 4 15 -5 2 -6 -8 -11 -10 -11 -4 0 5 5 15 11 21 9 9 3 13 -22 17
-72 11 -125 14 -138 9z"/>
<path d="M6340 2467 c-28 -22 -49 -63 -39 -78 8 -12 10 -12 19 1 5 8 10 24 10
35 0 15 3 16 12 7 7 -7 19 -12 28 -12 13 1 12 3 -2 14 -12 9 -14 16 -7 23 15
15 -3 23 -21 10z"/>
<path d="M6520 2471 c0 -5 6 -14 14 -20 12 -10 13 -8 9 8 -5 21 -23 30 -23 12z"/>
<path d="M3498 2463 c6 -3 12 -9 12 -15 0 -5 7 -7 16 -4 9 4 23 1 30 -5 9 -7
22 -8 41 -2 27 9 25 10 -22 17 -86 13 -90 13 -77 9z"/>
<path d="M4730 2460 c0 -5 5 -10 10 -10 6 0 10 5 10 10 0 6 -4 10 -10 10 -5 0
-10 -4 -10 -10z"/>
<path d="M4361 2434 c-12 -13 -20 -28 -17 -33 8 -12 -20 -34 -34 -26 -5 3 -10
0 -10 -7 0 -9 14 -14 40 -14 22 -1 40 2 40 7 0 5 -5 9 -12 9 -6 0 -3 9 7 20
10 11 14 20 9 20 -5 0 -1 5 9 11 20 12 22 25 4 32 -7 3 -23 -6 -36 -19z"/>
<path d="M3681 2431 c-9 -6 -4 -13 16 -26 29 -19 47 -37 89 -90 18 -23 24 -26
24 -12 0 21 19 22 48 1 24 -16 30 -7 10 15 -11 11 -10 13 5 7 10 -3 22 -6 27
-6 4 0 10 -9 13 -20 3 -13 0 -20 -10 -20 -8 0 -11 -5 -8 -10 4 -6 11 -7 17 -4
7 4 8 2 4 -4 -8 -13 10 -52 24 -52 5 0 6 10 2 23 -13 41 -1 107 19 107 5 0 8
-3 8 -7 -3 -21 3 -29 22 -30 13 -1 19 3 16 11 -4 10 1 12 15 8 11 -3 23 -13
25 -24 3 -10 9 -18 12 -18 4 0 5 -14 3 -31 -3 -19 -1 -29 5 -26 5 3 8 26 8 51
-1 25 2 46 7 46 4 0 8 -4 8 -10 0 -5 7 -10 17 -10 15 0 15 1 0 18 -10 10 -17
29 -17 41 0 20 -5 22 -42 20 -24 -1 -50 1 -58 4 -13 5 -189 34 -257 42 -12 2
-26 5 -30 8 -5 3 -15 2 -22 -2z"/>
<path d="M4407 2423 c-4 -3 -7 -11 -7 -16 0 -6 3 -7 7 -4 3 4 12 -1 19 -11 14
-18 18 -5 8 22 -7 17 -16 20 -27 9z"/>
<path d="M3500 2389 c7 -11 14 -18 17 -15 8 8 -5 36 -17 36 -7 0 -7 -6 0 -21z"/>
<path d="M6360 2400 c0 -5 5 -10 10 -10 6 0 10 -7 10 -16 0 -8 4 -13 9 -10 13
9 1 46 -15 46 -8 0 -14 -4 -14 -10z"/>
<path d="M4195 2390 c3 -5 8 -10 11 -10 2 0 4 5 4 10 0 6 -5 10 -11 10 -5 0
-7 -4 -4 -10z"/>
<path d="M3157 2366 c-5 -14 -3 -15 13 -6 31 17 64 -3 84 -52 10 -23 24 -56
31 -73 7 -16 19 -48 26 -70 7 -22 21 -53 32 -70 10 -16 16 -21 12 -10 -4 11
-9 38 -13 60 -3 22 -15 54 -27 70 -31 41 -46 115 -22 108 4 -2 7 1 7 6 0 12
-64 41 -104 48 -25 4 -35 1 -39 -11z"/>
<path d="M6509 2347 c-19 -30 -29 -67 -18 -67 5 0 9 8 9 18 0 9 5 24 10 32 9
13 11 13 19 0 15 -22 19 -8 6 17 l-11 22 -15 -22z"/>
<path d="M6347 2343 c-12 -12 -7 -21 14 -26 17 -5 18 -3 7 11 -7 9 -13 18 -14
20 0 1 -4 -1 -7 -5z"/>
<path d="M6400 2339 c0 -5 5 -7 10 -4 6 3 10 8 10 11 0 2 -4 4 -10 4 -5 0 -10
-5 -10 -11z"/>
<path d="M6580 2321 c0 -6 4 -13 10 -16 6 -3 7 1 4 9 -7 18 -14 21 -14 7z"/>
<path d="M4350 2294 c0 -8 5 -12 10 -9 6 3 10 10 10 16 0 5 -4 9 -10 9 -5 0
-10 -7 -10 -16z"/>
<path d="M6390 2290 c0 -5 5 -10 10 -10 6 0 10 5 10 10 0 6 -4 10 -10 10 -5 0
-10 -4 -10 -10z"/>
<path d="M3378 2281 c8 -4 13 -11 13 -15 -2 -17 0 -19 11 -8 10 10 10 15 -2
22 -8 5 -19 10 -25 10 -5 0 -4 -4 3 -9z"/>
<path d="M4116 2281 c-3 -4 1 -16 8 -26 10 -14 14 -15 18 -4 6 16 -18 44 -26
30z"/>
<path d="M3985 2270 c-3 -5 1 -10 10 -10 9 0 13 5 10 10 -3 6 -8 10 -10 10 -2
0 -7 -4 -10 -10z"/>
<path d="M3428 2263 c6 -2 12 -11 12 -18 0 -15 27 -28 35 -16 5 9 -38 42 -52
40 -4 0 -2 -3 5 -6z"/>
<path d="M6671 2254 c0 -11 3 -14 6 -6 3 7 2 16 -1 19 -3 4 -6 -2 -5 -13z"/>
<path d="M6526 2243 c-4 -9 -1 -21 5 -27 9 -8 10 -7 6 5 -3 9 0 22 6 28 8 8 8
11 0 11 -6 0 -14 -8 -17 -17z"/>
<path d="M6575 2250 c3 -5 8 -10 11 -10 2 0 4 5 4 10 0 6 -5 10 -11 10 -5 0
-7 -4 -4 -10z"/>
<path d="M6440 2230 c0 -5 5 -10 10 -10 6 0 10 5 10 10 0 6 -4 10 -10 10 -5 0
-10 -4 -10 -10z"/>
<path d="M3502 2218 c3 -7 13 -15 22 -16 12 -3 17 1 14 10 -3 7 -13 15 -22 16
-12 3 -17 -1 -14 -10z"/>
<path d="M4115 2220 c-3 -6 1 -7 10 -4 11 5 14 2 9 -10 -7 -18 11 -22 22 -5 3
6 0 15 -7 20 -18 11 -26 11 -34 -1z"/>
<path d="M3385 2210 c3 -5 8 -10 11 -10 2 0 4 5 4 10 0 6 -5 10 -11 10 -5 0
-7 -4 -4 -10z"/>
<path d="M3815 2210 c-4 -6 -14 -8 -23 -6 -12 4 -23 -4 -34 -24 -10 -17 -13
-30 -6 -30 20 0 88 44 88 57 0 16 -16 17 -25 3z"/>
<path d="M3995 2211 c-3 -5 -1 -12 5 -16 5 -3 10 1 10 9 0 18 -6 21 -15 7z"/>
<path d="M3445 2190 c-3 -5 -1 -10 4 -10 6 0 11 5 11 10 0 6 -2 10 -4 10 -3 0
-8 -4 -11 -10z"/>
<path d="M3557 2193 c-12 -11 -7 -25 6 -20 10 4 13 -2 9 -19 -2 -14 0 -24 7
-24 7 0 9 -6 5 -12 -6 -10 -4 -10 7 0 10 9 10 15 1 24 -17 17 -15 28 5 28 15
0 14 2 -3 15 -22 16 -28 18 -37 8z"/>
<path d="M4060 2169 c0 -5 5 -7 10 -4 6 3 10 8 10 11 0 2 -4 4 -10 4 -5 0 -10
-5 -10 -11z"/>
<path d="M3380 2154 c0 -8 5 -12 10 -9 6 3 10 10 10 16 0 5 -4 9 -10 9 -5 0
-10 -7 -10 -16z"/>
<path d="M3515 2160 c3 -5 8 -10 11 -10 2 0 4 5 4 10 0 6 -5 10 -11 10 -5 0
-7 -4 -4 -10z"/>
<path d="M3160 2149 c0 -5 5 -7 10 -4 6 3 10 8 10 11 0 2 -4 4 -10 4 -5 0 -10
-5 -10 -11z"/>
<path d="M4000 2141 c0 -5 5 -13 10 -16 6 -3 10 -2 10 4 0 5 -4 13 -10 16 -5
3 -10 2 -10 -4z"/>
<path d="M4140 2141 c0 -5 6 -14 14 -20 12 -10 13 -8 9 8 -5 21 -23 30 -23 12z"/>
<path d="M3440 2130 c0 -5 5 -10 10 -10 6 0 10 5 10 10 0 6 -4 10 -10 10 -5 0
-10 -4 -10 -10z"/>
<path d="M2811 2109 c-11 -12 -21 -29 -21 -37 0 -10 9 -5 24 12 17 21 30 27
52 24 25 -3 29 -7 31 -38 2 -56 4 -57 23 -16 10 22 20 33 24 27 4 -6 12 -8 18
-5 6 4 13 2 17 -4 4 -7 12 -8 21 -2 18 11 -64 48 -125 57 -35 4 -46 2 -64 -18z"/>
<path d="M3360 2120 c0 -5 5 -10 10 -10 6 0 10 5 10 10 0 6 -4 10 -10 10 -5 0
-10 -4 -10 -10z"/>
<path d="M4206 2108 c7 -22 21 -38 37 -38 15 0 6 20 -13 30 -11 6 -18 15 -15
21 4 5 1 9 -5 9 -7 0 -9 -8 -4 -22z"/>
<path d="M3510 2110 c0 -5 5 -10 11 -10 5 0 7 5 4 10 -3 6 -8 10 -11 10 -2 0
-4 -4 -4 -10z"/>
<path d="M4070 2110 c0 -5 5 -10 11 -10 5 0 7 5 4 10 -3 6 -8 10 -11 10 -2 0
-4 -4 -4 -10z"/>
<path d="M4000 2104 c0 -5 7 -18 15 -28 12 -16 15 -17 15 -4 0 8 -7 21 -15 28
-8 7 -15 9 -15 4z"/>
<path d="M3440 2084 c0 -8 5 -12 10 -9 6 4 8 11 5 16 -9 14 -15 11 -15 -7z"/>
<path d="M3575 2080 c-3 -5 -2 -10 4 -10 5 0 13 5 16 10 3 6 2 10 -4 10 -5 0
-13 -4 -16 -10z"/>
<path d="M4150 2075 c0 -5 5 -17 10 -25 5 -8 10 -10 10 -5 0 6 -5 17 -10 25
-5 8 -10 11 -10 5z"/>
<path d="M3020 2061 c0 -6 5 -13 10 -16 6 -3 10 1 10 9 0 9 -4 16 -10 16 -5 0
-10 -4 -10 -9z"/>
<path d="M3640 2054 c0 -8 5 -12 10 -9 6 3 10 10 10 16 0 5 -4 9 -10 9 -5 0
-10 -7 -10 -16z"/>
<path d="M3500 2050 c0 -5 5 -10 11 -10 5 0 7 5 4 10 -3 6 -8 10 -11 10 -2 0
-4 -4 -4 -10z"/>
<path d="M3055 2040 c-3 -5 1 -10 10 -10 9 0 13 5 10 10 -3 6 -8 10 -10 10 -2
0 -7 -4 -10 -10z"/>
<path d="M4260 2041 c0 -6 4 -13 10 -16 6 -3 7 1 4 9 -7 18 -14 21 -14 7z"/>
<path d="M2677 1978 c-5 -70 2 -85 45 -90 15 -2 30 -7 34 -11 12 -12 24 -8 18
7 -3 8 -16 17 -29 20 -16 4 -22 11 -19 21 4 8 2 15 -4 15 -5 0 -8 13 -6 29 2
18 -4 37 -15 50 -18 21 -19 21 -24 -41z"/>
<path d="M3575 2030 c3 -5 8 -10 11 -10 2 0 4 5 4 10 0 6 -5 10 -11 10 -5 0
-7 -4 -4 -10z"/>
<path d="M3090 2021 c0 -5 7 -14 15 -21 16 -14 18 -10 9 14 -6 17 -24 22 -24
7z"/>
<path d="M4215 2020 c3 -5 11 -10 16 -10 6 0 7 5 4 10 -3 6 -11 10 -16 10 -6
0 -7 -4 -4 -10z"/>
<path d="M3356 2013 c-21 -6 -71 -52 -64 -59 7 -6 98 46 98 57 0 9 -3 10 -34
2z"/>
<path d="M3497 1990 c3 -11 9 -20 14 -20 11 0 11 3 3 24 -9 23 -23 20 -17 -4z"/>
<path d="M3635 2000 c-3 -5 -1 -10 4 -10 6 0 11 5 11 10 0 6 -2 10 -4 10 -3 0
-8 -4 -11 -10z"/>
<path d="M2897 1994 c-7 -8 4 -44 14 -44 12 0 12 37 0 44 -4 3 -11 3 -14 0z"/>
<path d="M3060 1989 c0 -5 5 -7 10 -4 6 3 10 8 10 11 0 2 -4 4 -10 4 -5 0 -10
-5 -10 -11z"/>
<path d="M4070 1986 c0 -21 26 -40 36 -25 4 7 2 15 -4 17 -7 2 -10 8 -6 13 3
5 -2 9 -10 9 -9 0 -16 -6 -16 -14z"/>
<path d="M3151 1988 c-1 -4 4 -19 11 -33 11 -25 28 -34 28 -15 0 6 -5 10 -11
10 -6 0 -8 7 -5 16 3 8 2 13 -3 9 -5 -3 -12 1 -14 7 -3 7 -6 10 -6 6z"/>
<path d="M3110 1970 c0 -5 5 -10 10 -10 6 0 10 5 10 10 0 6 -4 10 -10 10 -5 0
-10 -4 -10 -10z"/>
<path d="M3700 1971 c0 -5 6 -14 14 -20 12 -10 13 -8 9 8 -5 21 -23 30 -23 12z"/>
<path d="M3045 1941 c-3 -5 -1 -12 5 -16 5 -3 10 1 10 9 0 18 -6 21 -15 7z"/>
<path d="M3630 1939 c0 -5 5 -7 10 -4 6 3 10 8 10 11 0 2 -4 4 -10 4 -5 0 -10
-5 -10 -11z"/>
<path d="M2740 1930 c0 -5 5 -10 10 -10 6 0 10 5 10 10 0 6 -4 10 -10 10 -5 0
-10 -4 -10 -10z"/>
<path d="M2593 1920 c-11 -5 -44 -37 -73 -72 -88 -107 -82 -98 -64 -98 8 0 24
5 36 11 18 10 19 8 13 -12 -6 -19 -5 -21 18 -15 14 3 32 9 41 12 9 3 16 1 16
-5 0 -6 7 -11 15 -11 8 0 15 5 15 10 0 6 5 10 10 10 6 0 10 -7 10 -16 0 -12 6
-15 25 -10 25 6 36 -9 13 -17 -7 -2 2 -4 20 -5 25 0 32 3 32 18 0 19 -73 55
-91 45 -5 -4 -20 5 -34 19 -14 15 -32 26 -38 26 -24 0 -37 21 -22 36 7 8 18
14 23 14 6 0 20 11 33 25 13 13 29 25 36 25 6 0 15 5 18 10 7 12 -22 12 -52 0z"/>
<path d="M3106 1921 c-4 -7 -5 -15 -2 -18 9 -9 19 4 14 18 -4 11 -6 11 -12 0z"/>
<path d="M4111 1914 c0 -11 3 -14 6 -6 3 7 2 16 -1 19 -3 4 -6 -2 -5 -13z"/>
<path d="M2920 1911 c0 -6 5 -13 10 -16 6 -3 10 1 10 9 0 9 -4 16 -10 16 -5 0
-10 -4 -10 -9z"/>
<path d="M3560 1910 c0 -5 5 -10 10 -10 6 0 10 5 10 10 0 6 -4 10 -10 10 -5 0
-10 -4 -10 -10z"/>
<path d="M2976 1895 c-3 -8 -1 -15 4 -15 6 0 10 7 10 15 0 8 -2 15 -4 15 -2 0
-6 -7 -10 -15z"/>
<path d="M3690 1900 c0 -5 5 -10 10 -10 6 0 10 5 10 10 0 6 -4 10 -10 10 -5 0
-10 -4 -10 -10z"/>
<path d="M3160 1884 c0 -8 5 -12 10 -9 6 3 10 10 10 16 0 5 -4 9 -10 9 -5 0
-10 -7 -10 -16z"/>
<path d="M3031 1874 c0 -11 3 -14 6 -6 3 7 2 16 -1 19 -3 4 -6 -2 -5 -13z"/>
<path d="M3631 1874 c0 -11 3 -14 6 -6 3 7 2 16 -1 19 -3 4 -6 -2 -5 -13z"/>
<path d="M2911 1873 c0 -4 4 -17 9 -28 8 -19 9 -19 9 2 1 12 -3 25 -9 28 -5 3
-10 3 -9 -2z"/>
<path d="M3210 1860 c0 -5 7 -10 16 -10 8 0 12 5 9 10 -3 6 -10 10 -16 10 -5
0 -9 -4 -9 -10z"/>
<path d="M3090 1849 c0 -5 5 -7 10 -4 6 3 10 8 10 11 0 2 -4 4 -10 4 -5 0 -10
-5 -10 -11z"/>
<path d="M3740 1850 c-12 -8 -11 -10 8 -10 12 0 22 5 22 10 0 13 -11 13 -30 0z"/>
<path d="M2966 1834 c-4 -9 -4 -19 -1 -22 2 -3 7 3 11 12 4 9 4 19 1 22 -2 3
-7 -3 -11 -12z"/>
<path d="M3157 1843 c-4 -3 -7 -11 -7 -17 0 -6 5 -5 12 2 6 6 9 14 7 17 -3 3
-9 2 -12 -2z"/>
<path d="M3017 1815 c-4 -8 -2 -17 3 -20 6 -4 10 3 10 14 0 25 -6 27 -13 6z"/>
<path d="M3620 1816 c0 -8 5 -18 10 -21 6 -3 10 1 10 9 0 8 -4 18 -10 21 -5 3
-10 -1 -10 -9z"/>
<path d="M3215 1809 c-10 -15 3 -25 16 -12 7 7 7 13 1 17 -6 3 -14 1 -17 -5z"/>
<path d="M3825 1794 c2 -16 4 -35 4 -41 1 -7 7 -13 15 -13 11 0 12 6 2 35 -16
46 -26 54 -21 19z"/>
<path d="M3075 1799 c-10 -15 3 -25 16 -12 7 7 7 13 1 17 -6 3 -14 1 -17 -5z"/>
<path d="M3260 1793 c0 -15 19 -37 26 -31 3 4 -1 14 -10 23 -9 9 -16 13 -16 8z"/>
<path d="M3140 1770 c0 -5 5 -10 10 -10 6 0 10 5 10 10 0 6 -4 10 -10 10 -5 0
-10 -4 -10 -10z"/>
<path d="M3002 1759 c2 -7 10 -15 17 -17 8 -3 12 1 9 9 -2 7 -10 15 -17 17 -8
3 -12 -1 -9 -9z"/>
<path d="M3206 1751 c-4 -7 -5 -15 -2 -18 9 -9 19 4 14 18 -4 11 -6 11 -12 0z"/>
<path d="M2916 1733 c-6 -14 -5 -15 5 -6 7 7 10 15 7 18 -3 3 -9 -2 -12 -12z"/>
<path d="M3070 1730 c0 -19 3 -21 12 -12 9 9 9 15 0 24 -9 9 -12 7 -12 -12z"/>
<path d="M2455 1731 c-3 -5 -1 -12 5 -16 12 -7 30 2 30 16 0 12 -27 12 -35 0z"/>
<path d="M2847 1709 c-6 -10 -23 -19 -36 -19 -20 0 -22 -2 -11 -15 11 -14 17
-13 51 7 44 26 52 40 26 44 -10 1 -23 -6 -30 -17z"/>
<path d="M3271 1714 c0 -11 3 -14 6 -6 3 7 2 16 -1 19 -3 4 -6 -2 -5 -13z"/>
<path d="M2510 1710 c0 -5 5 -10 11 -10 5 0 7 5 4 10 -3 6 -8 10 -11 10 -2 0
-4 -4 -4 -10z"/>
<path d="M3130 1709 c0 -5 5 -7 10 -4 6 3 10 8 10 11 0 2 -4 4 -10 4 -5 0 -10
-5 -10 -11z"/>
<path d="M3680 1710 c-13 -8 -12 -10 3 -10 9 0 17 5 17 10 0 12 -1 12 -20 0z"/>
<path d="M2571 1701 c-8 -5 -9 -11 -3 -15 5 -3 12 1 16 9 6 17 6 18 -13 6z"/>
<path d="M2623 1693 c-15 -5 -17 -23 -4 -23 5 0 11 7 15 15 3 8 4 15 3 14 -1
0 -8 -3 -14 -6z"/>
<path d="M3201 1684 c0 -11 3 -14 6 -6 3 7 2 16 -1 19 -3 4 -6 -2 -5 -13z"/>
<path d="M3060 1681 c0 -6 5 -13 10 -16 6 -3 10 1 10 9 0 9 -4 16 -10 16 -5 0
-10 -4 -10 -9z"/>
<path d="M6103 1683 c-23 -8 -14 -21 18 -28 17 -4 32 -5 35 -2 8 7 -40 34 -53
30z"/>
<path d="M2435 1670 c-3 -5 -1 -10 4 -10 6 0 11 5 11 10 0 6 -2 10 -4 10 -3 0
-8 -4 -11 -10z"/>
<path d="M2660 1664 c0 -9 5 -14 12 -12 18 6 21 28 4 28 -9 0 -16 -7 -16 -16z"/>
<path d="M3690 1671 c0 -6 4 -13 10 -16 6 -3 7 1 4 9 -7 18 -14 21 -14 7z"/>
<path d="M3260 1654 c0 -8 5 -12 10 -9 6 4 8 11 5 16 -9 14 -15 11 -15 -7z"/>
<path d="M2545 1650 c-3 -5 -1 -10 4 -10 6 0 11 5 11 10 0 6 -2 10 -4 10 -3 0
-8 -4 -11 -10z"/>
<path d="M2720 1646 c0 -9 5 -16 10 -16 6 0 10 4 10 9 0 6 -4 13 -10 16 -5 3
-10 -1 -10 -9z"/>
<path d="M3125 1651 c-3 -5 -1 -12 4 -15 5 -3 11 1 15 9 6 16 -9 21 -19 6z"/>
<path d="M2350 1629 c0 -5 5 -7 10 -4 6 3 10 8 10 11 0 2 -4 4 -10 4 -5 0 -10
-5 -10 -11z"/>
<path d="M2590 1629 c0 -5 5 -7 10 -4 6 3 10 8 10 11 0 2 -4 4 -10 4 -5 0 -10
-5 -10 -11z"/>
<path d="M2650 1620 c0 -5 5 -10 10 -10 6 0 10 5 10 10 0 6 -4 10 -10 10 -5 0
-10 -4 -10 -10z"/>
<path d="M3185 1620 c-3 -5 -2 -10 4 -10 5 0 13 5 16 10 3 6 2 10 -4 10 -5 0
-13 -4 -16 -10z"/>
<path d="M3320 1620 c0 -5 5 -10 10 -10 6 0 10 5 10 10 0 6 -4 10 -10 10 -5 0
-10 -4 -10 -10z"/>
<path d="M2705 1600 c-3 -5 1 -10 9 -10 8 0 18 5 21 10 3 6 -1 10 -9 10 -8 0
-18 -4 -21 -10z"/>
<path d="M2577 1593 c-4 -3 -7 -11 -7 -17 0 -6 5 -5 12 2 6 6 9 14 7 17 -3 3
-9 2 -12 -2z"/>
<path d="M3390 1588 c0 -9 5 -20 10 -23 13 -8 13 5 0 25 -8 13 -10 13 -10 -2z"/>
<path d="M2380 1579 c0 -5 5 -7 10 -4 6 3 10 8 10 11 0 2 -4 4 -10 4 -5 0 -10
-5 -10 -11z"/>
<path d="M2760 1575 c0 -8 5 -15 10 -15 6 0 10 7 10 15 0 8 -4 15 -10 15 -5 0
-10 -7 -10 -15z"/>
<path d="M2195 1570 c-3 -5 -1 -10 4 -10 6 0 11 5 11 10 0 6 -2 10 -4 10 -3 0
-8 -4 -11 -10z"/>
<path d="M2630 1569 c0 -5 5 -7 10 -4 6 3 10 8 10 11 0 2 -4 4 -10 4 -5 0 -10
-5 -10 -11z"/>
<path d="M3175 1560 c-3 -5 1 -10 9 -10 9 0 16 5 16 10 0 6 -4 10 -9 10 -6 0
-13 -4 -16 -10z"/>
<path d="M3320 1560 c0 -5 5 -10 10 -10 6 0 10 5 10 10 0 6 -4 10 -10 10 -5 0
-10 -4 -10 -10z"/>
<path d="M6030 1559 c0 -5 5 -7 10 -4 6 3 10 8 10 11 0 2 -4 4 -10 4 -5 0 -10
-5 -10 -11z"/>
<path d="M2485 1550 c3 -5 8 -10 11 -10 2 0 4 5 4 10 0 6 -5 10 -11 10 -5 0
-7 -4 -4 -10z"/>
<path d="M2690 1549 c0 -5 5 -7 10 -4 6 3 10 8 10 11 0 2 -4 4 -10 4 -5 0 -10
-5 -10 -11z"/>
<path d="M2351 1534 c0 -11 3 -14 6 -6 3 7 2 16 -1 19 -3 4 -6 -2 -5 -13z"/>
<path d="M2545 1540 c3 -5 8 -10 11 -10 2 0 4 5 4 10 0 6 -5 10 -11 10 -5 0
-7 -4 -4 -10z"/>
<path d="M2750 1530 c0 -5 4 -10 9 -10 6 0 13 5 16 10 3 6 -1 10 -9 10 -9 0
-16 -4 -16 -10z"/>
<path d="M2605 1520 c-3 -5 -2 -10 4 -10 5 0 13 5 16 10 3 6 2 10 -4 10 -5 0
-13 -4 -16 -10z"/>
<path d="M3100 1520 c-9 -6 -10 -10 -3 -10 6 0 15 5 18 10 8 12 4 12 -15 0z"/>
<path d="M2815 1500 c3 -5 13 -10 21 -10 8 0 12 5 9 10 -3 6 -13 10 -21 10 -8
0 -12 -4 -9 -10z"/>
<path d="M3310 1500 c0 -5 4 -10 9 -10 6 0 13 5 16 10 3 6 -1 10 -9 10 -9 0
-16 -4 -16 -10z"/>
<path d="M2375 1480 c-3 -5 -1 -10 4 -10 6 0 11 5 11 10 0 6 -2 10 -4 10 -3 0
-8 -4 -11 -10z"/>
<path d="M2735 1480 c-3 -5 -1 -10 4 -10 6 0 11 5 11 10 0 6 -2 10 -4 10 -3 0
-8 -4 -11 -10z"/>
<path d="M3240 1470 c0 -5 5 -10 10 -10 6 0 10 5 10 10 0 6 -4 10 -10 10 -5 0
-10 -4 -10 -10z"/>
<path d="M2490 1460 c-9 -6 -10 -10 -3 -10 6 0 15 5 18 10 8 12 4 12 -15 0z"/>
<path d="M2635 1460 c-3 -5 -2 -10 4 -10 5 0 13 5 16 10 3 6 2 10 -4 10 -5 0
-13 -4 -16 -10z"/>
<path d="M6065 1460 c-8 -12 20 -24 35 -15 5 3 10 10 10 16 0 12 -37 12 -45
-1z"/>
<path d="M2790 1450 c0 -5 5 -10 10 -10 6 0 10 5 10 10 0 6 -4 10 -10 10 -5 0
-10 -4 -10 -10z"/>
<path d="M2700 1440 c-20 -12 -5 -24 16 -12 9 5 12 12 7 15 -5 3 -15 2 -23 -3z"/>
<path d="M2535 1430 c-3 -5 -1 -10 4 -10 6 0 11 5 11 10 0 6 -2 10 -4 10 -3 0
-8 -4 -11 -10z"/>
<path d="M6209 1419 c21 -22 44 -18 34 6 -3 8 -16 15 -29 15 -25 0 -25 0 -5
-21z"/>
<path d="M2587 1418 c6 -11 31 -10 37 1 3 5 -5 8 -18 7 -13 0 -22 -4 -19 -8z"/>
<path d="M2771 1411 c-8 -6 -9 -11 -3 -15 6 -3 14 -1 17 5 9 14 2 20 -14 10z"/>
<path d="M2865 1410 c4 -6 11 -8 16 -5 14 9 11 15 -7 15 -8 0 -12 -5 -9 -10z"/>
<path d="M6260 1400 c0 -5 5 -10 10 -10 6 0 10 5 10 10 0 6 -4 10 -10 10 -5 0
-10 -4 -10 -10z"/>
<path d="M2655 1390 c-4 -6 5 -9 19 -8 15 1 26 6 26 10 0 12 -38 10 -45 -2z"/>
<path d="M2920 1391 c0 -6 4 -13 10 -16 6 -3 7 1 4 9 -7 18 -14 21 -14 7z"/>
<path d="M2845 1371 c-3 -5 -1 -12 4 -15 5 -3 11 1 15 9 6 16 -9 21 -19 6z"/>
<path d="M2730 1350 c0 -5 5 -10 11 -10 5 0 7 5 4 10 -3 6 -8 10 -11 10 -2 0
-4 -4 -4 -10z"/>
<path d="M2918 1333 c7 -3 16 -2 19 1 4 3 -2 6 -13 5 -11 0 -14 -3 -6 -6z"/>
<path d="M2820 1310 c0 -5 4 -10 9 -10 6 0 13 5 16 10 3 6 -1 10 -9 10 -9 0
-16 -4 -16 -10z"/>
<path d="M6385 1310 c3 -5 8 -10 11 -10 2 0 4 5 4 10 0 6 -5 10 -11 10 -5 0
-7 -4 -4 -10z"/>
<path d="M2727 1293 c-12 -12 -7 -22 8 -17 8 4 15 10 15 15 0 11 -14 12 -23 2z"/>
<path d="M2915 1280 c-3 -5 -1 -10 4 -10 6 0 11 5 11 10 0 6 -2 10 -4 10 -3 0
-8 -4 -11 -10z"/>
<path d="M2820 1240 c0 -5 5 -10 10 -10 6 0 10 5 10 10 0 6 -4 10 -10 10 -5 0
-10 -4 -10 -10z"/>
<path d="M2745 1220 c3 -5 8 -10 11 -10 2 0 4 5 4 10 0 6 -5 10 -11 10 -5 0
-7 -4 -4 -10z"/>
<path d="M820 1170 c-9 -6 -10 -10 -3 -10 6 0 15 5 18 10 8 12 4 12 -15 0z"/>
<path d="M2790 1159 c0 -5 5 -7 10 -4 6 3 10 8 10 11 0 2 -4 4 -10 4 -5 0 -10
-5 -10 -11z"/>
<path d="M6282 1140 c0 -14 2 -19 5 -12 2 6 2 18 0 25 -3 6 -5 1 -5 -13z"/>
<path d="M1496 1125 c-3 -8 -1 -15 3 -15 5 0 11 7 15 15 3 8 1 15 -3 15 -5 0
-11 -7 -15 -15z"/>
<path d="M965 1119 c-4 -6 -5 -12 -2 -15 2 -3 7 2 10 11 7 17 1 20 -8 4z"/>
<path d="M6301 1084 c0 -11 3 -14 6 -6 3 7 2 16 -1 19 -3 4 -6 -2 -5 -13z"/>
<path d="M1255 1080 c-3 -5 -1 -10 4 -10 6 0 11 5 11 10 0 6 -2 10 -4 10 -3 0
-8 -4 -11 -10z"/>
<path d="M1115 1070 c-3 -5 -1 -10 4 -10 6 0 11 5 11 10 0 6 -2 10 -4 10 -3 0
-8 -4 -11 -10z"/>
<path d="M1497 1073 c-4 -3 -7 -13 -7 -22 1 -13 3 -13 11 2 11 19 8 33 -4 20z"/>
<path d="M797 1063 c-4 -3 -7 -11 -7 -17 0 -6 5 -5 12 2 6 6 9 14 7 17 -3 3
-9 2 -12 -2z"/>
<path d="M980 1049 c0 -5 5 -7 10 -4 6 3 10 8 10 11 0 2 -4 4 -10 4 -5 0 -10
-5 -10 -11z"/>
<path d="M1170 1050 c0 -5 5 -10 10 -10 6 0 10 5 10 10 0 6 -4 10 -10 10 -5 0
-10 -4 -10 -10z"/>
<path d="M1360 1040 c0 -5 5 -10 10 -10 6 0 10 5 10 10 0 6 -4 10 -10 10 -5 0
-10 -4 -10 -10z"/>
<path d="M895 1030 c-3 -5 -2 -10 4 -10 5 0 13 5 16 10 3 6 2 10 -4 10 -5 0
-13 -4 -16 -10z"/>
<path d="M1550 1025 c0 -8 2 -15 4 -15 2 0 6 7 10 15 3 8 1 15 -4 15 -6 0 -10
-7 -10 -15z"/>
<path d="M760 1009 c0 -5 5 -7 10 -4 6 3 10 8 10 11 0 2 -4 4 -10 4 -5 0 -10
-5 -10 -11z"/>
<path d="M950 1009 c0 -5 5 -7 10 -4 6 3 10 8 10 11 0 2 -4 4 -10 4 -5 0 -10
-5 -10 -11z"/>
<path d="M1150 1010 c0 -5 5 -10 10 -10 6 0 10 5 10 10 0 6 -4 10 -10 10 -5 0
-10 -4 -10 -10z"/>
<path d="M1290 1009 c0 -5 5 -7 10 -4 6 3 10 8 10 11 0 2 -4 4 -10 4 -5 0 -10
-5 -10 -11z"/>
<path d="M630 1000 c-13 -8 -12 -10 3 -10 9 0 17 5 17 10 0 12 -1 12 -20 0z"/>
<path d="M815 1000 c-3 -5 -2 -10 4 -10 5 0 13 5 16 10 3 6 2 10 -4 10 -5 0
-13 -4 -16 -10z"/>
<path d="M1015 1000 c-3 -5 -1 -10 4 -10 6 0 11 5 11 10 0 6 -2 10 -4 10 -3 0
-8 -4 -11 -10z"/>
<path d="M870 990 c-8 -5 -12 -12 -9 -15 4 -3 12 1 19 10 14 17 11 19 -10 5z"/>
<path d="M1205 990 c-3 -5 1 -10 9 -10 9 0 16 5 16 10 0 6 -4 10 -9 10 -6 0
-13 -4 -16 -10z"/>
<path d="M1345 991 c-3 -5 -1 -12 4 -15 5 -3 11 1 15 9 6 16 -9 21 -19 6z"/>
<path d="M1480 984 c0 -8 5 -12 10 -9 6 3 10 10 10 16 0 5 -4 9 -10 9 -5 0
-10 -7 -10 -16z"/>
<path d="M665 980 c-3 -5 -1 -10 4 -10 6 0 11 5 11 10 0 6 -2 10 -4 10 -3 0
-8 -4 -11 -10z"/>
<path d="M1060 980 c0 -5 4 -10 9 -10 6 0 13 5 16 10 3 6 -1 10 -9 10 -9 0
-16 -4 -16 -10z"/>
<path d="M1590 966 c0 -9 5 -16 10 -16 6 0 10 4 10 9 0 6 -4 13 -10 16 -5 3
-10 -1 -10 -9z"/>
<path d="M1120 960 c-8 -5 -12 -12 -9 -15 4 -3 12 1 19 10 14 17 11 19 -10 5z"/>
<path d="M1260 954 c0 -8 5 -12 10 -9 6 3 10 10 10 16 0 5 -4 9 -10 9 -5 0
-10 -7 -10 -16z"/>
<path d="M1407 963 c-4 -3 -7 -11 -7 -17 0 -6 5 -5 12 2 6 6 9 14 7 17 -3 3
-9 2 -12 -2z"/>
<path d="M785 950 c-3 -6 1 -7 9 -4 18 7 21 14 7 14 -6 0 -13 -4 -16 -10z"/>
<path d="M985 949 c-11 -16 -1 -19 13 -3 7 8 8 14 3 14 -5 0 -13 -5 -16 -11z"/>
<path d="M1545 951 c-3 -5 -1 -12 4 -15 5 -3 11 1 15 9 6 16 -9 21 -19 6z"/>
<path d="M1190 940 c-13 -8 -12 -10 3 -10 9 0 17 5 17 10 0 12 -1 12 -20 0z"/>
<path d="M1328 933 c7 -3 16 -2 19 1 4 3 -2 6 -13 5 -11 0 -14 -3 -6 -6z"/>
<path d="M1480 930 c0 -5 5 -10 10 -10 6 0 10 5 10 10 0 6 -4 10 -10 10 -5 0
-10 -4 -10 -10z"/>
<path d="M1623 898 c22 -58 71 -158 74 -154 3 3 -6 29 -20 58 -14 30 -29 66
-32 81 -4 15 -12 27 -17 27 -6 0 -8 -6 -5 -12z"/>
<path d="M2293 843 c9 -2 23 -2 30 0 6 3 -1 5 -18 5 -16 0 -22 -2 -12 -5z"/>
<path d="M2232 831 c-8 -5 -12 -15 -10 -22 6 -25 102 -199 110 -199 4 0 -10
30 -31 68 -49 87 -65 128 -57 147 6 17 6 18 -12 6z"/>
<path d="M7000 824 c-19 -8 -63 -17 -97 -19 -35 -2 -66 -6 -70 -8 -5 -2 -30
-5 -58 -5 -27 -1 -66 -4 -85 -7 -64 -11 -150 -13 -185 -5 -31 7 -35 5 -35 -12
0 -10 -5 -28 -10 -39 -6 -11 -9 -23 -6 -27 8 -14 364 15 471 38 22 5 53 12 69
15 24 5 27 10 23 31 -3 17 2 29 17 39 26 19 11 18 -34 -1z"/>
<path d="M1700 724 c0 -5 7 -18 15 -28 8 -11 15 -16 15 -10 0 5 -7 18 -15 28
-8 11 -15 16 -15 10z"/>
<path d="M2440 705 c0 -5 5 -17 10 -25 5 -8 10 -10 10 -5 0 6 -5 17 -10 25 -5
8 -10 11 -10 5z"/>
<path d="M1731 665 c1 -19 18 -51 18 -35 0 8 -4 22 -9 30 -5 8 -9 11 -9 5z"/>
<path d="M3044 644 c9 -8 16 -21 16 -29 0 -7 9 -23 19 -36 16 -19 15 -14 -5
29 -14 28 -29 52 -35 52 -6 0 -3 -7 5 -16z"/>
<path d="M2480 627 c0 -14 61 -129 67 -124 3 3 -11 34 -31 69 -20 35 -36 59
-36 55z"/>
<path d="M2340 594 c0 -6 7 -19 16 -30 14 -18 14 -18 3 6 -14 31 -19 36 -19
24z"/>
<path d="M1771 575 c1 -19 18 -51 18 -35 0 8 -4 22 -9 30 -5 8 -9 11 -9 5z"/>
<path d="M510 529 c0 -33 237 -90 492 -119 298 -33 868 -68 868 -52 0 25 -29
32 -140 32 -100 0 -206 7 -545 35 -241 20 -512 64 -616 100 -49 18 -59 18 -59
4z"/>
<path d="M6130 503 c-104 -35 -179 -52 -260 -59 -39 -4 -70 -10 -70 -15 0 -4
-16 -5 -35 -2 -23 4 -35 2 -35 -6 0 -6 -10 -11 -22 -11 -19 0 -20 2 -8 10 13
8 12 10 -2 10 -10 0 -18 -5 -18 -10 0 -6 -20 -9 -43 -9 -24 1 -49 -1 -55 -5
-10 -6 -471 -11 -1952 -21 -184 -1 -353 -5 -376 -9 -38 -7 -41 -5 -68 31 -22
30 -26 33 -21 13 19 -66 24 -73 48 -65 12 5 512 9 1111 11 1310 3 1584 13
1780 66 87 23 131 53 121 81 -8 20 -2 21 -95 -10z"/>
<path d="M2390 501 c0 -6 4 -13 10 -16 6 -3 7 1 4 9 -7 18 -14 21 -14 7z"/>
<path d="M2550 485 c0 -18 19 -40 26 -32 4 4 0 15 -9 24 -9 10 -17 13 -17 8z"/>
<path d="M2583 430 c2 -8 7 -24 11 -36 6 -18 2 -20 -44 -20 -41 1 -55 6 -80
29 -37 35 -38 29 -4 -23 l27 -40 73 0 c68 0 90 9 64 25 -6 3 -19 23 -31 43
-11 20 -18 30 -16 22z"/>
<path d="M1943 367 c-3 -5 -3 -10 -2 -12 2 -1 106 -5 232 -7 191 -4 243 0 225
14 -9 7 -451 11 -455 5z"/>
<path d="M2723 358 c2 -7 9 -13 15 -12 7 1 40 2 75 4 51 2 57 4 32 10 -52 13
-127 12 -122 -2z"/>
<path d="M3020 359 c64 -11 92 -11 85 1 -3 6 -34 9 -68 9 l-62 -2 45 -8z"/>
<path d="M1888 353 c7 -3 16 -2 19 1 4 3 -2 6 -13 5 -11 0 -14 -3 -6 -6z"/>
<path d="M2658 353 c6 -2 18 -2 25 0 6 3 1 5 -13 5 -14 0 -19 -2 -12 -5z"/>
</g>
</svg>
