<svg xmlns="http://www.w3.org/2000/svg" viewBox="0 0 24.5 24.5">
  <defs>
    <style>
      .cls-1 {
        fill: #46aa38;
        stroke: #46aa38;
        stroke-width: 0.5px;
      }
    </style>
  </defs>
  <g id="sport" transform="translate(-1537.75 -1230.75)">
    <path id="Path_36" data-name="Path 36" class="cls-1" d="M12,0A12,12,0,1,0,24,12,12,12,0,0,0,12,0Zm-.707.681a14.163,14.163,0,0,1,2.267,1.2A15.783,15.783,0,0,0,1.545,12.2a13.075,13.075,0,0,1-.8-1.622A11.361,11.361,0,0,1,11.293.681ZM3.922,15.574A23.376,23.376,0,0,1,2,12.948,15.1,15.1,0,0,1,14.342,2.405,22.766,22.766,0,0,1,16.358,4C13.97,4.633,5.528,7.417,3.922,15.574ZM16.937,4.535a26.118,26.118,0,0,1,2.018,2.138,20.257,20.257,0,0,0-5.4,2.263,13.393,13.393,0,0,0-6.71,9.608,28.071,28.071,0,0,1-2.368-2.331C5.846,7.4,15.5,4.863,16.937,4.535ZM12,23.343A11.357,11.357,0,0,1,.657,12v-.037c1.171,2.3,4.43,7.31,11.982,11.363C12.438,23.337,12.219,23.343,12,23.343Zm1.819-.147a33.557,33.557,0,0,1-6.382-4.148,11.974,11.974,0,0,1,2.031-5.471c1.081,1.291,4.986,5.8,8.568,8.01A11.27,11.27,0,0,1,13.819,23.2Zm4.815-2c-3.646-2.147-7.879-7.08-8.767-8.15A14.369,14.369,0,0,1,13.313,9.89c1.046.967,5.935,5.548,7.949,8.658A11.441,11.441,0,0,1,18.634,21.192Zm3.014-3.239A61.885,61.885,0,0,0,13.88,9.525,19.745,19.745,0,0,1,19.422,7.24a30.879,30.879,0,0,1,3.828,6.211A11.265,11.265,0,0,1,21.647,17.953Zm1.694-5.809C19.767,5.112,15.156,1.933,12.864.692A11.356,11.356,0,0,1,23.343,12C23.343,12.048,23.341,12.1,23.341,12.144Zm0,0" transform="translate(1538 1231)"/>
  </g>
</svg>
