<svg xmlns="http://www.w3.org/2000/svg" viewBox="0 0 24 24">
  <defs>
    <style>
      .cls-1 {
        fill: #fff;
        opacity: 0;
      }

      .cls-2 {
        fill: #fb3b71;
        stroke: #fb3b71;
        stroke-width: 0.3px;
      }
    </style>
  </defs>
  <g id="startup-acrive" transform="translate(-910 -93)">
    <path id="Path_836" data-name="Path 836" class="cls-1" d="M0,0H24V24H0Z" transform="translate(910 93)"/>
    <g id="startup" transform="translate(-165 -2016)">
      <g id="Group_76" data-name="Group 76" transform="translate(1086.828 2120.391)">
        <g id="Group_75" data-name="Group 75">
          <path id="Path_69" data-name="Path 69" class="cls-2" d="M252.254,240.533a.391.391,0,1,0,0,.552A.391.391,0,0,0,252.254,240.533Z" transform="translate(-251.587 -240.418)"/>
        </g>
      </g>
      <g id="Group_78" data-name="Group 78" transform="translate(1089.133 2114.961)">
        <g id="Group_77" data-name="Group 77">
          <path id="Path_70" data-name="Path 70" class="cls-2" d="M313.936,101.988a1.953,1.953,0,1,0,0,2.762A1.952,1.952,0,0,0,313.936,101.988Zm-.552,2.21a1.172,1.172,0,1,1,0-1.657A1.173,1.173,0,0,1,313.384,104.2Z" transform="translate(-310.603 -101.415)"/>
        </g>
      </g>
      <g id="Group_80" data-name="Group 80" transform="translate(1080.751 2111)">
        <g id="Group_79" data-name="Group 79" transform="translate(0 0)">
          <path id="Path_71" data-name="Path 71" class="cls-2" d="M112.153.114a.389.389,0,0,0-.29-.114,17.353,17.353,0,0,0-4.691.971,13.079,13.079,0,0,0-4.963,3.01c-.289.289-.57.6-.839.914a2.863,2.863,0,0,0-2.943-.17,5.533,5.533,0,0,0-2.408,4.5.391.391,0,0,0,.667.276,2.487,2.487,0,0,1,2.068-.694l.137.137a13.739,13.739,0,0,0-.645,1.9,1.106,1.106,0,0,0,.047.679,3.7,3.7,0,0,0-1.055.744c-1.006,1.006-1.21,3.456-1.218,3.56a.391.391,0,0,0,.389.421h.031c.1-.008,2.554-.212,3.56-1.218a3.7,3.7,0,0,0,.744-1.055,1.1,1.1,0,0,0,.679.047,13.742,13.742,0,0,0,1.9-.645l.137.137a2.487,2.487,0,0,1-.694,2.068.391.391,0,0,0,.276.667,5.533,5.533,0,0,0,4.5-2.408,2.863,2.863,0,0,0-.17-2.943c.318-.269.625-.55.914-.839A13.079,13.079,0,0,0,111.3,5.1,17.353,17.353,0,0,0,112.267.4.391.391,0,0,0,112.153.114ZM96.891,8.389a4.514,4.514,0,0,1,1.9-2.975,2.081,2.081,0,0,1,2.08.1,15.8,15.8,0,0,0-1.641,2.675.412.412,0,0,0-.207-.121A3.339,3.339,0,0,0,96.891,8.389Zm2.556,6.089a5.318,5.318,0,0,1-2.593.936,5.318,5.318,0,0,1,.936-2.593,2.815,2.815,0,0,1,1-.657l1.315,1.315A2.815,2.815,0,0,1,99.447,14.478Zm1.781-1.212a.367.367,0,0,1-.341-.111l-.765-.765-1.009-1.009A.367.367,0,0,1,99,11.04a12.682,12.682,0,0,1,.488-1.492l3.23,3.23A12.675,12.675,0,0,1,101.228,13.266Zm5.625.207a4.513,4.513,0,0,1-2.975,1.9,3.325,3.325,0,0,0,.32-2.145.408.408,0,0,0-.119-.2,15.8,15.8,0,0,0,2.675-1.641A2.081,2.081,0,0,1,106.853,13.472Zm.881-3.966a14.179,14.179,0,0,1-1.127,1.011,15.008,15.008,0,0,1-3.114,1.93L99.821,8.774a15,15,0,0,1,1.93-3.114,14.174,14.174,0,0,1,1.011-1.127,12.18,12.18,0,0,1,4.44-2.741l3.273,3.273A12.179,12.179,0,0,1,107.734,9.506Zm3.022-5.264-2.73-2.73a17.562,17.562,0,0,1,3.428-.7A17.566,17.566,0,0,1,110.756,4.242Z" transform="translate(-96.018 0)"/>
        </g>
      </g>
      <g id="Group_82" data-name="Group 82" transform="translate(1084.618 2127.02)">
        <g id="Group_81" data-name="Group 81">
          <path id="Path_72" data-name="Path 72" class="cls-2" d="M196.792,410.236a.391.391,0,0,0-.552,0l-1.1,1.105a.391.391,0,1,0,.553.552l1.1-1.105A.391.391,0,0,0,196.792,410.236Z" transform="translate(-195.021 -410.121)"/>
        </g>
      </g>
      <g id="Group_84" data-name="Group 84" transform="translate(1079.093 2121.496)">
        <g id="Group_83" data-name="Group 83">
          <path id="Path_73" data-name="Path 73" class="cls-2" d="M55.364,268.816a.391.391,0,0,0-.552,0l-1.105,1.1a.391.391,0,0,0,.552.553l1.105-1.1A.391.391,0,0,0,55.364,268.816Z" transform="translate(-53.592 -268.701)"/>
        </g>
      </g>
      <g id="Group_86" data-name="Group 86" transform="translate(1080.314 2127.573)">
        <g id="Group_85" data-name="Group 85">
          <path id="Path_74" data-name="Path 74" class="cls-2" d="M88.164,424.386a.391.391,0,0,0-.552,0l-2.646,2.646a.391.391,0,0,0,.552.552l2.646-2.646A.391.391,0,0,0,88.164,424.386Z" transform="translate(-84.851 -424.271)"/>
        </g>
      </g>
      <g id="Group_88" data-name="Group 88" transform="translate(1077.189 2127.573)">
        <g id="Group_87" data-name="Group 87">
          <path id="Path_75" data-name="Path 75" class="cls-2" d="M8.164,424.386a.391.391,0,0,0-.552,0l-2.646,2.646a.391.391,0,0,0,.552.552l2.646-2.646A.391.391,0,0,0,8.164,424.386Z" transform="translate(-4.851 -424.271)"/>
        </g>
      </g>
      <g id="Group_90" data-name="Group 90" transform="translate(1077 2124.258)">
        <g id="Group_89" data-name="Group 89" transform="translate(0)">
          <path id="Path_76" data-name="Path 76" class="cls-2" d="M3.314,339.525a.391.391,0,0,0-.552,0L.116,342.171a.391.391,0,1,0,.552.552l2.646-2.646A.391.391,0,0,0,3.314,339.525Z" transform="translate(-0.001 -339.41)"/>
        </g>
      </g>
      <g id="Group_92" data-name="Group 92" transform="translate(1087.932 2118.734)">
        <g id="Group_91" data-name="Group 91">
          <path id="Path_77" data-name="Path 77" class="cls-2" d="M281.09,198.1a.391.391,0,0,0-.552,0l-.552.552a.391.391,0,0,0,.552.552l.552-.552A.391.391,0,0,0,281.09,198.1Z" transform="translate(-279.871 -197.99)"/>
        </g>
      </g>
    </g>
  </g>
</svg>
