<svg xmlns="http://www.w3.org/2000/svg" xmlns:xlink="http://www.w3.org/1999/xlink" viewBox="0 0 100 100">
  <defs>
    <style>
      .cls-1 {
        fill: none;
      }

      .cls-2 {
        fill: #5c5287;
      }

      .cls-3 {
        fill: rgba(0,0,0,0);
      }

      .cls-4 {
        clip-path: url(#clip-path);
      }

      .cls-5 {
        clip-path: url(#clip-path-2);
      }
    </style>
    <clipPath id="clip-path">
      <path id="icon_action_android_24px" data-name="icon/action/android_24px" class="cls-1" d="M55.834,100a6.5,6.5,0,0,1-6.7-6.251V79.165H40.2V93.749A6.5,6.5,0,0,1,33.5,100a6.493,6.493,0,0,1-6.7-6.251V79.165H22.335A4.331,4.331,0,0,1,17.865,75V33.333h53.6V75A4.329,4.329,0,0,1,67,79.165H62.535V93.749A6.5,6.5,0,0,1,55.834,100Zm26.8-25a6.5,6.5,0,0,1-6.7-6.251V39.585a6.715,6.715,0,0,1,13.4,0V68.748A6.493,6.493,0,0,1,82.635,75ZM6.7,75A6.5,6.5,0,0,1,0,68.748V39.585a6.5,6.5,0,0,1,6.7-6.251,6.493,6.493,0,0,1,6.7,6.251V68.748A6.493,6.493,0,0,1,6.7,75ZM71.468,29.168h-53.6A24.283,24.283,0,0,1,28.811,9.041L22.958,3.585a1.977,1.977,0,0,1,0-2.959,2.321,2.321,0,0,1,3.172,0l6.657,6.165a27.992,27.992,0,0,1,23.67,0L63.07.626a2.321,2.321,0,0,1,3.172,0,1.977,1.977,0,0,1,0,2.959L60.433,9A24.522,24.522,0,0,1,71.468,29.163ZM53.6,16.665v4.17h4.466v-4.17Zm-22.331,0v4.17h4.466v-4.17Z" transform="translate(0)"/>
    </clipPath>
    <clipPath id="clip-path-2">
      <rect id="Rectangle" class="cls-2" width="99.999" height="99.999"/>
    </clipPath>
  </defs>
  <g id="tablet" transform="translate(-1467 -421)">
    <rect id="icon_action_stars_24px_background" data-name="icon/action/stars_24px background" class="cls-3" width="100" height="99.999" transform="translate(1467 421)"/>
    <path id="icon_action_android_24px-2" data-name="icon/action/android_24px" class="cls-1" d="M52.084,100a6.258,6.258,0,0,1-6.251-6.251V79.165H37.5V93.749a6.249,6.249,0,1,1-12.5,0V79.165H20.835A4.173,4.173,0,0,1,16.665,75V33.333h50V75A4.171,4.171,0,0,1,62.5,79.165H58.335V93.749A6.258,6.258,0,0,1,52.084,100Zm25-25a6.258,6.258,0,0,1-6.251-6.251V39.585a6.249,6.249,0,1,1,12.5,0V68.748A6.256,6.256,0,0,1,77.085,75ZM6.251,75A6.258,6.258,0,0,1,0,68.748V39.585a6.249,6.249,0,1,1,12.5,0V68.748A6.256,6.256,0,0,1,6.251,75ZM66.668,29.168h-50A24.776,24.776,0,0,1,26.876,9.041l-5.46-5.456a2.073,2.073,0,0,1,0-2.959,2.06,2.06,0,0,1,2.959,0l6.21,6.165a24.528,24.528,0,0,1,22.08,0L58.834.626a2.06,2.06,0,0,1,2.959,0,2.073,2.073,0,0,1,0,2.959L56.374,9A25.011,25.011,0,0,1,66.668,29.163ZM50,16.665v4.17h4.166v-4.17Zm-20.831,0v4.17h4.166v-4.17Z" transform="translate(1472.333 421)"/>
    <g id="Group_178" data-name="Group 178" class="cls-4" transform="translate(1472.333 421)">
      <g id="_Color" data-name="↳ Color" transform="translate(-8.933 0)">
        <rect id="_Color_background" data-name="↳ Color background" class="cls-2" width="107.2" height="99.999"/>
        <rect id="Rectangle-2" data-name="Rectangle" class="cls-2" width="99.999" height="99.999"/>
      </g>
    </g>
  </g>
</svg>
