<svg xmlns="http://www.w3.org/2000/svg" viewBox="0 0 100.5 100.5">
  <defs>
    <style>
      .cls-1 {
        fill: #46aa38;
        stroke: #46aa38;
        stroke-width: 0.5px;
      }
    </style>
  </defs>
  <g id="volleyball" transform="translate(-559.75 -605.75)">
    <path id="Path_36" data-name="Path 36" class="cls-1" d="M50,0a50,50,0,1,0,50,50A50,50,0,0,0,50,0ZM47.054,2.836A59.011,59.011,0,0,1,56.5,7.852C21.731,14.892,9.612,41.647,6.438,50.821a54.478,54.478,0,0,1-3.319-6.758A47.337,47.337,0,0,1,47.054,2.836ZM16.342,64.892A97.4,97.4,0,0,1,8.317,53.949C9.639,49.189,20.1,16.56,59.758,10.022a94.859,94.859,0,0,1,8.4,6.648C58.207,19.3,23.035,30.9,16.342,64.892Zm54.231-46A108.826,108.826,0,0,1,78.981,27.8a84.4,84.4,0,0,0-22.506,9.429C40.635,46.8,31.023,60.614,28.515,77.266a116.963,116.963,0,0,1-9.867-9.712C24.357,30.85,64.591,20.263,70.573,18.895ZM50,97.265A47.319,47.319,0,0,1,2.736,50v-.155C7.615,59.411,21.193,80.3,52.662,97.192,51.824,97.237,50.912,97.265,50,97.265Zm7.578-.611A139.822,139.822,0,0,1,30.987,79.372a49.891,49.891,0,0,1,8.463-22.8c4.5,5.38,20.774,24.147,35.7,33.376A46.96,46.96,0,0,1,57.578,96.654ZM77.64,88.3c-15.192-8.946-32.829-29.5-36.531-33.96A59.87,59.87,0,0,1,55.471,41.209C59.83,45.24,80.2,64.326,88.592,77.284A47.672,47.672,0,0,1,77.64,88.3ZM90.2,74.8c-8.672-12.84-27.11-30.275-32.363-35.117a82.27,82.27,0,0,1,23.089-9.52,128.664,128.664,0,0,1,15.949,25.88A46.938,46.938,0,0,1,90.2,74.8Zm7.058-24.2C82.363,21.3,63.15,8.052,53.6,2.882A47.319,47.319,0,0,1,97.265,50C97.265,50.2,97.255,50.4,97.255,50.6Zm0,0" transform="translate(560 606)"/>
  </g>
</svg>
